<svg xmlns="http://www.w3.org/2000/svg" xmlns:xlink="http://www.w3.org/1999/xlink" width="500" zoomAndPan="magnify" viewBox="0 0 375 374.999991" height="500" preserveAspectRatio="xMidYMid meet" version="1.0"><rect x="-37.5" width="450" fill="#ffffff" y="-37.499999" height="449.999989" fill-opacity="1"/><rect x="-37.5" width="450" fill="#ffffff" y="-37.499999" height="449.999989" fill-opacity="1"/><rect x="-37.5" width="450" fill="#ffffff" y="-37.499999" height="449.999989" fill-opacity="1"/><path fill="#bb1d1d" d="M 286.492188 55.914062 C 280.734375 61.667969 280.734375 71 286.492188 76.753906 C 292.246094 82.507812 301.570312 82.507812 307.328125 76.753906 C 313.085938 71 313.085938 61.667969 307.328125 55.914062 C 301.570312 50.160156 292.246094 50.160156 286.492188 55.914062 " fill-opacity="1" fill-rule="nonzero"/><path fill="#490505" d="M 205.082031 356.769531 C 189.035156 356.65625 176.078125 349.898438 176.132812 341.683594 C 176.191406 333.464844 189.242188 326.894531 205.292969 327.007812 C 221.332031 327.121094 234.292969 333.875 234.238281 342.09375 C 234.179688 350.3125 221.125 356.882812 205.082031 356.769531 Z M 163.886719 350.660156 C 158.253906 356.210938 151.382812 358.375 148.542969 355.492188 C 145.699219 352.605469 147.957031 345.769531 153.589844 340.214844 C 159.21875 334.664062 166.09375 332.5 168.933594 335.382812 C 171.777344 338.269531 169.519531 345.109375 163.886719 350.660156 Z M 323.183594 58.097656 C 325.382812 67.640625 321.773438 78.253906 313.140625 84.441406 L 232.261719 142.410156 C 213.492188 161.179688 213.492188 191.621094 232.261719 210.390625 C 228.3125 214.335938 228.3125 220.738281 232.261719 224.6875 C 237.398438 229.820312 237.398438 238.140625 232.261719 243.277344 L 220.703125 254.839844 C 210.714844 264.820312 190.890625 284.648438 182.445312 293.09375 C 169.25 306.292969 132.160156 345.078125 113.582031 359.859375 C 136.261719 369.597656 161.25 375 187.5 375 C 291.054688 375 375 291.054688 375 187.5 C 375 137.320312 355.289062 91.746094 323.183594 58.097656 " fill-opacity="1" fill-rule="nonzero"/><path fill="#bb1d1d" d="M 58.074219 276.890625 C 55.84375 274.621094 57.617188 269.246094 62.046875 264.882812 C 66.472656 260.515625 71.875 258.816406 74.109375 261.085938 C 76.347656 263.351562 74.570312 268.730469 70.140625 273.09375 C 65.714844 277.457031 60.3125 279.15625 58.074219 276.890625 Z M 112.441406 313.109375 C 116.160156 308.375 124.015625 298.28125 118.460938 292.289062 C 108.890625 281.953125 74.078125 318.933594 64.535156 308.582031 C 53.574219 296.691406 98.933594 260.484375 88.203125 248.390625 C 79.167969 238.214844 46.003906 270.878906 35.542969 262.175781 C 30.019531 257.578125 30.828125 246.617188 33.839844 235.207031 C 38.171875 218.796875 47.015625 203.929688 59.019531 191.925781 L 97.328125 153.621094 C 97.328125 153.621094 175.808594 215.710938 203.429688 237.5625 L 108.40625 142.539062 L 119.96875 130.980469 C 125.101562 125.847656 133.421875 125.847656 138.558594 130.980469 C 142.507812 134.925781 148.902344 134.925781 152.855469 130.976562 L 152.855469 130.980469 C 171.625 149.753906 202.058594 149.753906 220.835938 130.980469 L 279.1875 49.566406 C 284.761719 41.785156 293.882812 38.308594 302.570312 39.464844 C 270.804688 14.734375 230.875 0 187.5 0 C 83.945312 0 0 83.945312 0 187.5 C 0 257.25 38.085938 318.097656 94.597656 350.398438 C 95.035156 341.773438 99.628906 329.425781 112.441406 313.109375 " fill-opacity="1" fill-rule="nonzero"/></svg>