<svg xmlns="http://www.w3.org/2000/svg" xmlns:xlink="http://www.w3.org/1999/xlink" width="500" zoomAndPan="magnify" viewBox="0 0 375 374.999991" height="500" preserveAspectRatio="xMidYMid meet" version="1.0"><defs><g/><clipPath id="e8fdf918d0"><path d="M 31.175781 31.175781 L 343.824219 31.175781 L 343.824219 343.824219 L 31.175781 343.824219 Z M 31.175781 31.175781 " clip-rule="nonzero"/></clipPath><clipPath id="97e8c2aa2a"><path d="M 187.5 31.175781 C 101.164062 31.175781 31.175781 101.164062 31.175781 187.5 C 31.175781 273.835938 101.164062 343.824219 187.5 343.824219 C 273.835938 343.824219 343.824219 273.835938 343.824219 187.5 C 343.824219 101.164062 273.835938 31.175781 187.5 31.175781 " clip-rule="nonzero"/></clipPath><clipPath id="920d09f9a4"><path d="M 31.175781 31.175781 L 343.925781 31.175781 L 343.925781 343.925781 L 31.175781 343.925781 Z M 31.175781 31.175781 " clip-rule="nonzero"/></clipPath><clipPath id="60eac5dce4"><path d="M 187.550781 31.175781 C 101.1875 31.175781 31.175781 101.1875 31.175781 187.550781 C 31.175781 273.914062 101.1875 343.925781 187.550781 343.925781 C 273.914062 343.925781 343.925781 273.914062 343.925781 187.550781 C 343.925781 101.1875 273.914062 31.175781 187.550781 31.175781 " clip-rule="nonzero"/></clipPath><clipPath id="094e44f165"><path d="M 41.121094 41.121094 L 333.878906 41.121094 L 333.878906 333.878906 L 41.121094 333.878906 Z M 41.121094 41.121094 " clip-rule="nonzero"/></clipPath><clipPath id="d73d63367b"><path d="M 187.5 41.121094 C 106.65625 41.121094 41.121094 106.65625 41.121094 187.5 C 41.121094 268.34375 106.65625 333.878906 187.5 333.878906 C 268.34375 333.878906 333.878906 268.34375 333.878906 187.5 C 333.878906 106.65625 268.34375 41.121094 187.5 41.121094 " clip-rule="nonzero"/></clipPath><clipPath id="60a0583e0a"><path d="M 85.253906 85.253906 L 289.746094 85.253906 L 289.746094 289.746094 L 85.253906 289.746094 Z M 85.253906 85.253906 " clip-rule="nonzero"/></clipPath><clipPath id="e8b6550f7f"><path d="M 187.5 85.253906 C 131.03125 85.253906 85.253906 131.03125 85.253906 187.5 C 85.253906 243.96875 131.03125 289.746094 187.5 289.746094 C 243.96875 289.746094 289.746094 243.96875 289.746094 187.5 C 289.746094 131.03125 243.96875 85.253906 187.5 85.253906 " clip-rule="nonzero"/></clipPath><clipPath id="b352e993be"><path d="M 89.390625 89.390625 L 285.609375 89.390625 L 285.609375 285.609375 L 89.390625 285.609375 Z M 89.390625 89.390625 " clip-rule="nonzero"/></clipPath><clipPath id="fe1119b4a9"><path d="M 187.5 89.390625 C 133.316406 89.390625 89.390625 133.316406 89.390625 187.5 C 89.390625 241.683594 133.316406 285.609375 187.5 285.609375 C 241.683594 285.609375 285.609375 241.683594 285.609375 187.5 C 285.609375 133.316406 241.683594 89.390625 187.5 89.390625 " clip-rule="nonzero"/></clipPath><clipPath id="afb1afa78b"><path d="M 14 138 L 361 138 L 361 237 L 14 237 Z M 14 138 " clip-rule="nonzero"/></clipPath><clipPath id="8665423aeb"><path d="M 14.324219 157.335938 L 357.773438 137.945312 L 362.328125 218.621094 L 18.878906 238.011719 Z M 14.324219 157.335938 " clip-rule="nonzero"/></clipPath><clipPath id="5c6db56fff"><path d="M 21.0625 156.957031 L 349.441406 138.417969 C 351.226562 138.316406 352.980469 138.929688 354.316406 140.121094 C 355.652344 141.3125 356.460938 142.988281 356.558594 144.773438 L 360.296875 210.925781 C 360.394531 212.710938 359.78125 214.464844 358.589844 215.800781 C 357.398438 217.136719 355.722656 217.945312 353.9375 218.042969 L 25.558594 236.582031 C 23.773438 236.683594 22.019531 236.070312 20.683594 234.878906 C 19.347656 233.6875 18.539062 232.011719 18.441406 230.226562 L 14.707031 164.074219 C 14.605469 162.289062 15.21875 160.535156 16.410156 159.199219 C 17.601562 157.863281 19.277344 157.054688 21.0625 156.957031 " clip-rule="nonzero"/></clipPath><clipPath id="6d429978f0"><path d="M 14 138 L 361 138 L 361 237 L 14 237 Z M 14 138 " clip-rule="nonzero"/></clipPath><clipPath id="0e1c8702b7"><path d="M 14.324219 157.335938 L 356.53125 138.015625 L 361.011719 217.390625 L 18.804688 236.710938 Z M 14.324219 157.335938 " clip-rule="nonzero"/></clipPath><clipPath id="7271dcae43"><path d="M 11.90625 155.167969 L 357.972656 135.628906 L 362.644531 218.34375 L 16.578125 237.882812 Z M 11.90625 155.167969 " clip-rule="nonzero"/></clipPath><clipPath id="19ffac1e17"><path d="M 21.089844 156.953125 L 349.765625 138.398438 C 351.554688 138.296875 353.308594 138.90625 354.644531 140.097656 C 355.980469 141.285156 356.789062 142.953125 356.890625 144.734375 L 360.613281 210.671875 C 360.714844 212.453125 360.097656 214.203125 358.90625 215.535156 C 357.710938 216.867188 356.035156 217.671875 354.246094 217.769531 L 25.570312 236.328125 C 23.78125 236.429688 22.027344 235.816406 20.691406 234.628906 C 19.355469 233.441406 18.546875 231.773438 18.445312 229.992188 L 14.722656 164.050781 C 14.621094 162.269531 15.238281 160.523438 16.429688 159.191406 C 17.625 157.859375 19.300781 157.054688 21.089844 156.953125 " clip-rule="nonzero"/></clipPath><clipPath id="3217caa139"><path d="M 32 192 L 41 192 L 41 201 L 32 201 Z M 32 192 " clip-rule="nonzero"/></clipPath><clipPath id="13fe8be561"><path d="M 34.140625 191.253906 L 41.554688 194.222656 L 38.585938 201.636719 L 31.171875 198.667969 Z M 34.140625 191.253906 " clip-rule="nonzero"/></clipPath><clipPath id="4b89b6318d"><path d="M 37.847656 192.738281 C 35.800781 191.917969 33.476562 192.914062 32.65625 194.960938 C 31.835938 197.007812 32.832031 199.335938 34.878906 200.152344 C 36.925781 200.972656 39.253906 199.976562 40.070312 197.929688 C 40.890625 195.882812 39.898438 193.558594 37.847656 192.738281 " clip-rule="nonzero"/></clipPath><clipPath id="dd99e3242f"><path d="M 334 174 L 343 174 L 343 183 L 334 183 Z M 334 174 " clip-rule="nonzero"/></clipPath><clipPath id="11e822405d"><path d="M 336.410156 173.023438 L 343.824219 175.992188 L 340.855469 183.410156 L 333.441406 180.441406 Z M 336.410156 173.023438 " clip-rule="nonzero"/></clipPath><clipPath id="67b13df5cf"><path d="M 340.117188 174.507812 C 338.070312 173.6875 335.746094 174.683594 334.925781 176.730469 C 334.105469 178.78125 335.101562 181.105469 337.148438 181.925781 C 339.195312 182.742188 341.519531 181.75 342.339844 179.699219 C 343.160156 177.652344 342.164062 175.328125 340.117188 174.507812 " clip-rule="nonzero"/></clipPath><clipPath id="77e1275e8e"><path d="M 22 146 L 353 146 L 353 229 L 22 229 Z M 22 146 " clip-rule="nonzero"/></clipPath><clipPath id="3ba4e0c48b"><path d="M 22.988281 165.402344 L 348.691406 146.5625 L 352.332031 209.457031 L 26.625 228.296875 Z M 22.988281 165.402344 " clip-rule="nonzero"/></clipPath><clipPath id="8d7a503a9d"><path d="M 22.992188 165.402344 L 350.59375 146.453125 L 354.316406 210.863281 L 26.71875 229.816406 Z M 22.992188 165.402344 " clip-rule="nonzero"/></clipPath><clipPath id="592db7d6af"><path d="M 22.992188 165.402344 L 348.6875 146.5625 L 352.324219 209.457031 L 26.628906 228.296875 Z M 22.992188 165.402344 " clip-rule="nonzero"/></clipPath><clipPath id="4fee5217b1"><path d="M 73 236 L 114 236 L 114 295 L 73 295 Z M 73 236 " clip-rule="nonzero"/></clipPath><clipPath id="943e203cae"><path d="M 68.4375 248.058594 L 93.859375 236.9375 L 114 282.972656 L 88.578125 294.097656 Z M 68.4375 248.058594 " clip-rule="nonzero"/></clipPath><clipPath id="730ab34418"><path d="M 68.4375 248.058594 L 249.148438 168.996094 L 280.410156 240.457031 L 99.699219 319.519531 Z M 68.4375 248.058594 " clip-rule="nonzero"/></clipPath><clipPath id="56bc1918b9"><path d="M 260 236 L 301 236 L 301 294 L 260 294 Z M 260 236 " clip-rule="nonzero"/></clipPath><clipPath id="9953f604e7"><path d="M 277.925781 236.964844 L 304.015625 246.425781 L 286.882812 293.664062 L 260.796875 284.203125 Z M 277.925781 236.964844 " clip-rule="nonzero"/></clipPath><clipPath id="2d1ea36acb"><path d="M 303.949219 246.398438 L 118.511719 179.160156 L 91.921875 252.488281 L 277.359375 319.726562 Z M 303.949219 246.398438 " clip-rule="nonzero"/></clipPath><clipPath id="5129cd90c9"><path d="M 156 114 L 183 114 L 183 134 L 156 134 Z M 156 114 " clip-rule="nonzero"/></clipPath><clipPath id="f3f70d8528"><path d="M 172.761719 99.148438 L 205.464844 117.5 L 187.480469 149.550781 L 154.777344 131.199219 Z M 172.761719 99.148438 " clip-rule="nonzero"/></clipPath><clipPath id="eadad62845"><path d="M 172.761719 99.148438 L 205.464844 117.5 L 187.480469 149.550781 L 154.777344 131.199219 Z M 172.761719 99.148438 " clip-rule="nonzero"/></clipPath><clipPath id="40001da42d"><path d="M 178 113 L 187 113 L 187 134 L 178 134 Z M 178 113 " clip-rule="nonzero"/></clipPath><clipPath id="0bb142d6f6"><path d="M 172.761719 99.148438 L 205.464844 117.5 L 187.480469 149.550781 L 154.777344 131.199219 Z M 172.761719 99.148438 " clip-rule="nonzero"/></clipPath><clipPath id="6467d6c7f7"><path d="M 172.761719 99.148438 L 205.464844 117.5 L 187.480469 149.550781 L 154.777344 131.199219 Z M 172.761719 99.148438 " clip-rule="nonzero"/></clipPath><clipPath id="56710fa9ec"><path d="M 181 110 L 196 110 L 196 132 L 181 132 Z M 181 110 " clip-rule="nonzero"/></clipPath><clipPath id="985e15dfde"><path d="M 172.761719 99.148438 L 205.464844 117.5 L 187.480469 149.550781 L 154.777344 131.199219 Z M 172.761719 99.148438 " clip-rule="nonzero"/></clipPath><clipPath id="6f2499a936"><path d="M 172.761719 99.148438 L 205.464844 117.5 L 187.480469 149.550781 L 154.777344 131.199219 Z M 172.761719 99.148438 " clip-rule="nonzero"/></clipPath><clipPath id="20e77ce244"><path d="M 188 118 L 200 118 L 200 139 L 188 139 Z M 188 118 " clip-rule="nonzero"/></clipPath><clipPath id="3a06d7c711"><path d="M 172.761719 99.148438 L 205.464844 117.5 L 187.480469 149.550781 L 154.777344 131.199219 Z M 172.761719 99.148438 " clip-rule="nonzero"/></clipPath><clipPath id="c8c53fee22"><path d="M 172.761719 99.148438 L 205.464844 117.5 L 187.480469 149.550781 L 154.777344 131.199219 Z M 172.761719 99.148438 " clip-rule="nonzero"/></clipPath><clipPath id="3895124ed4"><path d="M 185 141 L 189 141 L 189 144 L 185 144 Z M 185 141 " clip-rule="nonzero"/></clipPath><clipPath id="3da3e9c7a8"><path d="M 172.761719 99.148438 L 205.464844 117.5 L 187.480469 149.550781 L 154.777344 131.199219 Z M 172.761719 99.148438 " clip-rule="nonzero"/></clipPath><clipPath id="259a8f1481"><path d="M 172.761719 99.148438 L 205.464844 117.5 L 187.480469 149.550781 L 154.777344 131.199219 Z M 172.761719 99.148438 " clip-rule="nonzero"/></clipPath><clipPath id="d4c049cbdd"><path d="M 159.34375 233.429688 L 215.59375 233.429688 L 215.59375 289.679688 L 159.34375 289.679688 Z M 159.34375 233.429688 " clip-rule="nonzero"/></clipPath><clipPath id="87da9cb663"><path d="M 166.503906 238.492188 L 209 238.492188 L 209 248 L 166.503906 248 Z M 166.503906 238.492188 " clip-rule="nonzero"/></clipPath><clipPath id="9879778587"><path d="M 169.503906 238.492188 L 206.109375 238.492188 C 207.765625 238.492188 209.109375 239.835938 209.109375 241.492188 L 209.109375 244.652344 C 209.109375 246.3125 207.765625 247.652344 206.109375 247.652344 L 169.503906 247.652344 C 167.847656 247.652344 166.503906 246.3125 166.503906 244.652344 L 166.503906 241.492188 C 166.503906 239.835938 167.847656 238.492188 169.503906 238.492188 " clip-rule="nonzero"/></clipPath><clipPath id="f141ab1f17"><path d="M 165.027344 252.902344 L 202 252.902344 L 202 262.789062 L 165.027344 262.789062 Z M 165.027344 252.902344 " clip-rule="nonzero"/></clipPath><clipPath id="e2ee0ba5b9"><path d="M 172.652344 268.339844 L 209.109375 268.339844 L 209.109375 277.023438 L 172.652344 277.023438 Z M 172.652344 268.339844 " clip-rule="nonzero"/></clipPath><clipPath id="b13fc6d8ae"><path d="M 160 253 L 170 253 L 170 263 L 160 263 Z M 160 253 " clip-rule="nonzero"/></clipPath><clipPath id="f60ee41d77"><path d="M 164.933594 253.605469 L 169.683594 258.792969 L 164.496094 263.542969 L 159.746094 258.355469 Z M 164.933594 253.605469 " clip-rule="nonzero"/></clipPath><clipPath id="ce5c24b778"><path d="M 164.933594 253.605469 L 169.453125 258.539062 L 164.8125 262.792969 L 160.289062 257.859375 Z M 164.933594 253.605469 " clip-rule="nonzero"/></clipPath><clipPath id="fd94b00a1f"><path d="M 205 268 L 215 268 L 215 278 L 205 278 Z M 205 268 " clip-rule="nonzero"/></clipPath><clipPath id="50c1dabde3"><path d="M 210.027344 268.339844 L 214.996094 273.3125 L 210.027344 278.28125 L 205.054688 273.3125 Z M 210.027344 268.339844 " clip-rule="nonzero"/></clipPath><clipPath id="0edb2b990a"><path d="M 210.027344 268.339844 L 214.585938 272.898438 L 209.757812 277.722656 L 205.199219 273.164062 Z M 210.027344 268.339844 " clip-rule="nonzero"/></clipPath><clipPath id="e04d818efd"><path d="M 183.785156 234.582031 L 191 234.582031 L 191 287.089844 L 183.785156 287.089844 Z M 183.785156 234.582031 " clip-rule="nonzero"/></clipPath></defs><g clip-path="url(#e8fdf918d0)"><g clip-path="url(#97e8c2aa2a)"><path fill="#ffffff" d="M 31.175781 31.175781 L 343.824219 31.175781 L 343.824219 343.824219 L 31.175781 343.824219 Z M 31.175781 31.175781 " fill-opacity="1" fill-rule="nonzero"/></g></g><g clip-path="url(#920d09f9a4)"><g clip-path="url(#60eac5dce4)"><path stroke-linecap="butt" transform="matrix(0.750253, -0.000000000000000047, 0.000000000000000047, 0.750253, 31.174254, 31.17425)" fill="none" stroke-linejoin="miter" d="M 208.43175 0.00204157 C 93.319526 0.00204157 0.00203558 93.319532 0.00203558 208.431756 C 0.00203558 323.54398 93.319526 416.861471 208.43175 416.861471 C 323.543974 416.861471 416.861465 323.54398 416.861465 208.431756 C 416.861465 93.319532 323.543974 0.00204157 208.43175 0.00204157 " stroke="#bf2525" stroke-width="16" stroke-opacity="1" stroke-miterlimit="4"/></g></g><g clip-path="url(#094e44f165)"><g clip-path="url(#d73d63367b)"><path fill="#191516" d="M 41.121094 41.121094 L 333.878906 41.121094 L 333.878906 333.878906 L 41.121094 333.878906 Z M 41.121094 41.121094 " fill-opacity="1" fill-rule="nonzero"/></g></g><g clip-path="url(#60a0583e0a)"><g clip-path="url(#e8b6550f7f)"><path fill="#ffffff" d="M 85.253906 85.253906 L 289.746094 85.253906 L 289.746094 289.746094 L 85.253906 289.746094 Z M 85.253906 85.253906 " fill-opacity="1" fill-rule="nonzero"/></g></g><g clip-path="url(#b352e993be)"><g clip-path="url(#fe1119b4a9)"><path fill="#cb1e1e" d="M 89.390625 89.390625 L 285.609375 89.390625 L 285.609375 285.609375 L 89.390625 285.609375 Z M 89.390625 89.390625 " fill-opacity="1" fill-rule="nonzero"/></g></g><g clip-path="url(#afb1afa78b)"><g clip-path="url(#8665423aeb)"><g clip-path="url(#5c6db56fff)"><path fill="#ffffff" d="M 14.324219 157.335938 L 355.46875 138.074219 L 360.023438 218.75 L 18.878906 238.011719 Z M 14.324219 157.335938 " fill-opacity="1" fill-rule="nonzero"/></g></g></g><g clip-path="url(#6d429978f0)"><g clip-path="url(#0e1c8702b7)"><g clip-path="url(#7271dcae43)"><g clip-path="url(#19ffac1e17)"><path stroke-linecap="butt" transform="matrix(0.749576, -0.0423193, 0.0421455, 0.746497, 14.343835, 157.334829)" fill="none" stroke-linejoin="miter" d="M 8.999825 -0.00112152 L 447.481764 0.000994119 C 449.868571 0.000251428 452.155248 0.946198 453.842391 2.637839 C 455.529827 4.324265 456.479903 6.612521 456.481229 8.998742 L 456.4812 97.327999 C 456.482526 99.71422 455.53037 102.004526 453.845972 103.693413 C 452.156379 105.382005 449.867428 106.330195 447.480915 106.325722 L 8.998682 106.328822 C 6.611876 106.329565 4.325492 105.378403 2.638056 103.691977 C 0.950619 102.005551 0.000543914 99.717296 -0.000782297 97.331075 L -0.000460088 8.996601 C -0.0017863 6.61038 0.950076 4.325291 2.634475 2.636404 C 4.324068 0.947811 6.613018 -0.000378828 8.999825 -0.00112152 " stroke="#cb1e1e" stroke-width="16" stroke-opacity="1" stroke-miterlimit="4"/></g></g></g></g><g clip-path="url(#3217caa139)"><g clip-path="url(#13fe8be561)"><g clip-path="url(#4b89b6318d)"><path fill="#191516" d="M 34.140625 191.253906 L 41.554688 194.222656 L 38.585938 201.636719 L 31.171875 198.667969 Z M 34.140625 191.253906 " fill-opacity="1" fill-rule="nonzero"/></g></g></g><path stroke-linecap="butt" transform="matrix(0.288197, -0.719778, 0.696262, 0.278781, 34.183299, 199.871089)" fill="none" stroke-linejoin="miter" d="M 0.00140185 0.998479 L 10.65001 1.000513 " stroke="#ffffff" stroke-width="2" stroke-opacity="1" stroke-miterlimit="4"/><g clip-path="url(#dd99e3242f)"><g clip-path="url(#11e822405d)"><g clip-path="url(#67b13df5cf)"><path fill="#191516" d="M 336.410156 173.023438 L 343.824219 175.992188 L 340.855469 183.410156 L 333.441406 180.441406 Z M 336.410156 173.023438 " fill-opacity="1" fill-rule="nonzero"/></g></g></g><path stroke-linecap="butt" transform="matrix(0.288197, -0.719778, 0.696262, 0.278781, 336.103166, 181.501762)" fill="none" stroke-linejoin="miter" d="M -0.00190307 1.50205 L 10.64951 1.497313 " stroke="#ffffff" stroke-width="3" stroke-opacity="1" stroke-miterlimit="4"/><g clip-path="url(#77e1275e8e)"><g clip-path="url(#3ba4e0c48b)"><g clip-path="url(#8d7a503a9d)"><g clip-path="url(#592db7d6af)"><path stroke-linecap="butt" transform="matrix(0.749502, -0.0433581, 0.0432341, 0.747358, 22.992187, 165.40364)" fill="none" stroke-linejoin="miter" d="M 0.000100632 -0.00172906 L 434.549008 0.00011799 L 434.54677 84.155826 L -0.00213691 84.153979 L 0.000100632 -0.00172906 " stroke="#191516" stroke-width="6" stroke-opacity="1" stroke-miterlimit="4"/></g></g></g></g><g clip-path="url(#4fee5217b1)"><g clip-path="url(#943e203cae)"><g clip-path="url(#730ab34418)"><path fill="#cb1e1e" d="M 82.179688 257.828125 C 77.382812 255.445312 74.179688 251.816406 74.75 245.289062 C 80.746094 247.914062 82.40625 252.457031 82.179688 257.828125 Z M 86.246094 264.425781 C 80.9375 265.214844 76.238281 264.058594 73.003906 258.363281 C 79.414062 257.09375 83.367188 259.890625 86.246094 264.425781 Z M 86.8125 264.023438 C 83.550781 259.765625 82.292969 255.089844 85.699219 249.507812 C 89.898438 254.515625 89.378906 259.3125 86.8125 264.023438 Z M 93.066406 271.980469 C 88.070312 273.335938 83.46875 272.746094 79.726562 267.691406 C 85.710938 265.75 89.78125 267.972656 93.066406 271.980469 Z M 93.554688 271.546875 C 89.960938 267.828125 88.226562 263.515625 90.851562 257.792969 C 95.445312 262.105469 95.488281 266.742188 93.554688 271.546875 Z M 101.136719 278.398438 C 96.46875 280.308594 91.925781 280.308594 87.691406 275.863281 C 93.25 273.253906 97.46875 274.910156 101.136719 278.398438 Z M 101.554688 277.910156 C 97.621094 274.757812 95.421875 270.777344 97.265625 264.917969 C 102.226562 268.519531 102.839844 273.019531 101.554688 277.910156 Z M 110.214844 283.480469 C 105.886719 285.964844 101.421875 286.542969 96.691406 282.707031 C 101.828125 279.433594 106.1875 280.519531 110.214844 283.480469 Z M 110.570312 282.953125 C 106.3125 280.355469 103.628906 276.71875 104.695312 270.71875 C 110.039062 273.652344 111.21875 277.992188 110.570312 282.953125 Z M 120.109375 287.136719 C 116.089844 290.183594 111.707031 291.335938 106.476562 288.113281 C 111.191406 284.171875 115.699219 284.691406 120.109375 287.136719 Z M 120.398438 286.550781 C 115.789062 284.5 112.648438 281.214844 112.933594 275.078125 C 118.640625 277.300781 120.390625 281.5 120.398438 286.550781 Z M 246.996094 185.71875 C 242.898438 182.242188 240.6875 177.9375 242.808594 171.761719 C 247.992188 175.769531 248.5 180.578125 246.996094 185.71875 Z M 249.082031 193.183594 C 247.703125 187.988281 248.332031 183.1875 253.613281 179.347656 C 255.582031 185.589844 253.265625 189.824219 249.082031 193.183594 Z M 248.402344 193.328125 C 243.199219 192.015625 239.304688 189.148438 238.496094 182.660156 C 244.90625 183.941406 247.484375 188.042969 248.402344 193.328125 Z M 250 203.320312 C 249.265625 198.195312 250.417969 193.691406 255.902344 190.613281 C 257.078125 196.792969 254.367188 200.578125 250 203.320312 Z M 249.335938 203.394531 C 244.507812 201.546875 241.132812 198.367188 241.066406 192.074219 C 247.046875 194.027344 249.058594 198.222656 249.335938 203.394531 Z M 249.238281 213.601562 C 249.144531 208.550781 250.792969 204.328125 256.480469 202.015625 C 256.871094 208.144531 253.808594 211.472656 249.238281 213.601562 Z M 248.578125 213.585938 C 244.128906 211.203125 241.242188 207.699219 241.960938 201.613281 C 247.5 204.242188 248.929688 208.554688 248.578125 213.585938 Z M 246.792969 223.726562 C 247.367188 218.753906 249.527344 214.8125 255.421875 213.261719 C 255.023438 219.339844 251.570312 222.226562 246.792969 223.726562 Z M 246.160156 223.632812 C 242.097656 220.730469 239.691406 216.929688 241.183594 211.003906 C 246.292969 214.300781 247.160156 218.734375 246.160156 223.632812 Z M 242.761719 233.472656 C 243.976562 228.570312 246.652344 224.90625 252.730469 224.125 C 251.546875 230.15625 247.722656 232.59375 242.761719 233.472656 Z M 242.132812 233.289062 C 238.445312 229.851562 236.53125 225.722656 238.792969 220.011719 C 243.492188 223.96875 243.773438 228.503906 242.132812 233.289062 Z M 183.613281 265.933594 C 170.730469 271.570312 157.277344 274.394531 143.8125 274.707031 L 145.238281 288.890625 C 160.144531 288.535156 175.085938 285.367188 189.378906 279.113281 C 203.671875 272.859375 216.140625 264.035156 226.519531 253.328125 L 217.050781 242.667969 C 207.699219 252.332031 196.496094 260.300781 183.613281 265.933594 Z M 142.929688 282.769531 C 136.9375 282.789062 130.949219 282.28125 125.007812 281.320312 L 131.261719 289.734375 L 121.078125 294.847656 C 128.765625 296.296875 136.539062 297.003906 144.335938 296.960938 L 151.546875 296.824219 L 143.675781 290.164062 Z M 233.1875 257.148438 C 238.507812 251.453125 243.277344 245.230469 247.4375 238.625 L 236.769531 242.636719 L 234.816406 232.335938 C 231.511719 237.347656 227.792969 242.078125 223.71875 246.484375 L 228.660156 252.042969 L 227.152344 262.566406 L 233.1875 257.148438 " fill-opacity="1" fill-rule="evenodd"/></g></g></g><g fill="#ffffff" fill-opacity="1"><g transform="translate(116.477893, 297.779434)"><g><path d="M 19.6875 -12.125 C 21.539062 -10.957031 22.726562 -9.484375 23.25 -7.703125 C 23.769531 -5.921875 23.53125 -4.234375 22.53125 -2.640625 C 21.570312 -1.097656 20.222656 -0.144531 18.484375 0.21875 C 16.753906 0.582031 15.023438 0.253906 13.296875 -0.765625 L 9.671875 -3.046875 L 6.578125 1.859375 L 9.46875 4.203125 L 8.65625 5.4375 L 0.96875 0.609375 L 1.359375 -0.359375 L 4.125 0.234375 L 13.09375 -14.03125 L 11.265625 -15.328125 L 12.09375 -16.59375 Z M 13.34375 -2.875 C 14.6875 -2.039062 15.929688 -1.804688 17.078125 -2.171875 C 18.234375 -2.546875 19.160156 -3.296875 19.859375 -4.421875 C 20.398438 -5.273438 20.710938 -6.160156 20.796875 -7.078125 C 20.878906 -8.003906 20.679688 -8.84375 20.203125 -9.59375 L 15.359375 -12.09375 L 10.796875 -4.84375 C 11.753906 -4 12.601562 -3.34375 13.34375 -2.875 Z M 13.34375 -2.875 "/></g></g></g><g fill="#ffffff" fill-opacity="1"><g transform="translate(136.141578, 309.684894)"><g><path d="M 18.90625 5.515625 L 18.359375 6.890625 L 13.859375 5.203125 L 12.53125 -4.046875 L 9.015625 -5.328125 L 6.796875 0.578125 L 9.796875 2.09375 L 9.265625 3.484375 L 1.0625 0.40625 L 1.25 -0.625 L 4.09375 -0.578125 L 10.015625 -16.359375 L 7.96875 -17.265625 L 8.53125 -18.671875 L 16.859375 -15.8125 C 18.941406 -15.03125 20.425781 -13.859375 21.3125 -12.296875 C 22.195312 -10.742188 22.332031 -9.144531 21.71875 -7.5 C 21.269531 -6.320312 20.476562 -5.34375 19.34375 -4.5625 C 18.21875 -3.789062 16.90625 -3.421875 15.40625 -3.453125 L 16.953125 4.59375 Z M 9.75 -7.28125 C 10.5625 -6.8125 11.363281 -6.425781 12.15625 -6.125 C 13.96875 -5.445312 15.398438 -5.398438 16.453125 -5.984375 C 17.503906 -6.566406 18.253906 -7.445312 18.703125 -8.625 C 19.410156 -10.519531 19.132812 -12.128906 17.875 -13.453125 L 12.609375 -14.921875 Z M 9.75 -7.28125 "/></g></g></g><g fill="#ffffff" fill-opacity="1"><g transform="translate(159.57636, 317.977552)"><g><path d="M 13.109375 -19.390625 C 15.941406 -18.960938 18.113281 -17.585938 19.625 -15.265625 C 21.132812 -12.941406 21.648438 -10.164062 21.171875 -6.9375 C 20.703125 -3.800781 19.441406 -1.398438 17.390625 0.265625 C 15.335938 1.929688 12.929688 2.5625 10.171875 2.15625 C 7.359375 1.738281 5.195312 0.410156 3.6875 -1.828125 C 2.175781 -4.078125 1.648438 -6.769531 2.109375 -9.90625 C 2.585938 -13.113281 3.859375 -15.597656 5.921875 -17.359375 C 7.992188 -19.117188 10.390625 -19.796875 13.109375 -19.390625 Z M 9.359375 -17.21875 C 8.398438 -16.695312 7.550781 -15.753906 6.8125 -14.390625 C 6.082031 -13.023438 5.597656 -11.523438 5.359375 -9.890625 C 4.960938 -7.222656 5.273438 -4.984375 6.296875 -3.171875 C 7.328125 -1.367188 8.910156 -0.304688 11.046875 0.015625 C 11.828125 0.128906 12.644531 0.144531 13.5 0.0625 C 14.570312 -0.414062 15.507812 -1.316406 16.3125 -2.640625 C 17.125 -3.960938 17.664062 -5.503906 17.9375 -7.265625 C 18.332031 -9.921875 18.023438 -12.179688 17.015625 -14.046875 C 16.015625 -15.910156 14.484375 -16.992188 12.421875 -17.296875 C 11.460938 -17.441406 10.441406 -17.414062 9.359375 -17.21875 Z M 9.359375 -17.21875 "/></g></g></g><g fill="#ffffff" fill-opacity="1"><g transform="translate(184.350661, 320.874983)"><g><path d="M 9.546875 -19.703125 L 6.890625 -18.65625 L 7.25 -2.703125 C 7.289062 -0.878906 6.753906 0.6875 5.640625 2 C 4.523438 3.3125 3.023438 4.550781 1.140625 5.71875 L -0.03125 4.125 C 1.4375 3.144531 2.535156 2.050781 3.265625 0.84375 C 3.992188 -0.363281 4.332031 -2.019531 4.28125 -4.125 L 3.953125 -18.75 L 0.90625 -19.03125 L 0.90625 -20.515625 L 9.34375 -20.703125 Z M 9.546875 -19.703125 "/></g></g></g><g fill="#ffffff" fill-opacity="1"><g transform="translate(199.622961, 320.457955)"><g><path d="M 14.921875 -8.453125 C 15.359375 -6.410156 15.578125 -4.535156 15.578125 -2.828125 L 1.125 -0.203125 L 0.75 -1.171875 L 3.203125 -2.609375 L 0.1875 -19.1875 L -2.015625 -18.90625 L -2.265625 -20.40625 L 11.90625 -22.984375 L 12.140625 -21.9375 C 12.398438 -20.488281 12.523438 -19.113281 12.515625 -17.8125 L 10.84375 -17.5 L 9.953125 -20.296875 L 3.109375 -19.53125 L 4.453125 -12.140625 L 11.453125 -13.96875 L 11.9375 -11.28125 L 4.796875 -10.28125 L 6.09375 -3.1875 L 13.0625 -4.78125 L 13.265625 -8.28125 Z M 14.921875 -8.453125 "/></g></g></g><g fill="#ffffff" fill-opacity="1"><g transform="translate(221.473611, 316.033674)"><g><path d="M 14.84375 -8.171875 L 10.09375 -3.375 C 7.21875 -2.25 4.578125 -2.242188 2.171875 -3.359375 C -0.222656 -4.472656 -1.992188 -6.515625 -3.140625 -9.484375 C -4.296875 -12.492188 -4.40625 -15.300781 -3.46875 -17.90625 C -2.539062 -20.507812 -0.734375 -22.332031 1.953125 -23.375 C 4.140625 -24.207031 6.265625 -24.332031 8.328125 -23.75 L 8.703125 -22.859375 C 9.222656 -21.492188 9.507812 -20.210938 9.5625 -19.015625 L 7.796875 -18.328125 L 6.453125 -21.234375 C 4.734375 -21.554688 3.046875 -21.398438 1.390625 -20.765625 L 0.1875 -20.234375 C -0.757812 -19.078125 -1.242188 -17.695312 -1.265625 -16.09375 C -1.296875 -14.488281 -1.007812 -12.898438 -0.40625 -11.328125 C 0.5 -8.960938 1.835938 -7.257812 3.609375 -6.21875 C 5.390625 -5.1875 7.269531 -5.050781 9.25 -5.8125 L 9.859375 -6.078125 L 13.78125 -9.421875 Z M 14.84375 -8.171875 "/></g></g></g><g fill="#ffffff" fill-opacity="1"><g transform="translate(241.893476, 307.78265)"><g><path d="M 4.703125 -27.328125 L 5.3125 -26.40625 C 6.125 -25.101562 6.769531 -23.847656 7.25 -22.640625 L 5.8125 -21.734375 L 3.796875 -24.1875 L -0.6875 -21.609375 L 8.21875 -7.375 L 11.484375 -8.9375 L 12.234375 -7.65625 L 3.984375 -2.5 L 3.28125 -3.25 L 5.640625 -5.96875 L -3.171875 -20.046875 L -7.46875 -17.15625 L -6.140625 -14.265625 L -7.578125 -13.359375 C -8.453125 -14.328125 -9.296875 -15.460938 -10.109375 -16.765625 L -10.65625 -17.71875 C -8.40625 -19.019531 -5.820312 -20.585938 -2.90625 -22.421875 C 0.0507812 -24.265625 2.585938 -25.898438 4.703125 -27.328125 Z M 4.703125 -27.328125 "/></g></g></g><g clip-path="url(#56bc1918b9)"><g clip-path="url(#9953f604e7)"><g clip-path="url(#2d1ea36acb)"><path fill="#cb1e1e" d="M 290.863281 257.035156 C 295.496094 254.347656 298.457031 250.519531 297.46875 244.042969 C 291.652344 247.050781 290.289062 251.691406 290.863281 257.035156 Z M 287.230469 263.878906 C 292.578125 264.328125 297.191406 262.867188 300.050781 256.980469 C 293.574219 256.121094 289.8125 259.167969 287.230469 263.878906 Z M 286.640625 263.515625 C 289.621094 259.054688 290.574219 254.308594 286.8125 248.960938 C 282.945312 254.226562 283.773438 258.984375 286.640625 263.515625 Z M 280.914062 271.863281 C 285.984375 272.890625 290.539062 272.007812 293.945312 266.71875 C 287.847656 265.171875 283.929688 267.648438 280.914062 271.863281 Z M 280.398438 271.460938 C 283.742188 267.515625 285.195312 263.097656 282.203125 257.5625 C 277.898438 262.160156 278.15625 266.792969 280.398438 271.460938 Z M 273.273438 278.789062 C 278.054688 280.394531 282.585938 280.097656 286.527344 275.390625 C 280.808594 273.144531 276.707031 275.070312 273.273438 278.789062 Z M 272.824219 278.328125 C 276.546875 274.925781 278.484375 270.8125 276.265625 265.082031 C 271.546875 269 271.222656 273.527344 272.824219 278.328125 Z M 264.542969 284.445312 C 269.019531 286.644531 273.511719 286.929688 277.988281 282.800781 C 272.652344 279.863281 268.367188 281.230469 264.542969 284.445312 Z M 264.152344 283.941406 C 268.234375 281.074219 270.675781 277.269531 269.226562 271.351562 C 264.082031 274.625 263.1875 279.03125 264.152344 283.941406 Z M 254.90625 288.730469 C 259.109375 291.511719 263.558594 292.378906 268.570312 288.824219 C 263.609375 285.195312 259.148438 286.003906 254.90625 288.730469 Z M 254.578125 288.164062 C 259.046875 285.820312 261.964844 282.339844 261.285156 276.234375 C 255.730469 278.820312 254.257812 283.125 254.578125 288.164062 Z M 121.738281 195.710938 C 125.605469 191.976562 127.53125 187.539062 125.015625 181.511719 C 120.105469 185.847656 119.90625 190.675781 121.738281 195.710938 Z M 120.140625 203.292969 C 121.179688 198.019531 120.242188 193.269531 114.722656 189.777344 C 113.160156 196.136719 115.746094 200.207031 120.140625 203.292969 Z M 120.824219 203.390625 C 125.933594 201.75 129.636719 198.636719 130.023438 192.109375 C 123.707031 193.804688 121.398438 198.058594 120.824219 203.390625 Z M 119.875 213.46875 C 120.277344 208.308594 118.839844 203.886719 113.167969 201.167969 C 112.390625 207.410156 115.339844 211.011719 119.875 213.46875 Z M 120.542969 213.496094 C 125.242188 211.34375 128.40625 207.953125 128.066406 201.667969 C 122.222656 204.003906 120.488281 208.320312 120.542969 213.496094 Z M 121.296875 223.679688 C 121.066406 218.632812 119.148438 214.527344 113.324219 212.585938 C 113.332031 218.722656 116.601562 221.851562 121.296875 223.679688 Z M 121.957031 223.621094 C 126.242188 220.957031 128.898438 217.273438 127.789062 211.242188 C 122.429688 214.226562 121.28125 218.625 121.957031 223.621094 Z M 124.394531 233.625 C 123.5 228.699219 121.089844 224.90625 115.109375 223.738281 C 115.898438 229.777344 119.527344 232.4375 124.394531 233.625 Z M 125.015625 233.488281 C 128.886719 230.332031 131.042969 226.382812 129.171875 220.566406 C 124.285156 224.1875 123.703125 228.667969 125.015625 233.488281 Z M 129.042969 243.09375 C 127.515625 238.273438 124.609375 234.792969 118.492188 234.40625 C 120.0625 240.347656 124.035156 242.53125 129.042969 243.09375 Z M 129.660156 242.867188 C 133.117188 239.199219 134.761719 234.957031 132.136719 229.402344 C 127.703125 233.65625 127.714844 238.199219 129.660156 242.867188 Z M 190.164062 271.667969 C 203.382812 276.460938 216.992188 278.410156 230.445312 277.855469 L 229.941406 292.101562 C 215.042969 292.707031 199.925781 290.507812 185.261719 285.191406 C 170.59375 279.875 157.582031 271.875 146.535156 261.859375 L 155.296875 250.609375 C 165.25 259.648438 176.945312 266.875 190.164062 271.667969 Z M 231.847656 285.847656 C 237.832031 285.480469 243.769531 284.585938 249.640625 283.238281 L 243.941406 292.039062 L 254.433594 296.488281 C 246.855469 298.429688 239.140625 299.636719 231.359375 300.097656 L 224.15625 300.425781 L 231.578125 293.273438 Z M 140.125 266.097656 C 134.449219 260.757812 129.289062 254.859375 124.710938 248.53125 L 135.613281 251.847656 L 136.898438 241.441406 C 140.523438 246.230469 144.535156 250.710938 148.886719 254.847656 L 144.3125 260.710938 L 146.496094 271.117188 L 140.125 266.097656 " fill-opacity="1" fill-rule="evenodd"/></g></g></g><g clip-path="url(#5129cd90c9)"><g clip-path="url(#f3f70d8528)"><g clip-path="url(#eadad62845)"><path fill="#ffffff" d="M 159.257812 130.875 C 158.65625 130.535156 158.4375 129.78125 158.769531 129.1875 C 159.105469 128.59375 159.863281 128.386719 160.464844 128.722656 C 161.066406 129.0625 161.285156 129.816406 160.953125 130.410156 C 160.617188 131.003906 159.859375 131.210938 159.257812 130.875 Z M 175.703125 114.734375 C 175.078125 114.902344 174.582031 115.398438 174.414062 116.023438 L 172.5625 122.902344 C 172.234375 124.113281 171.210938 124.992188 169.953125 125.140625 L 159.097656 126.417969 C 158 126.546875 157.023438 127.195312 156.488281 128.148438 L 156.476562 128.164062 C 155.542969 129.832031 156.15625 131.960938 157.847656 132.910156 C 158.824219 133.457031 160.011719 133.511719 161.027344 133.054688 L 170.9375 128.574219 C 172.035156 128.078125 173.339844 128.265625 174.265625 129.050781 L 179.402344 133.417969 C 179.878906 133.820312 180.523438 133.964844 181.125 133.800781 L 182.632812 133.390625 L 177.136719 114.339844 L 175.703125 114.734375 " fill-opacity="1" fill-rule="nonzero"/></g></g></g><g clip-path="url(#40001da42d)"><g clip-path="url(#0bb142d6f6)"><g clip-path="url(#6467d6c7f7)"><path fill="#ffffff" d="M 185.949219 132.214844 L 180.59375 113.660156 L 180.523438 113.414062 L 178.332031 114.011719 L 183.832031 133.0625 L 186.019531 132.460938 L 185.949219 132.214844 " fill-opacity="1" fill-rule="nonzero"/></g></g></g><g clip-path="url(#56710fa9ec)"><g clip-path="url(#985e15dfde)"><g clip-path="url(#6f2499a936)"><path fill="#ffffff" d="M 191.746094 127.898438 C 191.597656 127.816406 191.429688 127.796875 191.269531 127.839844 C 191.113281 127.882812 190.976562 127.988281 190.898438 128.132812 L 190.597656 128.667969 C 190.097656 129.558594 188.957031 129.871094 188.054688 129.363281 C 187.621094 129.117188 187.304688 128.722656 187.164062 128.242188 C 187.027344 127.765625 187.085938 127.265625 187.324219 126.832031 L 191.296875 119.753906 C 191.539062 119.324219 191.9375 119.011719 192.417969 118.882812 L 195.554688 118.023438 L 195.375 117.398438 L 192.230469 117.46875 C 191.945312 117.476562 191.691406 117.289062 191.613281 117.015625 C 191.53125 116.742188 191.652344 116.453125 191.898438 116.3125 L 194.621094 114.78125 L 193.464844 110.78125 L 181.964844 113.929688 L 186.972656 131.292969 L 191.207031 130.132812 L 191.988281 128.742188 C 192.152344 128.445312 192.042969 128.066406 191.746094 127.898438 " fill-opacity="1" fill-rule="nonzero"/></g></g></g><g clip-path="url(#20e77ce244)"><g clip-path="url(#3a06d7c711)"><g clip-path="url(#c8c53fee22)"><path fill="#ffffff" d="M 199.957031 126.9375 L 197.765625 119.347656 C 197.671875 119.019531 197.324219 118.824219 196.996094 118.917969 L 196.5 119.050781 L 192.761719 120.074219 C 192.601562 120.117188 192.46875 120.222656 192.390625 120.367188 L 188.414062 127.445312 C 188.335938 127.589844 188.316406 127.757812 188.363281 127.917969 C 188.40625 128.074219 188.511719 128.207031 188.660156 128.289062 C 188.960938 128.457031 189.339844 128.351562 189.507812 128.058594 L 189.808594 127.519531 C 190.050781 127.089844 190.445312 126.78125 190.925781 126.648438 C 191.40625 126.515625 191.910156 126.578125 192.347656 126.824219 C 193.25 127.332031 193.578125 128.464844 193.078125 129.355469 L 189.15625 136.34375 C 188.996094 136.628906 188.957031 136.964844 189.050781 137.28125 C 189.140625 137.601562 189.351562 137.867188 189.644531 138.03125 C 190.246094 138.367188 191.003906 138.160156 191.335938 137.566406 L 193.75 133.265625 C 193.917969 132.96875 194.296875 132.863281 194.597656 133.035156 C 194.898438 133.203125 195.007812 133.582031 194.839844 133.878906 C 194.757812 134.019531 194.742188 134.1875 194.785156 134.347656 C 194.832031 134.503906 194.9375 134.640625 195.082031 134.722656 C 195.382812 134.890625 195.765625 134.785156 195.929688 134.488281 L 199.902344 127.410156 C 199.984375 127.265625 200.003906 127.097656 199.957031 126.9375 " fill-opacity="1" fill-rule="nonzero"/></g></g></g><g clip-path="url(#3895124ed4)"><g clip-path="url(#3da3e9c7a8)"><g clip-path="url(#259a8f1481)"><path fill="#ffffff" d="M 187.832031 141.253906 C 187.234375 140.917969 186.472656 141.125 186.140625 141.71875 C 185.808594 142.3125 186.027344 143.066406 186.628906 143.40625 C 187.226562 143.742188 187.988281 143.535156 188.320312 142.941406 C 188.652344 142.347656 188.433594 141.59375 187.832031 141.253906 " fill-opacity="1" fill-rule="nonzero"/></g></g></g><g clip-path="url(#d4c049cbdd)"><path fill="#ffffff" d="M 215.253906 272.089844 L 209.628906 267.402344 C 209.464844 267.261719 209.253906 267.179688 209.03125 267.179688 L 191.21875 267.179688 L 191.21875 263.429688 L 200.59375 263.429688 C 202.140625 263.429688 203.40625 262.164062 203.40625 260.617188 L 203.40625 254.992188 C 203.40625 253.445312 202.140625 252.179688 200.59375 252.179688 L 191.21875 252.179688 L 191.21875 248.429688 L 206.078125 248.429688 C 207.707031 248.429688 209.03125 247.105469 209.03125 245.476562 L 209.03125 240.132812 C 209.03125 238.503906 207.707031 237.179688 206.078125 237.179688 L 191.21875 237.179688 L 191.21875 234.367188 C 191.21875 233.851562 190.796875 233.429688 190.28125 233.429688 L 184.65625 233.429688 C 184.140625 233.429688 183.71875 233.851562 183.71875 234.367188 L 183.71875 237.179688 L 168.859375 237.179688 C 167.230469 237.179688 165.90625 238.503906 165.90625 240.132812 L 165.90625 245.476562 C 165.90625 247.105469 167.230469 248.429688 168.859375 248.429688 L 183.71875 248.429688 L 183.71875 252.179688 L 165.90625 252.179688 C 165.683594 252.179688 165.472656 252.261719 165.308594 252.402344 L 159.683594 257.089844 C 159.472656 257.265625 159.34375 257.535156 159.34375 257.804688 C 159.34375 258.074219 159.472656 258.34375 159.683594 258.519531 L 165.308594 263.207031 C 165.472656 263.347656 165.683594 263.429688 165.90625 263.429688 L 183.71875 263.429688 L 183.71875 267.179688 L 174.34375 267.179688 C 172.796875 267.179688 171.53125 268.445312 171.53125 269.992188 L 171.53125 275.617188 C 171.53125 277.164062 172.796875 278.429688 174.34375 278.429688 L 183.71875 278.429688 L 183.71875 288.742188 C 183.71875 289.257812 184.140625 289.679688 184.65625 289.679688 L 190.28125 289.679688 C 190.796875 289.679688 191.21875 289.257812 191.21875 288.742188 L 191.21875 278.429688 L 209.03125 278.429688 C 209.253906 278.429688 209.464844 278.347656 209.628906 278.207031 L 215.253906 273.519531 C 215.464844 273.34375 215.59375 273.074219 215.59375 272.804688 C 215.59375 272.535156 215.464844 272.265625 215.253906 272.089844 Z M 185.59375 235.304688 L 189.34375 235.304688 L 189.34375 237.179688 L 185.59375 237.179688 Z M 167.78125 245.476562 L 167.78125 240.132812 C 167.78125 239.535156 168.261719 239.054688 168.859375 239.054688 L 206.078125 239.054688 C 206.675781 239.054688 207.15625 239.535156 207.15625 240.132812 L 207.15625 245.476562 C 207.15625 246.074219 206.675781 246.554688 206.078125 246.554688 L 168.859375 246.554688 C 168.261719 246.554688 167.78125 246.074219 167.78125 245.476562 Z M 185.59375 248.429688 L 189.34375 248.429688 L 189.34375 252.179688 L 185.59375 252.179688 Z M 161.746094 257.804688 L 166.246094 254.054688 L 200.59375 254.054688 C 201.109375 254.054688 201.53125 254.476562 201.53125 254.992188 L 201.53125 260.617188 C 201.53125 261.132812 201.109375 261.554688 200.59375 261.554688 L 166.246094 261.554688 Z M 185.59375 263.429688 L 189.34375 263.429688 L 189.34375 267.179688 L 185.59375 267.179688 Z M 189.34375 287.804688 L 185.59375 287.804688 L 185.59375 278.429688 L 189.34375 278.429688 Z M 208.691406 276.554688 L 174.34375 276.554688 C 173.828125 276.554688 173.40625 276.132812 173.40625 275.617188 L 173.40625 269.992188 C 173.40625 269.476562 173.828125 269.054688 174.34375 269.054688 L 208.691406 269.054688 L 213.191406 272.804688 Z M 208.691406 276.554688 " fill-opacity="1" fill-rule="nonzero"/></g><g clip-path="url(#87da9cb663)"><g clip-path="url(#9879778587)"><path fill="#ffffff" d="M 166.503906 238.492188 L 208.691406 238.492188 L 208.691406 247.28125 L 166.503906 247.28125 Z M 166.503906 238.492188 " fill-opacity="1" fill-rule="nonzero"/></g></g><g fill="#ffffff" fill-opacity="1"><g transform="translate(82.048239, 139.501603)"><g><path d="M 9.703125 -19.734375 L 10.96875 -18.96875 L 6.734375 -11.640625 L 5.765625 -12 C 5.828125 -12.738281 6.023438 -13.8125 6.359375 -15.21875 L 1.859375 -15.890625 L -2.390625 -8.515625 L 0.59375 -4.75 L 2.578125 -7.4375 L 3.84375 -6.65625 L -0.21875 0.375 L -1.1875 0.03125 C -1.144531 -0.550781 -0.976562 -1.460938 -0.6875 -2.703125 L -12.484375 -18.03125 L -13.078125 -18.109375 L -12.578125 -20.6875 L 8.328125 -17.875 Z M -0.171875 -16.1875 L -9.640625 -17.59375 L -3.671875 -10.125 Z M -0.171875 -16.1875 "/></g></g></g><g fill="#ffffff" fill-opacity="1"><g transform="translate(94.119543, 119.149967)"><g><path d="M 11.90625 -15.6875 L 13 -14.6875 L 9.8125 -11.09375 L 0.703125 -13.140625 L -1.765625 -10.3125 L 2.953125 -6.140625 L 5.46875 -8.40625 L 6.5625 -7.40625 L 0.75 -0.859375 L -0.140625 -1.390625 L 0.921875 -4.03125 L -11.703125 -15.203125 L -13.28125 -13.625 L -14.40625 -14.640625 L -8.75 -21.40625 C -7.28125 -23.0625 -5.660156 -24.023438 -3.890625 -24.296875 C -2.117188 -24.578125 -0.570312 -24.132812 0.75 -22.96875 C 1.6875 -22.132812 2.316406 -21.046875 2.640625 -19.703125 C 2.972656 -18.367188 2.851562 -17.007812 2.28125 -15.625 L 10.34375 -14.203125 Z M -3.328125 -11.703125 C -2.585938 -12.304688 -1.9375 -12.921875 -1.375 -13.546875 C -0.09375 -15.003906 0.457031 -16.328125 0.28125 -17.515625 C 0.113281 -18.703125 -0.4375 -19.710938 -1.375 -20.546875 C -2.894531 -21.878906 -4.492188 -22.195312 -6.171875 -21.5 L -9.4375 -17.109375 Z M -3.328125 -11.703125 "/></g></g></g><g fill="#ffffff" fill-opacity="1"><g transform="translate(108.822431, 102.892296)"><g><path d="M 1.953125 -27.640625 L 2.640625 -26.8125 C 3.585938 -25.59375 4.363281 -24.40625 4.96875 -23.25 L 3.625 -22.203125 L 1.359375 -24.453125 L -2.84375 -21.4375 L 7.4375 -8.15625 L 10.53125 -10.03125 L 11.421875 -8.828125 L 3.71875 -2.875 L 2.9375 -3.546875 L 5.015625 -6.5 L -5.15625 -19.640625 L -9.140625 -16.3125 L -7.53125 -13.578125 L -8.875 -12.546875 C -9.832031 -13.410156 -10.785156 -14.453125 -11.734375 -15.671875 L -12.390625 -16.546875 C -10.273438 -18.078125 -7.851562 -19.898438 -5.125 -22.015625 C -2.363281 -24.148438 -0.00390625 -26.023438 1.953125 -27.640625 Z M 1.953125 -27.640625 "/></g></g></g><g fill="#ffffff" fill-opacity="1"><g transform="translate(125.35984, 90.41493)"><g><path d="M 11.078125 -11.96875 C 11.910156 -10.40625 12.003906 -8.8125 11.359375 -7.1875 C 10.710938 -5.570312 9.507812 -4.300781 7.75 -3.375 C 6.738281 -2.84375 5.554688 -2.4375 4.203125 -2.15625 C 2.847656 -1.882812 1.726562 -1.898438 0.84375 -2.203125 L 0.296875 -3.15625 C -0.429688 -4.53125 -0.984375 -5.828125 -1.359375 -7.046875 L 0.140625 -7.84375 L 2.296875 -4.703125 C 4.085938 -4.410156 5.894531 -4.742188 7.71875 -5.703125 L 8.640625 -6.265625 C 9.421875 -7.410156 9.460938 -8.644531 8.765625 -9.96875 C 8.160156 -11.101562 7.007812 -11.691406 5.3125 -11.734375 L -0.421875 -11.703125 C -2.890625 -11.828125 -4.582031 -12.757812 -5.5 -14.5 C -6.289062 -16 -6.320312 -17.535156 -5.59375 -19.109375 C -4.863281 -20.691406 -3.554688 -21.976562 -1.671875 -22.96875 C -0.367188 -23.65625 1.316406 -24.179688 3.390625 -24.546875 L 3.921875 -23.59375 C 4.640625 -22.238281 5.195312 -20.9375 5.59375 -19.6875 L 4.078125 -18.890625 L 2.484375 -21.296875 C 0.984375 -21.546875 -0.507812 -21.273438 -2 -20.484375 L -3.234375 -19.703125 C -3.835938 -18.703125 -3.835938 -17.625 -3.234375 -16.46875 C -2.671875 -15.414062 -1.5625 -14.875 0.09375 -14.84375 L 5.734375 -14.921875 C 8.304688 -14.835938 10.085938 -13.851562 11.078125 -11.96875 Z M 11.078125 -11.96875 "/></g></g></g><g fill="#ffffff" fill-opacity="1"><g transform="translate(142.350504, 81.938161)"><g/></g></g><g fill="#ffffff" fill-opacity="1"><g transform="translate(152.06226, 78.013327)"><g><path d="M 18.3125 -14.53125 L 17.3125 -14.796875 C 16.21875 -15.117188 15.207031 -15.1875 14.28125 -15 L 13.578125 -14.8125 C 14.722656 -13.425781 15.457031 -11.957031 15.78125 -10.40625 C 16.238281 -8.195312 15.863281 -6.222656 14.65625 -4.484375 C 13.457031 -2.753906 11.625 -1.632812 9.15625 -1.125 C 6.769531 -0.625 4.65625 -0.835938 2.8125 -1.765625 C 0.976562 -2.703125 -0.140625 -4.144531 -0.546875 -6.09375 C -0.796875 -7.28125 -0.710938 -8.40625 -0.296875 -9.46875 C 0.109375 -10.539062 0.789062 -11.410156 1.75 -12.078125 C -0.28125 -12.679688 -1.5 -13.929688 -1.90625 -15.828125 C -2.207031 -17.304688 -1.863281 -18.640625 -0.875 -19.828125 C 0.101562 -21.023438 1.535156 -21.820312 3.421875 -22.21875 C 5.140625 -22.570312 7.097656 -22.578125 9.296875 -22.234375 L 9 -19.359375 L 2.59375 -20.046875 C 1.226562 -19.035156 0.722656 -17.6875 1.078125 -16 C 1.359375 -14.6875 2.0625 -13.75 3.1875 -13.1875 L 6.640625 -13.0625 L 6.6875 -11.484375 C 5.164062 -11.160156 4.023438 -10.484375 3.265625 -9.453125 C 2.515625 -8.429688 2.273438 -7.285156 2.546875 -6.015625 C 2.816406 -4.691406 3.53125 -3.769531 4.6875 -3.25 C 5.851562 -2.726562 7.175781 -2.625 8.65625 -2.9375 C 9.757812 -3.164062 10.773438 -3.597656 11.703125 -4.234375 C 13.066406 -5.609375 13.53125 -7.347656 13.09375 -9.453125 C 12.789062 -10.890625 12.101562 -12.222656 11.03125 -13.453125 C 10.394531 -13.003906 9.734375 -12.4375 9.046875 -11.75 L 7.890625 -13.09375 C 11.128906 -15.957031 13.582031 -17.5625 15.25 -17.90625 C 16.257812 -18.113281 17.316406 -17.992188 18.421875 -17.546875 Z M 18.3125 -14.53125 "/></g></g></g><g fill="#ffffff" fill-opacity="1"><g transform="translate(174.737266, 73.896411)"><g/></g></g><g fill="#ffffff" fill-opacity="1"><g transform="translate(185.267672, 73.121639)"><g><path d="M 16.921875 -1.046875 L 10.5625 1.265625 C 7.5 1.054688 5.113281 -0.0625 3.40625 -2.09375 C 1.707031 -4.132812 0.972656 -6.742188 1.203125 -9.921875 C 1.441406 -13.128906 2.539062 -15.710938 4.5 -17.671875 C 6.457031 -19.628906 8.875 -20.5 11.75 -20.28125 C 14.09375 -20.113281 16.066406 -19.328125 17.671875 -17.921875 L 17.640625 -16.953125 C 17.523438 -15.484375 17.234375 -14.195312 16.765625 -13.09375 L 14.890625 -13.234375 L 14.90625 -16.453125 C 13.488281 -17.472656 11.890625 -18.046875 10.109375 -18.171875 L 8.8125 -18.21875 C 7.457031 -17.582031 6.425781 -16.539062 5.71875 -15.09375 C 5.007812 -13.644531 4.59375 -12.082031 4.46875 -10.40625 C 4.28125 -7.875 4.765625 -5.765625 5.921875 -4.078125 C 7.085938 -2.390625 8.726562 -1.46875 10.84375 -1.3125 L 11.5 -1.296875 L 16.46875 -2.625 Z M 16.921875 -1.046875 "/></g></g></g><g fill="#ffffff" fill-opacity="1"><g transform="translate(204.505513, 74.603608)"><g><path d="M 19.375 3.546875 L 18.96875 4.96875 L 14.328125 3.75 L 12.046875 -5.3125 L 8.40625 -6.234375 L 6.8125 -0.140625 L 9.96875 1.078125 L 9.5625 2.5 L 1.109375 0.28125 L 1.171875 -0.75 L 4 -1 L 8.28125 -17.3125 L 6.15625 -17.984375 L 6.5625 -19.453125 L 15.140625 -17.46875 C 17.285156 -16.90625 18.878906 -15.894531 19.921875 -14.4375 C 20.960938 -12.976562 21.265625 -11.394531 20.828125 -9.6875 C 20.503906 -8.46875 19.820312 -7.410156 18.78125 -6.515625 C 17.738281 -5.628906 16.460938 -5.128906 14.953125 -5.015625 L 17.328125 2.8125 Z M 8.9375 -8.265625 C 9.800781 -7.867188 10.644531 -7.5625 11.46875 -7.34375 C 13.34375 -6.851562 14.769531 -6.953125 15.75 -7.640625 C 16.738281 -8.328125 17.394531 -9.28125 17.71875 -10.5 C 18.226562 -12.457031 17.785156 -14.03125 16.390625 -15.21875 L 11 -16.15625 Z M 8.9375 -8.265625 "/></g></g></g><g fill="#ffffff" fill-opacity="1"><g transform="translate(225.622623, 80.221141)"><g><path d="M 20.34375 8.34375 L 19.65625 9.65625 L 12.078125 5.9375 L 12.359375 4.9375 C 13.097656 4.957031 14.1875 5.085938 15.625 5.328125 L 15.984375 0.8125 L 8.34375 -2.953125 L 4.765625 0.265625 L 7.578125 2.078125 L 6.90625 3.390625 L -0.390625 -0.1875 L -0.109375 -1.1875 C 0.460938 -1.1875 1.378906 -1.082031 2.640625 -0.875 L 17.15625 -13.671875 L 17.1875 -14.265625 L 19.796875 -13.9375 L 18.390625 7.09375 Z M 16.15625 -1.265625 L 16.90625 -10.796875 L 9.859375 -4.34375 Z M 16.15625 -1.265625 "/></g></g></g><g fill="#ffffff" fill-opacity="1"><g transform="translate(246.743618, 91.026063)"><g><path d="M 24.96875 -6.828125 L 24.359375 -5.953125 C 23.472656 -4.773438 22.546875 -3.75 21.578125 -2.875 L 20.21875 -3.890625 L 21.671875 -6.4375 L 16.46875 -10.9375 L 11.578125 -4.453125 L 17.640625 -0.546875 L 15.984375 1.640625 L 10.4375 -2.953125 L 6.390625 2.421875 L 9.078125 4.984375 L 8.15625 6.15625 L 0.90625 0.6875 L 1.375 -0.234375 L 4.078125 0.609375 L 14.234375 -12.859375 L 12.53125 -14.296875 L 13.46875 -15.5 Z M 24.96875 -6.828125 "/></g></g></g><g fill="#ffffff" fill-opacity="1"><g transform="translate(262.087378, 102.723331)"><g><path d="M 27.703125 -0.53125 L 26.9375 0.21875 C 25.8125 1.269531 24.695312 2.148438 23.59375 2.859375 L 22.4375 1.625 L 24.46875 -0.84375 L 21.09375 -4.75 L 8.796875 6.6875 L 10.9375 9.578125 L 9.828125 10.578125 L 3.203125 3.453125 L 3.8125 2.609375 L 6.921875 4.390625 L 19.09375 -6.90625 L 15.421875 -10.5625 L 12.84375 -8.703125 L 11.6875 -9.953125 C 12.476562 -10.992188 13.4375 -12.039062 14.5625 -13.09375 L 15.375 -13.8125 C 17.082031 -11.851562 19.109375 -9.609375 21.453125 -7.078125 C 23.828125 -4.523438 25.910156 -2.34375 27.703125 -0.53125 Z M 27.703125 -0.53125 "/></g></g></g><g fill="#ffffff" fill-opacity="1"><g transform="translate(276.000353, 118.072478)"><g><path d="M 12.90625 9.953125 C 11.425781 10.921875 9.847656 11.15625 8.171875 10.65625 C 6.503906 10.164062 5.128906 9.082031 4.046875 7.40625 C 3.429688 6.457031 2.925781 5.320312 2.53125 4 C 2.132812 2.675781 2.039062 1.554688 2.25 0.640625 L 3.15625 0.015625 C 4.46875 -0.828125 5.710938 -1.492188 6.890625 -1.984375 L 7.828125 -0.5625 L 4.890625 1.859375 C 4.753906 3.660156 5.25 5.425781 6.375 7.15625 L 7 8.03125 C 8.207031 8.71875 9.441406 8.648438 10.703125 7.828125 C 11.785156 7.128906 12.273438 5.929688 12.171875 4.234375 L 11.625 -1.46875 C 11.53125 -3.9375 12.3125 -5.707031 13.96875 -6.78125 C 15.382812 -7.695312 16.910156 -7.859375 18.546875 -7.265625 C 20.179688 -6.679688 21.578125 -5.5 22.734375 -3.71875 C 23.535156 -2.488281 24.207031 -0.859375 24.75 1.171875 L 23.828125 1.796875 C 22.546875 2.628906 21.304688 3.300781 20.109375 3.8125 L 19.1875 2.375 L 21.421875 0.546875 C 21.546875 -0.953125 21.148438 -2.410156 20.234375 -3.828125 L 19.328125 -4.984375 C 18.285156 -5.492188 17.21875 -5.394531 16.125 -4.6875 C 15.113281 -4.039062 14.671875 -2.890625 14.796875 -1.234375 L 15.390625 4.375 C 15.515625 6.9375 14.6875 8.796875 12.90625 9.953125 Z M 12.90625 9.953125 "/></g></g></g><g fill="#ffffff" fill-opacity="1"><g transform="translate(221.858049, 250.89615)"><g><path d="M 4.261719 0 L 4.394531 -0.675781 L 1.007812 -0.675781 C 2.976562 -2.167969 5.492188 -4.140625 5.492188 -6.167969 C 5.492188 -7.308594 4.695312 -7.859375 3.476562 -7.859375 C 2.8125 -7.859375 2.082031 -7.660156 1.371094 -7.273438 L 1.515625 -6.597656 C 2.125 -6.941406 2.746094 -7.117188 3.277344 -7.117188 C 4.117188 -7.117188 4.648438 -6.765625 4.648438 -6.023438 C 4.648438 -4.183594 1.761719 -2.082031 -0.210938 -0.554688 L -0.332031 0 Z M 4.261719 0 "/></g></g></g><g fill="#ffffff" fill-opacity="1"><g transform="translate(227.504307, 250.89615)"><g><path d="M 2.734375 0.109375 C 5.226562 0.109375 6.433594 -3.398438 6.433594 -5.378906 C 6.433594 -6.898438 5.667969 -7.859375 4.339844 -7.859375 C 1.847656 -7.859375 0.632812 -4.375 0.632812 -2.378906 C 0.632812 -0.863281 1.382812 0.109375 2.734375 0.109375 Z M 2.835938 -0.574219 C 1.902344 -0.574219 1.4375 -1.316406 1.4375 -2.445312 C 1.4375 -3.929688 2.414062 -7.175781 4.238281 -7.175781 C 5.160156 -7.175781 5.625 -6.433594 5.625 -5.304688 C 5.625 -3.820312 4.648438 -0.574219 2.835938 -0.574219 Z M 2.835938 -0.574219 "/></g></g></g><g fill="#ffffff" fill-opacity="1"><g transform="translate(234.180182, 250.89615)"><g><path d="M 4.261719 0 L 4.394531 -0.675781 L 1.007812 -0.675781 C 2.976562 -2.167969 5.492188 -4.140625 5.492188 -6.167969 C 5.492188 -7.308594 4.695312 -7.859375 3.476562 -7.859375 C 2.8125 -7.859375 2.082031 -7.660156 1.371094 -7.273438 L 1.515625 -6.597656 C 2.125 -6.941406 2.746094 -7.117188 3.277344 -7.117188 C 4.117188 -7.117188 4.648438 -6.765625 4.648438 -6.023438 C 4.648438 -4.183594 1.761719 -2.082031 -0.210938 -0.554688 L -0.332031 0 Z M 4.261719 0 "/></g></g></g><g fill="#ffffff" fill-opacity="1"><g transform="translate(239.826441, 250.89615)"><g><path d="M 2.3125 0.101562 C 4.128906 0.101562 5.191406 -1.449219 5.191406 -2.910156 C 5.191406 -4.085938 4.40625 -4.660156 3.175781 -4.59375 L 5.867188 -7.21875 L 5.933594 -7.75 L 1.859375 -7.75 L 1.714844 -7.0625 L 4.761719 -7.0625 L 2.148438 -4.429688 L 2.058594 -3.984375 C 3.433594 -4.21875 4.363281 -3.953125 4.363281 -2.800781 C 4.363281 -1.882812 3.71875 -0.574219 2.292969 -0.574219 C 1.570312 -0.574219 0.863281 -0.886719 0.410156 -1.316406 L 0.0351562 -0.753906 C 0.542969 -0.234375 1.363281 0.101562 2.3125 0.101562 Z M 2.3125 0.101562 "/></g></g></g><g fill="#ffffff" fill-opacity="1"><g transform="translate(132.169468, 250.89615)"><g><path d="M 6.796875 -7.75 L 1.960938 -7.75 L 0.308594 0 L 5.238281 0 L 5.402344 -0.742188 L 1.285156 -0.742188 L 1.894531 -3.621094 L 5.445312 -3.621094 L 5.589844 -4.351562 L 2.046875 -4.351562 L 2.613281 -7.007812 L 6.644531 -7.007812 Z M 6.796875 -7.75 "/></g></g></g><g fill="#ffffff" fill-opacity="1"><g transform="translate(138.557486, 250.89615)"><g><path d="M 2.371094 0.109375 C 4.0625 0.109375 5.445312 -0.875 5.445312 -2.414062 C 5.445312 -3.421875 4.707031 -3.917969 3.53125 -4.316406 C 2.589844 -4.683594 2.058594 -4.972656 2.058594 -5.625 C 2.058594 -6.566406 3.023438 -7.085938 4.074219 -7.085938 C 4.707031 -7.085938 5.269531 -6.917969 5.878906 -6.585938 L 6.1875 -7.351562 C 5.570312 -7.683594 4.839844 -7.859375 4.097656 -7.859375 C 2.492188 -7.859375 1.171875 -6.863281 1.171875 -5.46875 C 1.171875 -4.539062 1.894531 -4.050781 3.042969 -3.652344 C 3.972656 -3.308594 4.550781 -3.042969 4.550781 -2.246094 C 4.550781 -1.230469 3.597656 -0.664062 2.390625 -0.664062 C 1.671875 -0.664062 0.808594 -0.863281 0.175781 -1.238281 L -0.0898438 -0.476562 C 0.507812 -0.0898438 1.429688 0.109375 2.371094 0.109375 Z M 2.371094 0.109375 "/></g></g></g><g fill="#ffffff" fill-opacity="1"><g transform="translate(144.635517, 250.89615)"><g><path d="M 1.273438 -7.75 L 1.117188 -7.007812 L 3.320312 -7.007812 L 1.816406 0 L 2.644531 0 L 4.140625 -7.007812 L 6.34375 -7.007812 L 6.5 -7.75 Z M 1.273438 -7.75 "/></g></g></g><g fill="#191516" fill-opacity="1"><g transform="translate(136.706261, 121.084687)"><g><path d="M 3.25 -5 C 3.644531 -4.507812 3.765625 -3.957031 3.609375 -3.34375 C 3.460938 -2.738281 3.101562 -2.207031 2.53125 -1.75 C 2.207031 -1.488281 1.820312 -1.253906 1.375 -1.046875 C 0.925781 -0.847656 0.515625 -0.738281 0.140625 -0.71875 L -0.046875 -0.9375 C -0.398438 -1.394531 -0.695312 -1.867188 -0.9375 -2.359375 L -0.34375 -2.8125 L 0.984375 -1.96875 C 1.453125 -2.082031 1.910156 -2.316406 2.359375 -2.671875 C 2.546875 -3.046875 2.515625 -3.394531 2.265625 -3.71875 C 2.035156 -4.007812 1.660156 -4.113281 1.140625 -4.03125 L -0.59375 -3.671875 C -1.550781 -3.523438 -2.25 -3.734375 -2.6875 -4.296875 C -3.070312 -4.785156 -3.1875 -5.335938 -3.03125 -5.953125 C -2.875 -6.566406 -2.484375 -7.125 -1.859375 -7.625 C -1.304688 -8.050781 -0.679688 -8.375 0.015625 -8.59375 C 0.472656 -8.007812 0.828125 -7.472656 1.078125 -6.984375 L 0.40625 -6.46875 L -0.5625 -7.1875 C -1.019531 -7.101562 -1.460938 -6.882812 -1.890625 -6.53125 C -2.023438 -6.15625 -1.976562 -5.828125 -1.75 -5.546875 C -1.613281 -5.378906 -1.414062 -5.285156 -1.15625 -5.265625 C -0.90625 -5.253906 -0.476562 -5.320312 0.125 -5.46875 C 0.726562 -5.613281 1.191406 -5.703125 1.515625 -5.734375 C 1.847656 -5.765625 2.160156 -5.722656 2.453125 -5.609375 C 2.753906 -5.492188 3.019531 -5.289062 3.25 -5 Z M 3.25 -5 "/></g></g></g><g fill="#191516" fill-opacity="1"><g transform="translate(142.804691, 116.348908)"><g><path d="M 1.890625 -9.453125 L 2.0625 -9.203125 C 2.445312 -8.597656 2.742188 -8.035156 2.953125 -7.515625 L 2.234375 -7.0625 L 1.390625 -8.078125 L 0.21875 -7.46875 L 3.15625 -2.828125 L 4.15625 -3.28125 L 4.4375 -2.8125 L 1.328125 -0.84375 L 1.09375 -1.109375 C 1.175781 -1.265625 1.394531 -1.585938 1.75 -2.078125 L -1.125 -6.609375 L -2.203125 -5.796875 L -1.609375 -4.609375 L -2.328125 -4.15625 C -2.734375 -4.5625 -3.128906 -5.066406 -3.515625 -5.671875 L -3.65625 -5.921875 L -0.84375 -7.6875 Z M 1.890625 -9.453125 "/></g></g></g><g fill="#191516" fill-opacity="1"><g transform="translate(150.00686, 111.939158)"><g><path d="M 3.0625 -2.171875 L 3.3125 -1.703125 L 0.3125 -0.15625 L 0.078125 -0.4375 C 0.203125 -0.632812 0.410156 -0.894531 0.703125 -1.21875 L -1.828125 -6.09375 L -2.609375 -5.84375 L -2.828125 -6.3125 L 0.03125 -7.78125 L 0.21875 -7.515625 C 0.0625 -7.253906 -0.128906 -6.988281 -0.359375 -6.71875 L 2.140625 -1.859375 Z M 3.0625 -2.171875 "/></g></g></g><g fill="#191516" fill-opacity="1"><g transform="translate(155.137301, 109.381255)"><g/></g></g><g fill="#191516" fill-opacity="1"><g transform="translate(159.225832, 107.57499)"><g><path d="M 5.140625 -4.390625 L 5.703125 -2.6875 L 3.890625 -1.09375 L 3.59375 -0.984375 C 2.8125 -0.722656 2.109375 -0.664062 1.484375 -0.8125 C 0.859375 -0.96875 0.34375 -1.257812 -0.0625 -1.6875 C -0.46875 -2.125 -0.765625 -2.617188 -0.953125 -3.171875 C -1.160156 -3.804688 -1.210938 -4.445312 -1.109375 -5.09375 C -1.015625 -5.75 -0.75 -6.332031 -0.3125 -6.84375 C 0.113281 -7.363281 0.710938 -7.753906 1.484375 -8.015625 C 2.316406 -8.296875 3.085938 -8.328125 3.796875 -8.109375 L 3.859375 -7.90625 C 4.015625 -7.4375 4.113281 -6.914062 4.15625 -6.34375 L 3.25 -6.03125 L 2.625 -7.078125 C 2.050781 -7.117188 1.492188 -7.046875 0.953125 -6.859375 L 0.71875 -6.765625 C 0.4375 -6.421875 0.289062 -5.988281 0.28125 -5.46875 C 0.269531 -4.957031 0.351562 -4.4375 0.53125 -3.90625 C 0.78125 -3.164062 1.171875 -2.613281 1.703125 -2.25 C 2.234375 -1.894531 2.804688 -1.8125 3.421875 -2 C 3.640625 -2.070312 3.921875 -2.203125 4.265625 -2.390625 L 3.796875 -3.765625 C 3.398438 -3.753906 3.015625 -3.796875 2.640625 -3.890625 L 2.59375 -4.234375 L 5.671875 -5.265625 L 5.828125 -4.78125 Z M 5.140625 -4.390625 "/></g></g></g><g fill="#191516" fill-opacity="1"><g transform="translate(167.73533, 104.835647)"><g><path d="M 5.609375 -3.3125 C 5.785156 -2.5 5.882812 -1.828125 5.90625 -1.296875 L 0.328125 -0.078125 L 0.1875 -0.390625 C 0.363281 -0.554688 0.625 -0.757812 0.96875 -1 L -0.203125 -6.375 L -1.03125 -6.296875 L -1.125 -6.828125 L 2.015625 -7.515625 L 2.140625 -7.203125 C 1.921875 -6.992188 1.664062 -6.789062 1.375 -6.59375 L 2.515625 -1.453125 L 4.53125 -2.0625 L 4.609375 -3.578125 L 5.53125 -3.6875 Z M 5.609375 -3.3125 "/></g></g></g><g fill="#191516" fill-opacity="1"><g transform="translate(175.468339, 103.19626)"><g><path d="M 2.703125 -7.46875 C 3.703125 -7.582031 4.554688 -7.328125 5.265625 -6.703125 C 5.972656 -6.078125 6.390625 -5.210938 6.515625 -4.109375 C 6.640625 -3.035156 6.425781 -2.140625 5.875 -1.421875 C 5.320312 -0.710938 4.5625 -0.300781 3.59375 -0.1875 C 2.582031 -0.0820312 1.71875 -0.320312 1 -0.90625 C 0.289062 -1.488281 -0.117188 -2.320312 -0.234375 -3.40625 C -0.359375 -4.488281 -0.144531 -5.40625 0.40625 -6.15625 C 0.96875 -6.914062 1.734375 -7.351562 2.703125 -7.46875 Z M 1.921875 -6.296875 C 1.703125 -6.078125 1.546875 -5.738281 1.453125 -5.28125 C 1.367188 -4.832031 1.359375 -4.332031 1.421875 -3.78125 C 1.515625 -2.9375 1.753906 -2.265625 2.140625 -1.765625 C 2.535156 -1.273438 3.046875 -1.066406 3.671875 -1.140625 C 3.828125 -1.148438 4.019531 -1.203125 4.25 -1.296875 C 4.488281 -1.535156 4.660156 -1.882812 4.765625 -2.34375 C 4.878906 -2.8125 4.90625 -3.328125 4.84375 -3.890625 C 4.75 -4.722656 4.5 -5.382812 4.09375 -5.875 C 3.695312 -6.375 3.222656 -6.59375 2.671875 -6.53125 C 2.429688 -6.5 2.179688 -6.421875 1.921875 -6.296875 Z M 1.921875 -6.296875 "/></g></g></g><g fill="#191516" fill-opacity="1"><g transform="translate(184.149249, 102.323093)"><g><path d="M 5.015625 -3.671875 C 5.546875 -3.566406 5.957031 -3.351562 6.25 -3.03125 C 6.539062 -2.707031 6.6875 -2.332031 6.6875 -1.90625 C 6.6875 -1.34375 6.441406 -0.890625 5.953125 -0.546875 C 5.472656 -0.203125 4.8125 -0.0195312 3.96875 0 L 0.34375 0 L 0.265625 -0.34375 C 0.472656 -0.46875 0.773438 -0.609375 1.171875 -0.765625 L 1.171875 -6.28125 L 0.421875 -6.375 L 0.4375 -6.90625 C 1.457031 -6.96875 2.546875 -7 3.703125 -7 C 4.503906 -7 5.144531 -6.832031 5.625 -6.5 C 6.113281 -6.164062 6.359375 -5.738281 6.359375 -5.21875 C 6.359375 -4.863281 6.242188 -4.535156 6.015625 -4.234375 C 5.785156 -3.941406 5.453125 -3.753906 5.015625 -3.671875 Z M 2.765625 -6.015625 L 2.765625 -3.953125 L 3.25 -3.953125 C 3.738281 -3.953125 4.109375 -4.054688 4.359375 -4.265625 C 4.609375 -4.484375 4.734375 -4.742188 4.734375 -5.046875 C 4.734375 -5.296875 4.65625 -5.53125 4.5 -5.75 C 4.34375 -5.976562 4.144531 -6.117188 3.90625 -6.171875 Z M 3.59375 -0.8125 L 3.78125 -0.796875 C 4.175781 -0.796875 4.476562 -0.90625 4.6875 -1.125 C 4.894531 -1.351562 5 -1.625 5 -1.9375 C 5 -2.289062 4.867188 -2.597656 4.609375 -2.859375 C 4.359375 -3.117188 4.039062 -3.25 3.65625 -3.25 L 2.765625 -3.25 L 2.765625 -0.890625 Z M 3.59375 -0.8125 "/></g></g></g><g fill="#191516" fill-opacity="1"><g transform="translate(192.795832, 102.400292)"><g><path d="M 7.640625 0.328125 L 7.5625 0.859375 L 4.28125 0.484375 L 4.234375 0.140625 C 4.453125 0.046875 4.78125 -0.0664062 5.21875 -0.203125 L 4.90625 -1.359375 L 2.421875 -1.640625 L 1.8125 -0.46875 L 2.765625 -0.21875 L 2.6875 0.3125 L -0.140625 -0.015625 L -0.171875 -0.359375 C 0.0546875 -0.460938 0.359375 -0.566406 0.734375 -0.671875 L 3.703125 -6.0625 L 3.609375 -6.40625 L 5.015625 -6.625 L 6.90625 0.140625 Z M 4.6875 -2.1875 L 4.046875 -4.765625 L 2.8125 -2.40625 Z M 4.6875 -2.1875 "/></g></g></g><g fill="#191516" fill-opacity="1"><g transform="translate(201.910117, 103.56627)"><g><path d="M 6.484375 -0.625 C 6.296875 0.1875 6.097656 0.84375 5.890625 1.34375 L 0.328125 0.078125 L 0.34375 -0.265625 C 0.570312 -0.347656 0.894531 -0.421875 1.3125 -0.484375 L 2.53125 -5.84375 L 1.75 -6.140625 L 1.890625 -6.65625 L 5.015625 -5.9375 L 5 -5.625 C 4.71875 -5.519531 4.40625 -5.4375 4.0625 -5.375 L 2.890625 -0.25 L 4.96875 0.0625 L 5.6875 -1.28125 L 6.5625 -1 Z M 6.484375 -0.625 "/></g></g></g><g fill="#191516" fill-opacity="1"><g transform="translate(209.633852, 105.456085)"><g/></g></g><g fill="#191516" fill-opacity="1"><g transform="translate(213.912358, 106.790937)"><g><path d="M 5.84375 1.515625 L 3.484375 1.578125 C 2.679688 1.285156 2.082031 0.878906 1.6875 0.359375 C 1.300781 -0.148438 1.085938 -0.703125 1.046875 -1.296875 C 1.015625 -1.898438 1.113281 -2.5 1.34375 -3.09375 C 1.582031 -3.6875 1.929688 -4.195312 2.390625 -4.625 C 2.859375 -5.0625 3.40625 -5.34375 4.03125 -5.46875 C 4.65625 -5.601562 5.316406 -5.53125 6.015625 -5.25 C 6.773438 -4.945312 7.363281 -4.472656 7.78125 -3.828125 C 7.71875 -3.617188 7.59375 -3.34375 7.40625 -3 C 7.226562 -2.664062 7.046875 -2.382812 6.859375 -2.15625 L 5.96875 -2.515625 L 6.234375 -3.828125 C 5.859375 -4.203125 5.398438 -4.5 4.859375 -4.71875 C 4.453125 -4.613281 4.082031 -4.375 3.75 -4 C 3.425781 -3.625 3.164062 -3.191406 2.96875 -2.703125 C 2.65625 -1.929688 2.597656 -1.242188 2.796875 -0.640625 C 2.992188 -0.0351562 3.414062 0.378906 4.0625 0.609375 L 5.890625 0.734375 Z M 5.84375 1.515625 "/></g></g></g><g fill="#191516" fill-opacity="1"><g transform="translate(221.102829, 109.793623)"><g><path d="M 3.5625 1.21875 L 3.328125 1.671875 L 0.3125 0.15625 L 0.390625 -0.1875 C 0.628906 -0.195312 0.960938 -0.1875 1.390625 -0.15625 L 3.859375 -5.0625 L 3.203125 -5.53125 L 3.4375 -6 L 6.3125 -4.5625 L 6.203125 -4.234375 C 5.910156 -4.210938 5.585938 -4.210938 5.234375 -4.234375 L 2.765625 0.65625 Z M 3.5625 1.21875 "/></g></g></g><g fill="#191516" fill-opacity="1"><g transform="translate(226.176632, 112.36663)"><g><path d="M 9.34375 -2.390625 L 9.203125 -2.125 C 8.816406 -1.519531 8.429688 -1.007812 8.046875 -0.59375 L 7.328125 -1.03125 L 7.90625 -2.234375 L 6.828125 -3.03125 L 3.921875 1.640625 L 4.75 2.328125 L 4.453125 2.78125 L 1.34375 0.828125 L 1.46875 0.5 C 1.644531 0.507812 2.03125 0.570312 2.625 0.6875 L 5.46875 -3.875 L 4.296875 -4.484375 L 3.453125 -3.4375 L 2.734375 -3.890625 C 2.921875 -4.429688 3.207031 -5.003906 3.59375 -5.609375 L 3.765625 -5.875 L 6.5625 -4.09375 Z M 9.34375 -2.390625 "/></g></g></g><g fill="#191516" fill-opacity="1"><g transform="translate(233.274324, 116.888346)"><g><path d="M 3.6875 2.0625 L 4.296875 2.6875 L 3.953125 3.109375 L 1.4375 1.125 L 1.609375 0.828125 C 1.847656 0.859375 2.148438 0.921875 2.515625 1.015625 L 3.640625 -0.4375 L 4.375 -4.546875 L 3.921875 -5.03125 L 4.25 -5.453125 L 6.46875 -3.71875 L 6.3125 -3.40625 L 5.640625 -3.546875 L 5.28125 -1.46875 L 4.953125 -0.59375 L 5 -0.546875 L 7.78125 -1.859375 L 7.25 -2.421875 L 7.578125 -2.84375 L 9.59375 -1.265625 L 9.4375 -0.96875 C 9.226562 -0.988281 8.921875 -1.046875 8.515625 -1.140625 L 4.984375 0.40625 Z M 3.6875 2.0625 "/></g></g></g><g fill="#191516" fill-opacity="0.349"><g transform="translate(41.68843, 212.038006)"><g><path d="M -0.0429688 0.00390625 L 10.382812 -0.554688 L 11.089844 -5.15625 L 17.214844 -5.480469 L 18.242188 -0.972656 L 29.039062 -1.550781 L 19.546875 -30.914062 L 6.308594 -30.207031 Z M 11.75 -12.242188 L 13.347656 -21.910156 L 13.433594 -21.914062 L 15.804688 -12.460938 Z M 11.75 -12.242188 "/></g></g></g><g fill="#191516" fill-opacity="0.349"><g transform="translate(74.656948, 210.277521)"><g><path d="M 21.417969 -0.523438 C 23.734375 -0.644531 26.542969 -1.707031 28.210938 -3.082031 L 26.71875 -7.730469 C 26.277344 -7.460938 25.828125 -7.3125 25.371094 -7.285156 C 24.917969 -7.261719 24.445312 -7.570312 24.316406 -8.390625 L 24.023438 -10.035156 C 23.726562 -11.679688 23.121094 -12.933594 21.355469 -13.378906 L 21.351562 -13.417969 C 24.152344 -14.605469 25.621094 -17.382812 25.421875 -21.144531 C 25.074219 -27.597656 20.292969 -30.953125 12.019531 -30.511719 L -0.347656 -29.851562 L 1.242188 -0.0664062 L 11.996094 -0.640625 L 11.464844 -10.570312 L 12.210938 -10.609375 C 12.914062 -10.644531 13.5625 -10.140625 13.679688 -9.484375 L 14.410156 -5.953125 C 15.085938 -2.589844 17.695312 -0.324219 21.417969 -0.523438 Z M 11.113281 -17.1875 L 10.804688 -22.976562 L 12.003906 -23.042969 C 13.617188 -23.128906 14.582031 -22.144531 14.679688 -20.28125 C 14.78125 -18.417969 13.925781 -17.335938 12.3125 -17.25 Z M 11.113281 -17.1875 "/></g></g></g><g fill="#191516" fill-opacity="0.349"><g transform="translate(106.88088, 208.556797)"><g><path d="M 7.03125 -0.375 L 17.789062 -0.949219 L 16.683594 -21.632812 L 22.886719 -21.964844 L 22.402344 -31.066406 L -0.761719 -29.828125 L -0.277344 -20.726562 L 5.929688 -21.058594 Z M 7.03125 -0.375 "/></g></g></g><g fill="#191516" fill-opacity="0.349"><g transform="translate(135.630095, 207.021618)"><g/></g></g><g fill="#191516" fill-opacity="0.349"><g transform="translate(144.937401, 206.524618)"><g><path d="M -0.0429688 0.00390625 L 10.382812 -0.554688 L 11.089844 -5.15625 L 17.214844 -5.480469 L 18.242188 -0.972656 L 29.039062 -1.550781 L 19.546875 -30.914062 L 6.308594 -30.207031 Z M 11.75 -12.242188 L 13.347656 -21.910156 L 13.433594 -21.914062 L 15.804688 -12.460938 Z M 11.75 -12.242188 "/></g></g></g><g fill="#191516" fill-opacity="0.349"><g transform="translate(177.905923, 204.764132)"><g><path d="M 7.816406 -0.417969 L 21.882812 -1.167969 L 28.109375 -31.371094 L 16.984375 -30.773438 L 14.359375 -10.765625 L 14.277344 -10.761719 L 9.535156 -30.378906 L -1.589844 -29.785156 Z M 7.816406 -0.417969 "/></g></g></g><g fill="#191516" fill-opacity="0.349"><g transform="translate(211.536297, 202.968305)"><g><path d="M 1.242188 -0.0664062 L 19.855469 -1.058594 L 19.414062 -9.332031 L 11.140625 -8.890625 L 10.964844 -12.199219 L 17.167969 -12.53125 L 16.792969 -19.5625 L 10.589844 -19.234375 L 10.433594 -22.128906 L 18.292969 -22.546875 L 17.851562 -30.820312 L -0.347656 -29.851562 Z M 1.242188 -0.0664062 "/></g></g></g><g fill="#191516" fill-opacity="0.349"><g transform="translate(235.942113, 201.66506)"><g><path d="M 1.242188 -0.0664062 L 10.753906 -0.574219 L 9.816406 -18.15625 L 9.898438 -18.160156 L 19.027344 -1.015625 L 31.4375 -1.679688 L 29.847656 -31.460938 L 20.332031 -30.953125 L 21.277344 -13.289062 L 21.195312 -13.285156 L 12.058594 -30.511719 L -0.347656 -29.851562 Z M 1.242188 -0.0664062 "/></g></g></g><g fill="#191516" fill-opacity="0.349"><g transform="translate(272.550831, 199.710192)"><g><path d="M 14.316406 0.0664062 C 22.671875 -0.382812 27.136719 -4.558594 26.761719 -11.59375 L 25.710938 -31.242188 L 14.957031 -30.667969 L 15.9375 -12.257812 C 16.042969 -10.273438 15.277344 -9.113281 13.828125 -9.035156 C 12.382812 -8.957031 11.496094 -10.03125 11.386719 -12.015625 L 10.40625 -30.425781 L -0.347656 -29.851562 L 0.699219 -10.199219 C 1.074219 -3.167969 5.960938 0.511719 14.316406 0.0664062 Z M 14.316406 0.0664062 "/></g></g></g><g fill="#191516" fill-opacity="0.349"><g transform="translate(305.022967, 197.976213)"><g><path d="M 1.242188 -0.0664062 L 19.855469 -1.058594 L 19.414062 -9.332031 L 11.140625 -8.890625 L 10.964844 -12.199219 L 17.167969 -12.53125 L 16.792969 -19.5625 L 10.589844 -19.234375 L 10.433594 -22.128906 L 18.292969 -22.546875 L 17.851562 -30.820312 L -0.347656 -29.851562 Z M 1.242188 -0.0664062 "/></g></g></g><g fill="#ffffff" fill-opacity="1"><g transform="translate(44.640573, 208.635159)"><g><path d="M -0.0429688 0.00390625 L 10.382812 -0.554688 L 11.089844 -5.15625 L 17.214844 -5.480469 L 18.242188 -0.972656 L 29.039062 -1.550781 L 19.546875 -30.914062 L 6.308594 -30.207031 Z M 11.75 -12.242188 L 13.347656 -21.910156 L 13.433594 -21.914062 L 15.804688 -12.460938 Z M 11.75 -12.242188 "/></g></g></g><g fill="#ffffff" fill-opacity="1"><g transform="translate(77.609091, 206.874674)"><g><path d="M 21.417969 -0.523438 C 23.734375 -0.644531 26.542969 -1.707031 28.210938 -3.082031 L 26.71875 -7.730469 C 26.277344 -7.460938 25.828125 -7.3125 25.371094 -7.285156 C 24.917969 -7.261719 24.445312 -7.570312 24.316406 -8.390625 L 24.023438 -10.035156 C 23.726562 -11.679688 23.121094 -12.933594 21.355469 -13.378906 L 21.351562 -13.417969 C 24.152344 -14.605469 25.621094 -17.382812 25.421875 -21.144531 C 25.074219 -27.597656 20.292969 -30.953125 12.019531 -30.511719 L -0.347656 -29.851562 L 1.242188 -0.0664062 L 11.996094 -0.640625 L 11.464844 -10.570312 L 12.210938 -10.609375 C 12.914062 -10.644531 13.5625 -10.140625 13.679688 -9.484375 L 14.410156 -5.953125 C 15.085938 -2.589844 17.695312 -0.324219 21.417969 -0.523438 Z M 11.113281 -17.1875 L 10.804688 -22.976562 L 12.003906 -23.042969 C 13.617188 -23.128906 14.582031 -22.144531 14.679688 -20.28125 C 14.78125 -18.417969 13.925781 -17.335938 12.3125 -17.25 Z M 11.113281 -17.1875 "/></g></g></g><g fill="#ffffff" fill-opacity="1"><g transform="translate(109.833023, 205.15395)"><g><path d="M 7.03125 -0.375 L 17.789062 -0.949219 L 16.683594 -21.632812 L 22.886719 -21.964844 L 22.402344 -31.066406 L -0.761719 -29.828125 L -0.277344 -20.726562 L 5.929688 -21.058594 Z M 7.03125 -0.375 "/></g></g></g><g fill="#ffffff" fill-opacity="1"><g transform="translate(138.582238, 203.618771)"><g/></g></g><g fill="#ffffff" fill-opacity="1"><g transform="translate(147.889545, 203.121771)"><g><path d="M -0.0429688 0.00390625 L 10.382812 -0.554688 L 11.089844 -5.15625 L 17.214844 -5.480469 L 18.242188 -0.972656 L 29.039062 -1.550781 L 19.546875 -30.914062 L 6.308594 -30.207031 Z M 11.75 -12.242188 L 13.347656 -21.910156 L 13.433594 -21.914062 L 15.804688 -12.460938 Z M 11.75 -12.242188 "/></g></g></g><g fill="#ffffff" fill-opacity="1"><g transform="translate(180.858066, 201.361285)"><g><path d="M 7.816406 -0.417969 L 21.882812 -1.167969 L 28.109375 -31.371094 L 16.984375 -30.773438 L 14.359375 -10.765625 L 14.277344 -10.761719 L 9.535156 -30.378906 L -1.589844 -29.785156 Z M 7.816406 -0.417969 "/></g></g></g><g fill="#ffffff" fill-opacity="1"><g transform="translate(214.48844, 199.565458)"><g><path d="M 1.242188 -0.0664062 L 19.855469 -1.058594 L 19.414062 -9.332031 L 11.140625 -8.890625 L 10.964844 -12.199219 L 17.167969 -12.53125 L 16.792969 -19.5625 L 10.589844 -19.234375 L 10.433594 -22.128906 L 18.292969 -22.546875 L 17.851562 -30.820312 L -0.347656 -29.851562 Z M 1.242188 -0.0664062 "/></g></g></g><g fill="#ffffff" fill-opacity="1"><g transform="translate(238.894257, 198.262213)"><g><path d="M 1.242188 -0.0664062 L 10.753906 -0.574219 L 9.816406 -18.15625 L 9.898438 -18.160156 L 19.027344 -1.015625 L 31.4375 -1.679688 L 29.847656 -31.460938 L 20.332031 -30.953125 L 21.277344 -13.289062 L 21.195312 -13.285156 L 12.058594 -30.511719 L -0.347656 -29.851562 Z M 1.242188 -0.0664062 "/></g></g></g><g fill="#ffffff" fill-opacity="1"><g transform="translate(275.502974, 196.307345)"><g><path d="M 14.316406 0.0664062 C 22.671875 -0.382812 27.136719 -4.558594 26.761719 -11.59375 L 25.710938 -31.242188 L 14.957031 -30.667969 L 15.9375 -12.257812 C 16.042969 -10.273438 15.277344 -9.113281 13.828125 -9.035156 C 12.382812 -8.957031 11.496094 -10.03125 11.386719 -12.015625 L 10.40625 -30.425781 L -0.347656 -29.851562 L 0.699219 -10.199219 C 1.074219 -3.167969 5.960938 0.511719 14.316406 0.0664062 Z M 14.316406 0.0664062 "/></g></g></g><g fill="#ffffff" fill-opacity="1"><g transform="translate(307.975111, 194.573366)"><g><path d="M 1.242188 -0.0664062 L 19.855469 -1.058594 L 19.414062 -9.332031 L 11.140625 -8.890625 L 10.964844 -12.199219 L 17.167969 -12.53125 L 16.792969 -19.5625 L 10.589844 -19.234375 L 10.433594 -22.128906 L 18.292969 -22.546875 L 17.851562 -30.820312 L -0.347656 -29.851562 Z M 1.242188 -0.0664062 "/></g></g></g><g fill="#cb1e1e" fill-opacity="1"><g transform="translate(46.553939, 209.271634)"><g><path d="M -0.0429688 0.00390625 L 10.382812 -0.554688 L 11.089844 -5.15625 L 17.214844 -5.480469 L 18.242188 -0.972656 L 29.039062 -1.550781 L 19.546875 -30.914062 L 6.308594 -30.207031 Z M 11.75 -12.242188 L 13.347656 -21.910156 L 13.433594 -21.914062 L 15.804688 -12.460938 Z M 11.75 -12.242188 "/></g></g></g><g fill="#cb1e1e" fill-opacity="1"><g transform="translate(79.522458, 207.51115)"><g><path d="M 21.417969 -0.523438 C 23.734375 -0.644531 26.542969 -1.707031 28.210938 -3.082031 L 26.71875 -7.730469 C 26.277344 -7.460938 25.828125 -7.3125 25.371094 -7.285156 C 24.917969 -7.261719 24.445312 -7.570312 24.316406 -8.390625 L 24.023438 -10.035156 C 23.726562 -11.679688 23.121094 -12.933594 21.355469 -13.378906 L 21.351562 -13.417969 C 24.152344 -14.605469 25.621094 -17.382812 25.421875 -21.144531 C 25.074219 -27.597656 20.292969 -30.953125 12.019531 -30.511719 L -0.347656 -29.851562 L 1.242188 -0.0664062 L 11.996094 -0.640625 L 11.464844 -10.570312 L 12.210938 -10.609375 C 12.914062 -10.644531 13.5625 -10.140625 13.679688 -9.484375 L 14.410156 -5.953125 C 15.085938 -2.589844 17.695312 -0.324219 21.417969 -0.523438 Z M 11.113281 -17.1875 L 10.804688 -22.976562 L 12.003906 -23.042969 C 13.617188 -23.128906 14.582031 -22.144531 14.679688 -20.28125 C 14.78125 -18.417969 13.925781 -17.335938 12.3125 -17.25 Z M 11.113281 -17.1875 "/></g></g></g><g fill="#cb1e1e" fill-opacity="1"><g transform="translate(111.746389, 205.790425)"><g><path d="M 7.03125 -0.375 L 17.789062 -0.949219 L 16.683594 -21.632812 L 22.886719 -21.964844 L 22.402344 -31.066406 L -0.761719 -29.828125 L -0.277344 -20.726562 L 5.929688 -21.058594 Z M 7.03125 -0.375 "/></g></g></g><g fill="#cb1e1e" fill-opacity="1"><g transform="translate(140.495604, 204.255246)"><g/></g></g><g fill="#cb1e1e" fill-opacity="1"><g transform="translate(149.802911, 203.758246)"><g><path d="M -0.0429688 0.00390625 L 10.382812 -0.554688 L 11.089844 -5.15625 L 17.214844 -5.480469 L 18.242188 -0.972656 L 29.039062 -1.550781 L 19.546875 -30.914062 L 6.308594 -30.207031 Z M 11.75 -12.242188 L 13.347656 -21.910156 L 13.433594 -21.914062 L 15.804688 -12.460938 Z M 11.75 -12.242188 "/></g></g></g><g fill="#cb1e1e" fill-opacity="1"><g transform="translate(182.771432, 201.997761)"><g><path d="M 7.816406 -0.417969 L 21.882812 -1.167969 L 28.109375 -31.371094 L 16.984375 -30.773438 L 14.359375 -10.765625 L 14.277344 -10.761719 L 9.535156 -30.378906 L -1.589844 -29.785156 Z M 7.816406 -0.417969 "/></g></g></g><g fill="#cb1e1e" fill-opacity="1"><g transform="translate(216.401806, 200.201933)"><g><path d="M 1.242188 -0.0664062 L 19.855469 -1.058594 L 19.414062 -9.332031 L 11.140625 -8.890625 L 10.964844 -12.199219 L 17.167969 -12.53125 L 16.792969 -19.5625 L 10.589844 -19.234375 L 10.433594 -22.128906 L 18.292969 -22.546875 L 17.851562 -30.820312 L -0.347656 -29.851562 Z M 1.242188 -0.0664062 "/></g></g></g><g fill="#cb1e1e" fill-opacity="1"><g transform="translate(240.807623, 198.898688)"><g><path d="M 1.242188 -0.0664062 L 10.753906 -0.574219 L 9.816406 -18.15625 L 9.898438 -18.160156 L 19.027344 -1.015625 L 31.4375 -1.679688 L 29.847656 -31.460938 L 20.332031 -30.953125 L 21.277344 -13.289062 L 21.195312 -13.285156 L 12.058594 -30.511719 L -0.347656 -29.851562 Z M 1.242188 -0.0664062 "/></g></g></g><g fill="#cb1e1e" fill-opacity="1"><g transform="translate(277.41634, 196.94382)"><g><path d="M 14.316406 0.0664062 C 22.671875 -0.382812 27.136719 -4.558594 26.761719 -11.59375 L 25.710938 -31.242188 L 14.957031 -30.667969 L 15.9375 -12.257812 C 16.042969 -10.273438 15.277344 -9.113281 13.828125 -9.035156 C 12.382812 -8.957031 11.496094 -10.03125 11.386719 -12.015625 L 10.40625 -30.425781 L -0.347656 -29.851562 L 0.699219 -10.199219 C 1.074219 -3.167969 5.960938 0.511719 14.316406 0.0664062 Z M 14.316406 0.0664062 "/></g></g></g><g fill="#cb1e1e" fill-opacity="1"><g transform="translate(309.888477, 195.209841)"><g><path d="M 1.242188 -0.0664062 L 19.855469 -1.058594 L 19.414062 -9.332031 L 11.140625 -8.890625 L 10.964844 -12.199219 L 17.167969 -12.53125 L 16.792969 -19.5625 L 10.589844 -19.234375 L 10.433594 -22.128906 L 18.292969 -22.546875 L 17.851562 -30.820312 L -0.347656 -29.851562 Z M 1.242188 -0.0664062 "/></g></g></g><path stroke-linecap="butt" transform="matrix(1.034145, -0.0552223, 0.0552223, 1.034145, 29.922324, 170.549622)" fill="none" stroke-linejoin="miter" d="M 12.165379 38.000429 L 22.243254 37.998426 L 23.162128 33.594087 L 29.088514 33.597036 L 29.839275 37.999878 L 40.279743 37.998351 L 32.642517 9.200538 L 19.841328 9.200654 Z M 24.167086 26.799552 L 26.205393 17.559642 L 26.284691 17.560099 L 28.080478 26.796996 Z M 64.766129 38.595772 C 67.002353 38.594311 69.764997 37.718192 71.447871 36.478455 L 70.244834 31.91548 C 69.804935 32.160177 69.368108 32.27661 68.926217 32.275677 C 68.487891 32.278712 68.040094 31.96395 67.962004 31.162775 L 67.764189 29.561979 C 67.558841 27.960781 67.043357 26.72075 65.363611 26.204221 L 65.362057 26.162588 C 68.127773 25.158206 69.679259 22.559189 69.677287 18.917791 C 69.678097 12.677777 65.244195 9.20011 57.247714 9.199938 L 45.285109 9.199507 L 45.28448 38.00119 L 55.683315 38.001218 L 55.686102 28.399535 L 56.407522 28.400286 C 57.079775 28.402188 57.686808 28.918094 57.765814 29.560672 L 58.281003 32.999061 C 58.75924 36.280609 61.162598 38.595988 64.766129 38.595772 Z M 55.683859 22.00449 L 55.684779 16.399064 L 56.84829 16.396981 C 58.400761 16.396781 59.280008 17.40316 59.278434 19.201058 C 59.27686 20.998957 58.399841 22.002207 56.847371 22.002407 Z M 82.041212 37.999779 L 92.440046 37.999807 L 92.439095 17.999088 L 98.444981 17.998728 L 98.44636 9.20153 L 76.043288 9.202625 L 76.045675 18.000024 L 82.040261 17.999061 Z M 112.00264 37.998124 L 122.080314 37.999889 L 122.999187 33.595549 L 128.929541 33.594933 L 129.680101 38.001541 L 140.120569 38.000015 L 132.483343 9.202201 L 119.678388 9.202116 Z M 124.004346 26.797248 L 126.046219 17.561305 L 126.125517 17.561762 L 127.921304 26.798659 Z M 151.482686 37.998599 L 165.084592 37.99969 L 172.643376 9.201214 L 161.881949 9.20071 L 158.327987 28.361909 L 158.241155 28.361049 L 154.686186 9.201746 L 143.924758 9.201242 Z M 177.643918 38.001768 L 195.642742 37.999681 L 195.642914 30.003201 L 187.642667 30.002828 L 187.64373 26.799756 L 193.642082 26.798993 L 193.63856 20.003489 L 187.644175 20.000686 L 187.642751 17.197872 L 195.242539 17.199525 L 195.242711 9.203044 L 177.644548 9.200084 Z M 201.244401 38.000399 L 210.442059 38.000499 L 210.443373 20.999058 L 210.522671 20.999515 L 218.442306 38.000872 L 230.442777 37.999548 L 230.443206 9.201632 L 221.245548 9.201532 L 221.243777 26.282272 L 221.164479 26.281815 L 213.245301 9.201159 L 201.24483 9.202483 Z M 249.241111 38.799387 C 257.32819 38.80062 261.840812 35.003683 261.837893 28.196879 L 261.83994 9.201075 L 251.437338 9.200846 L 251.438584 27.003207 C 251.438308 28.91827 250.640131 30.001276 249.24249 30.002189 C 247.84485 30.003102 247.045358 28.917882 247.045634 27.002819 L 247.044389 9.200458 L 236.645554 9.200431 L 236.643508 28.196234 C 236.64266 35.002837 241.165131 38.802525 249.241111 38.799387 Z M 268.045425 38.001758 L 286.040482 37.999471 L 286.040654 30.00299 L 278.044173 30.002819 L 278.045237 26.799747 L 284.039823 26.798783 L 284.040066 20.00348 L 278.045682 20.000677 L 278.044258 17.197863 L 285.640279 17.199314 L 285.640451 9.202834 L 268.046055 9.200075 Z M 268.045425 38.001758 " stroke="#191516" stroke-width="1.5" stroke-opacity="1" stroke-miterlimit="4"/><g clip-path="url(#f141ab1f17)"><path fill="#ffffff" d="M 165.027344 252.902344 L 201.941406 252.902344 L 201.941406 263.449219 L 165.027344 263.449219 Z M 165.027344 252.902344 " fill-opacity="1" fill-rule="nonzero"/></g><g clip-path="url(#e2ee0ba5b9)"><path fill="#ffffff" d="M 172.652344 268.339844 L 209.566406 268.339844 L 209.566406 277.128906 L 172.652344 277.128906 Z M 172.652344 268.339844 " fill-opacity="1" fill-rule="nonzero"/></g><g clip-path="url(#b13fc6d8ae)"><g clip-path="url(#f60ee41d77)"><g clip-path="url(#ce5c24b778)"><path fill="#ffffff" d="M 164.933594 253.605469 L 169.683594 258.792969 L 164.496094 263.542969 L 159.746094 258.355469 Z M 164.933594 253.605469 " fill-opacity="1" fill-rule="nonzero"/></g></g></g><g clip-path="url(#fd94b00a1f)"><g clip-path="url(#50c1dabde3)"><g clip-path="url(#0edb2b990a)"><path fill="#ffffff" d="M 210.027344 268.339844 L 214.996094 273.3125 L 210.027344 278.28125 L 205.054688 273.3125 Z M 210.027344 268.339844 " fill-opacity="1" fill-rule="nonzero"/></g></g></g><g clip-path="url(#e04d818efd)"><path fill="#ffffff" d="M 183.785156 287.089844 L 183.785156 234.355469 L 190.816406 234.355469 L 190.816406 287.089844 Z M 183.785156 287.089844 " fill-opacity="1" fill-rule="nonzero"/></g></svg>