<svg xmlns="http://www.w3.org/2000/svg" xmlns:xlink="http://www.w3.org/1999/xlink" width="300" zoomAndPan="magnify" viewBox="0 0 278.25 74.999997" height="90" preserveAspectRatio="xMidYMid meet" version="1.0"><defs><clipPath id="c44603dad3"><path d="M 5.175781 6.148438 L 272.621094 6.148438 L 272.621094 68.144531 L 5.175781 68.144531 Z M 5.175781 6.148438 " clip-rule="nonzero"/></clipPath><clipPath id="60d8bebf32"><path d="M 10.226562 6.144531 L 267.382812 6.144531 C 268.78125 6.144531 270.125 6.699219 271.113281 7.683594 C 272.105469 8.667969 272.660156 10.007812 272.660156 11.398438 L 272.660156 62.984375 C 272.660156 64.375 272.105469 65.714844 271.113281 66.695312 C 270.125 67.683594 268.78125 68.238281 267.382812 68.238281 L 10.226562 68.238281 C 8.828125 68.238281 7.488281 67.683594 6.496094 66.695312 C 5.507812 65.714844 4.949219 64.375 4.949219 62.984375 L 4.949219 11.398438 C 4.949219 10.007812 5.507812 8.667969 6.496094 7.683594 C 7.488281 6.699219 8.828125 6.144531 10.226562 6.144531 " clip-rule="nonzero"/></clipPath><clipPath id="cbabc19b89"><path d="M 5.175781 6.148438 L 272.871094 6.148438 L 272.871094 68.039062 L 5.175781 68.039062 Z M 5.175781 6.148438 " clip-rule="nonzero"/></clipPath><clipPath id="526267487b"><path d="M 10.246094 6.144531 L 267.632812 6.144531 C 269.039062 6.144531 270.382812 6.699219 271.371094 7.679688 C 272.363281 8.664062 272.917969 9.996094 272.917969 11.382812 L 272.917969 62.800781 C 272.917969 64.191406 272.363281 65.523438 271.371094 66.507812 C 270.382812 67.488281 269.039062 68.039062 267.632812 68.039062 L 10.246094 68.039062 C 8.847656 68.039062 7.503906 67.488281 6.507812 66.507812 C 5.519531 65.523438 4.964844 64.191406 4.964844 62.800781 L 4.964844 11.382812 C 4.964844 9.996094 5.519531 8.664062 6.507812 7.679688 C 7.503906 6.699219 8.847656 6.144531 10.246094 6.144531 " clip-rule="nonzero"/></clipPath><clipPath id="5eed786375"><path d="M 11.394531 12.621094 L 266.46875 12.621094 L 266.46875 61.667969 L 11.394531 61.667969 Z M 11.394531 12.621094 " clip-rule="nonzero"/></clipPath><clipPath id="7c92b90225"><path d="M 17.238281 34 L 23.976562 34 L 23.976562 40.585938 L 17.238281 40.585938 Z M 17.238281 34 " clip-rule="nonzero"/></clipPath><clipPath id="3e0d9ac4cf"><path d="M 19.054688 33.148438 L 24.851562 35.460938 L 22.53125 41.234375 L 16.734375 38.921875 Z M 19.054688 33.148438 " clip-rule="nonzero"/></clipPath><clipPath id="f61bbb59d4"><path d="M 21.953125 34.304688 C 20.351562 33.667969 18.535156 34.441406 17.894531 36.035156 C 17.253906 37.632812 18.03125 39.441406 19.628906 40.078125 C 21.230469 40.71875 23.050781 39.941406 23.691406 38.347656 C 24.332031 36.753906 23.554688 34.945312 21.953125 34.304688 " clip-rule="nonzero"/></clipPath><clipPath id="3291fcd7b0"><path d="M 255 34 L 261.386719 34 L 261.386719 40.585938 L 255 40.585938 Z M 255 34 " clip-rule="nonzero"/></clipPath><clipPath id="6a3cd74a62"><path d="M 256.5 33.148438 L 262.292969 35.460938 L 259.976562 41.234375 L 254.179688 38.921875 Z M 256.5 33.148438 " clip-rule="nonzero"/></clipPath><clipPath id="a76cb1de7f"><path d="M 259.398438 34.304688 C 257.796875 33.667969 255.980469 34.441406 255.339844 36.035156 C 254.699219 37.632812 255.476562 39.441406 257.074219 40.078125 C 258.679688 40.71875 260.5 39.941406 261.136719 38.347656 C 261.777344 36.753906 261 34.945312 259.398438 34.304688 " clip-rule="nonzero"/></clipPath></defs><g clip-path="url(#c44603dad3)"><g clip-path="url(#60d8bebf32)"><path fill="#ffffff" d="M 4.949219 6.144531 L 272.101562 6.144531 L 272.101562 69.054688 L 4.949219 69.054688 Z M 4.949219 6.144531 " fill-opacity="1" fill-rule="nonzero"/></g></g><g clip-path="url(#cbabc19b89)"><g clip-path="url(#526267487b)"><path stroke-linecap="butt" transform="matrix(0.587002, 0, 0, 0.582107, 4.965453, 6.14625)" fill="none" stroke-linejoin="miter" d="M 8.995943 -0.00295287 L 447.47896 -0.00295287 C 449.867951 -0.00295287 452.157124 0.949942 453.84073 2.640996 C 455.537646 4.325339 456.482595 6.61363 456.482595 9.002579 L 456.482595 97.326579 C 456.482595 99.722238 455.537646 102.003818 453.84073 103.694872 C 452.157124 105.385926 449.867951 106.3254 447.47896 106.3254 L 8.995943 106.3254 C 6.613606 106.3254 4.324433 105.385926 2.634172 103.694872 C 0.943911 102.003818 -0.00103794 99.722238 -0.00103794 97.326579 L -0.00103794 9.002579 C -0.00103794 6.61363 0.943911 4.325339 2.634172 2.640996 C 4.324433 0.949942 6.613606 -0.00295287 8.995943 -0.00295287 " stroke="#cb1e1e" stroke-width="16" stroke-opacity="1" stroke-miterlimit="4"/></g></g><g clip-path="url(#5eed786375)"><path stroke-linecap="butt" transform="matrix(0.586987, 0, 0, 0.58281, 11.395003, 12.621164)" fill="none" stroke-linejoin="miter" d="M -0.000804343 -0.00012052 L 434.547162 -0.00012052 L 434.547162 84.155805 L -0.000804343 84.155805 L -0.000804343 -0.00012052 " stroke="#191516" stroke-width="6" stroke-opacity="1" stroke-miterlimit="4"/></g><path fill="#191516" d="M 25.242188 51.636719 L 33.40625 51.636719 L 34.148438 48.09375 L 38.941406 48.09375 L 39.554688 51.636719 L 48.011719 51.636719 L 41.828125 28.421875 L 31.457031 28.421875 Z M 34.960938 42.609375 L 36.609375 35.160156 L 36.675781 35.160156 L 38.132812 42.609375 Z M 34.960938 42.609375 " fill-opacity="0.349" fill-rule="nonzero"/><path fill="#191516" d="M 67.824219 52.121094 C 69.640625 52.121094 71.875 51.414062 73.234375 50.414062 L 72.261719 46.738281 C 71.90625 46.933594 71.550781 47.027344 71.195312 47.027344 C 70.839844 47.027344 70.480469 46.769531 70.421875 46.125 L 70.257812 44.835938 C 70.09375 43.542969 69.675781 42.546875 68.3125 42.128906 L 68.3125 42.09375 C 70.546875 41.285156 71.8125 39.191406 71.8125 36.257812 C 71.8125 31.226562 68.21875 28.421875 61.738281 28.421875 L 52.054688 28.421875 L 52.054688 51.636719 L 60.472656 51.636719 L 60.472656 43.898438 L 61.058594 43.898438 C 61.609375 43.898438 62.09375 44.320312 62.160156 44.835938 L 62.578125 47.605469 C 62.96875 50.253906 64.910156 52.121094 67.824219 52.121094 Z M 60.472656 38.738281 L 60.472656 34.226562 L 61.414062 34.226562 C 62.675781 34.226562 63.390625 35.03125 63.390625 36.480469 C 63.390625 37.933594 62.675781 38.738281 61.414062 38.738281 Z M 60.472656 38.738281 " fill-opacity="0.349" fill-rule="nonzero"/><path fill="#191516" d="M 81.816406 51.636719 L 90.234375 51.636719 L 90.234375 35.515625 L 95.089844 35.515625 L 95.089844 28.421875 L 76.957031 28.421875 L 76.957031 35.515625 L 81.816406 35.515625 Z M 81.816406 51.636719 " fill-opacity="0.349" fill-rule="nonzero"/><path fill="#191516" d="M 106.0625 51.636719 L 114.230469 51.636719 L 114.976562 48.09375 L 119.765625 48.09375 L 120.382812 51.636719 L 128.832031 51.636719 L 122.648438 28.421875 L 112.285156 28.421875 Z M 115.78125 42.609375 L 117.433594 35.160156 L 117.5 35.160156 L 118.957031 42.609375 Z M 115.78125 42.609375 " fill-opacity="0.349" fill-rule="nonzero"/><path fill="#191516" d="M 138.027344 51.636719 L 149.039062 51.636719 L 155.160156 28.421875 L 146.449219 28.421875 L 143.5625 43.867188 L 143.503906 43.867188 L 140.621094 28.421875 L 131.910156 28.421875 Z M 138.027344 51.636719 " fill-opacity="0.349" fill-rule="nonzero"/><path fill="#191516" d="M 159.203125 51.636719 L 173.777344 51.636719 L 173.777344 45.1875 L 167.300781 45.1875 L 167.300781 42.609375 L 172.160156 42.609375 L 172.160156 37.125 L 167.300781 37.125 L 167.300781 34.871094 L 173.457031 34.871094 L 173.457031 28.421875 L 159.203125 28.421875 Z M 159.203125 51.636719 " fill-opacity="0.349" fill-rule="nonzero"/><path fill="#191516" d="M 178.308594 51.636719 L 185.757812 51.636719 L 185.757812 37.933594 L 185.824219 37.933594 L 192.234375 51.636719 L 201.949219 51.636719 L 201.949219 28.421875 L 194.503906 28.421875 L 194.503906 42.191406 L 194.4375 42.191406 L 188.023438 28.421875 L 178.308594 28.421875 Z M 178.308594 51.636719 " fill-opacity="0.349" fill-rule="nonzero"/><path fill="#191516" d="M 217.167969 52.285156 C 223.707031 52.285156 227.371094 49.21875 227.371094 43.738281 L 227.371094 28.421875 L 218.949219 28.421875 L 218.949219 42.773438 C 218.949219 44.320312 218.304688 45.1875 217.167969 45.1875 C 216.035156 45.1875 215.386719 44.320312 215.386719 42.773438 L 215.386719 28.421875 L 206.964844 28.421875 L 206.964844 43.738281 C 206.964844 49.21875 210.625 52.285156 217.167969 52.285156 Z M 217.167969 52.285156 " fill-opacity="0.349" fill-rule="nonzero"/><path fill="#191516" d="M 232.382812 51.636719 L 246.960938 51.636719 L 246.960938 45.1875 L 240.480469 45.1875 L 240.480469 42.609375 L 245.339844 42.609375 L 245.339844 37.125 L 240.480469 37.125 L 240.480469 34.871094 L 246.632812 34.871094 L 246.632812 28.421875 L 232.382812 28.421875 Z M 232.382812 51.636719 " fill-opacity="0.349" fill-rule="nonzero"/><path fill="#ffffff" d="M 27.6875 49.117188 L 35.851562 49.117188 L 36.597656 45.570312 L 41.390625 45.570312 L 42.003906 49.117188 L 50.457031 49.117188 L 44.273438 25.898438 L 33.90625 25.898438 Z M 37.40625 40.085938 L 39.054688 32.636719 L 39.125 32.636719 L 40.578125 40.085938 Z M 37.40625 40.085938 " fill-opacity="1" fill-rule="nonzero"/><path fill="#ffffff" d="M 70.273438 49.597656 C 72.085938 49.597656 74.324219 48.890625 75.683594 47.890625 L 74.710938 44.214844 C 74.351562 44.410156 73.996094 44.503906 73.640625 44.503906 C 73.285156 44.503906 72.929688 44.25 72.867188 43.605469 L 72.703125 42.3125 C 72.542969 41.023438 72.121094 40.023438 70.757812 39.605469 L 70.757812 39.570312 C 72.996094 38.761719 74.257812 36.667969 74.257812 33.734375 C 74.257812 28.703125 70.664062 25.898438 64.1875 25.898438 L 54.503906 25.898438 L 54.503906 49.117188 L 62.921875 49.117188 L 62.921875 41.378906 L 63.503906 41.378906 C 64.054688 41.378906 64.539062 41.796875 64.605469 42.3125 L 65.027344 45.082031 C 65.417969 47.730469 67.359375 49.597656 70.273438 49.597656 Z M 62.921875 36.214844 L 62.921875 31.703125 L 63.859375 31.703125 C 65.125 31.703125 65.839844 32.507812 65.839844 33.960938 C 65.839844 35.410156 65.125 36.214844 63.859375 36.214844 Z M 62.921875 36.214844 " fill-opacity="1" fill-rule="nonzero"/><path fill="#ffffff" d="M 84.261719 49.117188 L 92.679688 49.117188 L 92.679688 32.992188 L 97.535156 32.992188 L 97.535156 25.898438 L 79.402344 25.898438 L 79.402344 32.992188 L 84.261719 32.992188 Z M 84.261719 49.117188 " fill-opacity="1" fill-rule="nonzero"/><path fill="#ffffff" d="M 108.511719 49.117188 L 116.679688 49.117188 L 117.421875 45.570312 L 122.214844 45.570312 L 122.828125 49.117188 L 131.28125 49.117188 L 125.097656 25.898438 L 114.734375 25.898438 Z M 118.230469 40.085938 L 119.882812 32.636719 L 119.949219 32.636719 L 121.40625 40.085938 Z M 118.230469 40.085938 " fill-opacity="1" fill-rule="nonzero"/><path fill="#ffffff" d="M 140.472656 49.117188 L 151.488281 49.117188 L 157.609375 25.898438 L 148.894531 25.898438 L 146.011719 41.34375 L 145.949219 41.34375 L 143.066406 25.898438 L 134.355469 25.898438 Z M 140.472656 49.117188 " fill-opacity="1" fill-rule="nonzero"/><path fill="#ffffff" d="M 161.652344 49.117188 L 176.226562 49.117188 L 176.226562 42.667969 L 169.746094 42.667969 L 169.746094 40.085938 L 174.605469 40.085938 L 174.605469 34.601562 L 169.746094 34.601562 L 169.746094 32.347656 L 175.902344 32.347656 L 175.902344 25.898438 L 161.652344 25.898438 Z M 161.652344 49.117188 " fill-opacity="1" fill-rule="nonzero"/><path fill="#ffffff" d="M 180.753906 49.117188 L 188.203125 49.117188 L 188.203125 35.410156 L 188.269531 35.410156 L 194.683594 49.117188 L 204.398438 49.117188 L 204.398438 25.898438 L 196.949219 25.898438 L 196.949219 39.667969 L 196.882812 39.667969 L 190.472656 25.898438 L 180.753906 25.898438 Z M 180.753906 49.117188 " fill-opacity="1" fill-rule="nonzero"/><path fill="#ffffff" d="M 219.613281 49.761719 C 226.15625 49.761719 229.820312 46.699219 229.820312 41.21875 L 229.820312 25.898438 L 221.394531 25.898438 L 221.394531 40.25 C 221.394531 41.796875 220.75 42.667969 219.613281 42.667969 C 218.480469 42.667969 217.832031 41.796875 217.832031 40.25 L 217.832031 25.898438 L 209.414062 25.898438 L 209.414062 41.21875 C 209.414062 46.699219 213.074219 49.761719 219.613281 49.761719 Z M 219.613281 49.761719 " fill-opacity="1" fill-rule="nonzero"/><path fill="#ffffff" d="M 234.832031 49.117188 L 249.40625 49.117188 L 249.40625 42.667969 L 242.929688 42.667969 L 242.929688 40.085938 L 247.789062 40.085938 L 247.789062 34.601562 L 242.929688 34.601562 L 242.929688 32.347656 L 249.082031 32.347656 L 249.082031 25.898438 L 234.832031 25.898438 Z M 234.832031 49.117188 " fill-opacity="1" fill-rule="nonzero"/><path fill="#cb1e1e" d="M 29.609375 50.632812 L 37.773438 50.632812 L 38.515625 47.082031 L 43.308594 47.082031 L 43.925781 50.632812 L 52.382812 50.632812 L 46.195312 27.410156 L 35.832031 27.410156 Z M 39.328125 41.601562 L 40.980469 34.152344 L 41.046875 34.152344 L 42.503906 41.601562 Z M 39.328125 41.601562 " fill-opacity="1" fill-rule="nonzero"/><path fill="#cb1e1e" d="M 72.203125 51.113281 C 74.019531 51.113281 76.25 50.40625 77.609375 49.40625 L 76.636719 45.726562 C 76.28125 45.921875 75.925781 46.019531 75.570312 46.019531 C 75.214844 46.019531 74.859375 45.761719 74.792969 45.117188 L 74.628906 43.824219 C 74.46875 42.535156 74.046875 41.535156 72.691406 41.117188 L 72.691406 41.085938 C 74.921875 40.277344 76.1875 38.183594 76.1875 35.246094 C 76.1875 30.214844 72.589844 27.410156 66.113281 27.410156 L 56.425781 27.410156 L 56.425781 50.632812 L 64.851562 50.632812 L 64.851562 42.890625 L 65.433594 42.890625 C 65.984375 42.890625 66.46875 43.3125 66.535156 43.824219 L 66.957031 46.597656 C 67.34375 49.242188 69.289062 51.113281 72.203125 51.113281 Z M 64.851562 37.730469 L 64.851562 33.214844 L 65.789062 33.214844 C 67.050781 33.214844 67.765625 34.023438 67.765625 35.476562 C 67.765625 36.925781 67.050781 37.730469 65.789062 37.730469 Z M 64.851562 37.730469 " fill-opacity="1" fill-rule="nonzero"/><path fill="#cb1e1e" d="M 86.195312 50.632812 L 94.613281 50.632812 L 94.613281 34.507812 L 99.472656 34.507812 L 99.472656 27.410156 L 81.335938 27.410156 L 81.335938 34.507812 L 86.195312 34.507812 Z M 86.195312 50.632812 " fill-opacity="1" fill-rule="nonzero"/><path fill="#cb1e1e" d="M 110.453125 50.632812 L 118.613281 50.632812 L 119.359375 47.082031 L 124.152344 47.082031 L 124.769531 50.632812 L 133.226562 50.632812 L 127.039062 27.410156 L 116.671875 27.410156 Z M 120.171875 41.601562 L 121.824219 34.152344 L 121.886719 34.152344 L 123.34375 41.601562 Z M 120.171875 41.601562 " fill-opacity="1" fill-rule="nonzero"/><path fill="#cb1e1e" d="M 142.417969 50.632812 L 153.429688 50.632812 L 159.554688 27.410156 L 150.84375 27.410156 L 147.960938 42.855469 L 147.894531 42.855469 L 145.011719 27.410156 L 136.300781 27.410156 Z M 142.417969 50.632812 " fill-opacity="1" fill-rule="nonzero"/><path fill="#cb1e1e" d="M 163.601562 50.632812 L 178.175781 50.632812 L 178.175781 44.179688 L 171.699219 44.179688 L 171.699219 41.601562 L 176.558594 41.601562 L 176.558594 36.121094 L 171.699219 36.121094 L 171.699219 33.863281 L 177.851562 33.863281 L 177.851562 27.410156 L 163.601562 27.410156 Z M 163.601562 50.632812 " fill-opacity="1" fill-rule="nonzero"/><path fill="#cb1e1e" d="M 182.710938 50.632812 L 190.160156 50.632812 L 190.160156 36.925781 L 190.226562 36.925781 L 196.636719 50.632812 L 206.355469 50.632812 L 206.355469 27.410156 L 198.90625 27.410156 L 198.90625 41.183594 L 198.839844 41.183594 L 192.429688 27.410156 L 182.710938 27.410156 Z M 182.710938 50.632812 " fill-opacity="1" fill-rule="nonzero"/><path fill="#cb1e1e" d="M 221.578125 51.277344 C 228.121094 51.277344 231.777344 48.214844 231.777344 42.730469 L 231.777344 27.410156 L 223.359375 27.410156 L 223.359375 41.761719 C 223.359375 43.3125 222.714844 44.179688 221.578125 44.179688 C 220.441406 44.179688 219.796875 43.3125 219.796875 41.761719 L 219.796875 27.410156 L 211.375 27.410156 L 211.375 42.730469 C 211.375 48.214844 215.035156 51.277344 221.578125 51.277344 Z M 221.578125 51.277344 " fill-opacity="1" fill-rule="nonzero"/><path fill="#cb1e1e" d="M 236.800781 50.632812 L 251.375 50.632812 L 251.375 44.179688 L 244.898438 44.179688 L 244.898438 41.601562 L 249.757812 41.601562 L 249.757812 36.121094 L 244.898438 36.121094 L 244.898438 33.863281 L 251.050781 33.863281 L 251.050781 27.410156 L 236.800781 27.410156 Z M 236.800781 50.632812 " fill-opacity="1" fill-rule="nonzero"/><path stroke-linecap="butt" transform="matrix(0.809711, 0, 0, 0.806269, 18.272411, 19.836261)" fill="none" stroke-linejoin="miter" d="M 12.163204 37.997757 L 22.241063 37.997757 L 23.157671 33.593789 L 29.086674 33.593789 L 29.839258 37.997757 L 40.278936 37.997757 L 32.642147 9.204814 L 19.838586 9.204814 Z M 24.165939 26.801309 L 26.206597 17.56218 L 26.283785 17.56218 L 28.078406 26.801309 Z M 64.766831 38.598519 C 67.005283 38.598519 69.764755 37.716756 71.448418 36.476475 L 70.242355 31.917471 C 69.808173 32.159713 69.364342 32.27599 68.925335 32.27599 C 68.486328 32.27599 68.037673 31.965919 67.960485 31.161674 L 67.767515 29.562874 C 67.560072 27.959228 67.039053 26.718947 65.365038 26.200548 L 65.365038 26.166634 C 68.129334 25.158905 69.677918 22.557221 69.677918 18.918738 C 69.677918 12.678571 65.249256 9.204814 57.245825 9.204814 L 45.286508 9.204814 L 45.286508 37.997757 L 55.682767 37.997757 L 55.682767 28.404954 L 56.411229 28.404954 C 57.076976 28.404954 57.684831 28.918509 57.766844 29.562874 L 58.283038 32.997872 C 58.760639 36.282681 61.163116 38.598519 64.766831 38.598519 Z M 55.682767 22.004908 L 55.682767 16.399416 L 56.845412 16.399416 C 58.39882 16.399416 59.276834 17.4023 59.276834 19.199739 C 59.276834 20.997179 58.39882 22.004908 56.845412 22.004908 Z M 82.037648 37.997757 L 92.443556 37.997757 L 92.443556 17.998217 L 98.449748 17.998217 L 98.449748 9.204814 L 76.041104 9.204814 L 76.041104 17.998217 L 82.037648 17.998217 Z M 112.005892 37.997757 L 122.078927 37.997757 L 123.000359 33.593789 L 128.929363 33.593789 L 129.681946 37.997757 L 140.121624 37.997757 L 132.480011 9.204814 L 119.67645 9.204814 Z M 124.003803 26.801309 L 126.044461 17.56218 L 126.121649 17.56218 L 127.921094 26.801309 Z M 151.482734 37.997757 L 165.08712 37.997757 L 172.646721 9.204814 L 161.878993 9.204814 L 158.328345 28.361351 L 158.241509 28.361351 L 154.686036 9.204814 L 143.923133 9.204814 Z M 177.644644 37.997757 L 195.639098 37.997757 L 195.639098 30.003755 L 187.645315 30.003755 L 187.645315 26.801309 L 193.641859 26.801309 L 193.641859 19.99914 L 187.645315 19.99914 L 187.645315 17.198816 L 195.238686 17.198816 L 195.238686 9.204814 L 177.644644 9.204814 Z M 201.244877 37.997757 L 210.439899 37.997757 L 210.439899 20.997179 L 210.521911 20.997179 L 218.44333 37.997757 L 230.446066 37.997757 L 230.446066 9.204814 L 221.241396 9.204814 L 221.241396 26.28291 L 221.164208 26.28291 L 213.247613 9.204814 L 201.244877 9.204814 Z M 249.24617 38.797158 C 257.326789 38.797158 261.837464 35.00364 261.837464 28.191781 L 261.837464 9.204814 L 251.43638 9.204814 L 251.43638 27.004793 C 251.43638 28.918509 250.640378 30.003755 249.24617 30.003755 C 247.842313 30.003755 247.041487 28.918509 247.041487 27.004793 L 247.041487 9.204814 L 236.645228 9.204814 L 236.645228 28.191781 C 236.645228 35.00364 241.16555 38.797158 249.24617 38.797158 Z M 268.04145 37.997757 L 286.040728 37.997757 L 286.040728 30.003755 L 278.046945 30.003755 L 278.046945 26.801309 L 284.038664 26.801309 L 284.038664 19.99914 L 278.046945 19.99914 L 278.046945 17.198816 L 285.640315 17.198816 L 285.640315 9.204814 L 268.04145 9.204814 Z M 268.04145 37.997757 " stroke="#191516" stroke-width="1.5" stroke-opacity="1" stroke-miterlimit="4"/><g clip-path="url(#7c92b90225)"><g clip-path="url(#3e0d9ac4cf)"><g clip-path="url(#f61bbb59d4)"><path fill="#191516" d="M 19.054688 33.148438 L 24.851562 35.460938 L 22.53125 41.234375 L 16.734375 38.921875 Z M 19.054688 33.148438 " fill-opacity="1" fill-rule="nonzero"/></g></g></g><path stroke-linecap="butt" transform="matrix(0.22533, -0.560373, 0.544381, 0.217043, 19.087244, 39.858534)" fill="none" stroke-linejoin="miter" d="M 0.00281654 1.001016 L 10.653206 0.998416 " stroke="#ffffff" stroke-width="2" stroke-opacity="1" stroke-miterlimit="4"/><g clip-path="url(#3291fcd7b0)"><g clip-path="url(#6a3cd74a62)"><g clip-path="url(#a76cb1de7f)"><path fill="#191516" d="M 256.5 33.148438 L 262.300781 35.460938 L 259.976562 41.234375 L 254.179688 38.921875 Z M 256.5 33.148438 " fill-opacity="1" fill-rule="nonzero"/></g></g></g><path stroke-linecap="butt" transform="matrix(0.22533, -0.560373, 0.544381, 0.217043, 256.532717, 39.858534)" fill="none" stroke-linejoin="miter" d="M 0.000322887 0.994578 L 10.653108 0.998162 " stroke="#ffffff" stroke-width="2" stroke-opacity="1" stroke-miterlimit="4"/></svg>