<svg xmlns="http://www.w3.org/2000/svg" xmlns:xlink="http://www.w3.org/1999/xlink" width="420" zoomAndPan="magnify" viewBox="0 0 315 74.999997" height="100" preserveAspectRatio="xMidYMid meet" version="1.0"><defs><g/><clipPath id="9b7e73844f"><path d="M 0 0.8125 L 315 0.8125 L 315 75 L 0 75 Z M 0 0.8125 " clip-rule="nonzero"/></clipPath><clipPath id="96cac61787"><path d="M 6.75 0.8125 L 308.25 0.8125 C 310.039062 0.8125 311.757812 1.523438 313.023438 2.789062 C 314.289062 4.054688 315 5.773438 315 7.5625 L 315 67.4375 C 315 69.226562 314.289062 70.945312 313.023438 72.210938 C 311.757812 73.476562 310.039062 74.1875 308.25 74.1875 L 6.75 74.1875 C 4.960938 74.1875 3.242188 73.476562 1.976562 72.210938 C 0.710938 70.945312 0 69.226562 0 67.4375 L 0 7.5625 C 0 5.773438 0.710938 4.054688 1.976562 2.789062 C 3.242188 1.523438 4.960938 0.8125 6.75 0.8125 " clip-rule="nonzero"/></clipPath><clipPath id="1fcb3338b5"><path d="M 0.00390625 0.8125 L 315 0.8125 L 315 74.3125 L 0.00390625 74.3125 Z M 0.00390625 0.8125 " clip-rule="nonzero"/></clipPath><clipPath id="1c02c3e17f"><path d="M 6.753906 0.8125 L 308.246094 0.8125 C 310.035156 0.8125 311.753906 1.527344 313.019531 2.792969 C 314.285156 4.0625 314.996094 5.78125 314.996094 7.574219 L 314.996094 67.550781 C 314.996094 69.34375 314.285156 71.066406 313.019531 72.332031 C 311.753906 73.601562 310.035156 74.3125 308.246094 74.3125 L 6.753906 74.3125 C 4.964844 74.3125 3.246094 73.601562 1.980469 72.332031 C 0.714844 71.066406 0.00390625 69.34375 0.00390625 67.550781 L 0.00390625 7.574219 C 0.00390625 5.78125 0.714844 4.0625 1.980469 2.792969 C 3.246094 1.527344 4.964844 0.8125 6.753906 0.8125 " clip-rule="nonzero"/></clipPath><clipPath id="eb1485e2cf"><path d="M 7.582031 8.464844 L 307.574219 8.464844 L 307.574219 66.214844 L 7.582031 66.214844 Z M 7.582031 8.464844 " clip-rule="nonzero"/></clipPath><clipPath id="4f4ee18e9c"><path d="M 14 33 L 23 33 L 23 42 L 14 42 Z M 14 33 " clip-rule="nonzero"/></clipPath><clipPath id="b81b494ff1"><path d="M 16.597656 32.722656 L 23.417969 35.453125 L 20.6875 42.277344 L 13.867188 39.546875 Z M 16.597656 32.722656 " clip-rule="nonzero"/></clipPath><clipPath id="69e1e7f2b2"><path d="M 20.007812 34.089844 C 18.125 33.335938 15.984375 34.25 15.230469 36.132812 C 14.476562 38.019531 15.394531 40.15625 17.277344 40.910156 C 19.160156 41.664062 21.296875 40.75 22.054688 38.867188 C 22.808594 36.980469 21.890625 34.84375 20.007812 34.089844 " clip-rule="nonzero"/></clipPath><clipPath id="3ce6c85689"><path d="M 294.453125 33.949219 L 301.679688 33.949219 L 301.679688 41.179688 L 294.453125 41.179688 Z M 294.453125 33.949219 " clip-rule="nonzero"/></clipPath><clipPath id="f541c11f97"><path d="M 298.066406 33.949219 C 296.070312 33.949219 294.453125 35.566406 294.453125 37.5625 C 294.453125 39.558594 296.070312 41.179688 298.066406 41.179688 C 300.0625 41.179688 301.679688 39.558594 301.679688 37.5625 C 301.679688 35.566406 300.0625 33.949219 298.066406 33.949219 " clip-rule="nonzero"/></clipPath></defs><g clip-path="url(#9b7e73844f)"><g clip-path="url(#96cac61787)"><path fill="#ffffff" d="M 0 0.8125 L 314.34375 0.8125 L 314.34375 75.152344 L 0 75.152344 Z M 0 0.8125 " fill-opacity="1" fill-rule="nonzero"/></g></g><g clip-path="url(#1fcb3338b5)"><g clip-path="url(#1c02c3e17f)"><path stroke-linecap="butt" transform="matrix(0.75, -0.000000000000000001, 0.000000000000000001, 0.751318, 0.00418718, 0.813481)" fill="none" stroke-linejoin="miter" d="M 8.999626 -0.00130596 L 410.989242 -0.00130596 C 413.374659 -0.00130596 415.666326 0.950147 417.353826 2.634688 C 419.041326 4.324428 419.989243 6.612075 419.989243 8.998507 L 419.989243 88.827009 C 419.989243 91.213441 419.041326 93.506288 417.353826 95.190828 C 415.666326 96.880568 413.374659 97.826822 410.989242 97.826822 L 8.999626 97.826822 C 6.614209 97.826822 4.322542 96.880568 2.635042 95.190828 C 0.947542 93.506288 -0.000374574 91.213441 -0.000374574 88.827009 L -0.000374574 8.998507 C -0.000374574 6.612075 0.947542 4.324428 2.635042 2.634688 C 4.322542 0.950147 6.614209 -0.00130596 8.999626 -0.00130596 " stroke="#bb1d1d" stroke-width="14" stroke-opacity="1" stroke-miterlimit="4"/></g></g><g clip-path="url(#eb1485e2cf)"><path stroke-linecap="butt" transform="matrix(0.75041, 0, 0, 0.745913, 7.580576, 8.465401)" fill="none" stroke-linejoin="miter" d="M 0.00193884 -0.000747002 L 399.772839 -0.000747002 L 399.772839 77.421135 L 0.00193884 77.421135 L 0.00193884 -0.000747002 " stroke="#490505" stroke-width="6" stroke-opacity="1" stroke-miterlimit="4"/></g><g fill="#191516" fill-opacity="0.349"><g transform="translate(23.916045, 53.330506)"><g><path d="M -0.0390625 0 L 9.566406 0 L 10.441406 -4.191406 L 16.082031 -4.191406 L 16.804688 0 L 26.75 0 L 19.472656 -27.4375 L 7.277344 -27.4375 Z M 11.394531 -10.671875 L 13.335938 -19.472656 L 13.414062 -19.472656 L 15.128906 -10.671875 Z M 11.394531 -10.671875 "/></g></g></g><g fill="#191516" fill-opacity="0.349"><g transform="translate(54.282652, 53.330506)"><g><path d="M 19.703125 0.570312 C 21.835938 0.570312 24.464844 -0.265625 26.066406 -1.449219 L 24.921875 -5.792969 C 24.503906 -5.5625 24.085938 -5.449219 23.664062 -5.449219 C 23.246094 -5.449219 22.828125 -5.753906 22.75 -6.515625 L 22.558594 -8.039062 C 22.371094 -9.566406 21.875 -10.746094 20.273438 -11.242188 L 20.273438 -11.28125 C 22.902344 -12.234375 24.390625 -14.710938 24.390625 -18.175781 C 24.390625 -24.121094 20.160156 -27.4375 12.539062 -27.4375 L 1.144531 -27.4375 L 1.144531 0 L 11.050781 0 L 11.050781 -9.144531 L 11.738281 -9.144531 C 12.386719 -9.144531 12.957031 -8.652344 13.03125 -8.039062 L 13.527344 -4.761719 C 13.984375 -1.636719 16.273438 0.570312 19.703125 0.570312 Z M 11.050781 -15.242188 L 11.050781 -20.578125 L 12.15625 -20.578125 C 13.644531 -20.578125 14.480469 -19.625 14.480469 -17.910156 C 14.480469 -16.195312 13.644531 -15.242188 12.15625 -15.242188 Z M 11.050781 -15.242188 "/></g></g></g><g fill="#191516" fill-opacity="0.349"><g transform="translate(83.963465, 53.330506)"><g><path d="M 6.476562 0 L 16.386719 0 L 16.386719 -19.054688 L 22.101562 -19.054688 L 22.101562 -27.4375 L 0.761719 -27.4375 L 0.761719 -19.054688 L 6.476562 -19.054688 Z M 6.476562 0 "/></g></g></g><g fill="#191516" fill-opacity="0.349"><g transform="translate(110.443887, 53.330506)"><g/></g></g><g fill="#191516" fill-opacity="0.349"><g transform="translate(119.017319, 53.330506)"><g><path d="M -0.0390625 0 L 9.566406 0 L 10.441406 -4.191406 L 16.082031 -4.191406 L 16.804688 0 L 26.75 0 L 19.472656 -27.4375 L 7.277344 -27.4375 Z M 11.394531 -10.671875 L 13.335938 -19.472656 L 13.414062 -19.472656 L 15.128906 -10.671875 Z M 11.394531 -10.671875 "/></g></g></g><g fill="#191516" fill-opacity="0.349"><g transform="translate(149.383923, 53.330506)"><g><path d="M 7.203125 0 L 20.160156 0 L 27.363281 -27.4375 L 17.109375 -27.4375 L 13.71875 -9.183594 L 13.644531 -9.183594 L 10.25 -27.4375 L 0 -27.4375 Z M 7.203125 0 "/></g></g></g><g fill="#191516" fill-opacity="0.349"><g transform="translate(180.360126, 53.330506)"><g><path d="M 1.144531 0 L 18.292969 0 L 18.292969 -7.621094 L 10.671875 -7.621094 L 10.671875 -10.671875 L 16.386719 -10.671875 L 16.386719 -17.148438 L 10.671875 -17.148438 L 10.671875 -19.816406 L 17.910156 -19.816406 L 17.910156 -27.4375 L 1.144531 -27.4375 Z M 1.144531 0 "/></g></g></g><g fill="#191516" fill-opacity="0.349"><g transform="translate(202.840039, 53.330506)"><g><path d="M 1.144531 0 L 9.90625 0 L 9.90625 -16.195312 L 9.984375 -16.195312 L 17.53125 0 L 28.960938 0 L 28.960938 -27.4375 L 20.195312 -27.4375 L 20.195312 -11.164062 L 20.121094 -11.164062 L 12.574219 -27.4375 L 1.144531 -27.4375 Z M 1.144531 0 "/></g></g></g><g fill="#191516" fill-opacity="0.349"><g transform="translate(236.559445, 53.330506)"><g><path d="M 13.148438 0.761719 C 20.84375 0.761719 25.152344 -2.859375 25.152344 -9.335938 L 25.152344 -27.4375 L 15.242188 -27.4375 L 15.242188 -10.480469 C 15.242188 -8.652344 14.480469 -7.621094 13.148438 -7.621094 C 11.8125 -7.621094 11.050781 -8.652344 11.050781 -10.480469 L 11.050781 -27.4375 L 1.144531 -27.4375 L 1.144531 -9.335938 C 1.144531 -2.859375 5.449219 0.761719 13.148438 0.761719 Z M 13.148438 0.761719 "/></g></g></g><g fill="#191516" fill-opacity="0.349"><g transform="translate(266.468868, 53.330506)"><g><path d="M 1.144531 0 L 18.292969 0 L 18.292969 -7.621094 L 10.671875 -7.621094 L 10.671875 -10.671875 L 16.386719 -10.671875 L 16.386719 -17.148438 L 10.671875 -17.148438 L 10.671875 -19.816406 L 17.910156 -19.816406 L 17.910156 -27.4375 L 1.144531 -27.4375 Z M 1.144531 0 "/></g></g></g><g fill="#ffffff" fill-opacity="1"><g transform="translate(26.795019, 50.349241)"><g><path d="M -0.0390625 0 L 9.566406 0 L 10.441406 -4.191406 L 16.082031 -4.191406 L 16.804688 0 L 26.75 0 L 19.472656 -27.4375 L 7.277344 -27.4375 Z M 11.394531 -10.671875 L 13.335938 -19.472656 L 13.414062 -19.472656 L 15.128906 -10.671875 Z M 11.394531 -10.671875 "/></g></g></g><g fill="#ffffff" fill-opacity="1"><g transform="translate(57.161625, 50.349241)"><g><path d="M 19.703125 0.570312 C 21.835938 0.570312 24.464844 -0.265625 26.066406 -1.449219 L 24.921875 -5.792969 C 24.503906 -5.5625 24.085938 -5.449219 23.664062 -5.449219 C 23.246094 -5.449219 22.828125 -5.753906 22.75 -6.515625 L 22.558594 -8.039062 C 22.371094 -9.566406 21.875 -10.746094 20.273438 -11.242188 L 20.273438 -11.28125 C 22.902344 -12.234375 24.390625 -14.710938 24.390625 -18.175781 C 24.390625 -24.121094 20.160156 -27.4375 12.539062 -27.4375 L 1.144531 -27.4375 L 1.144531 0 L 11.050781 0 L 11.050781 -9.144531 L 11.738281 -9.144531 C 12.386719 -9.144531 12.957031 -8.652344 13.03125 -8.039062 L 13.527344 -4.761719 C 13.984375 -1.636719 16.273438 0.570312 19.703125 0.570312 Z M 11.050781 -15.242188 L 11.050781 -20.578125 L 12.15625 -20.578125 C 13.644531 -20.578125 14.480469 -19.625 14.480469 -17.910156 C 14.480469 -16.195312 13.644531 -15.242188 12.15625 -15.242188 Z M 11.050781 -15.242188 "/></g></g></g><g fill="#ffffff" fill-opacity="1"><g transform="translate(86.842439, 50.349241)"><g><path d="M 6.476562 0 L 16.386719 0 L 16.386719 -19.054688 L 22.101562 -19.054688 L 22.101562 -27.4375 L 0.761719 -27.4375 L 0.761719 -19.054688 L 6.476562 -19.054688 Z M 6.476562 0 "/></g></g></g><g fill="#ffffff" fill-opacity="1"><g transform="translate(113.322861, 50.349241)"><g/></g></g><g fill="#ffffff" fill-opacity="1"><g transform="translate(121.896292, 50.349241)"><g><path d="M -0.0390625 0 L 9.566406 0 L 10.441406 -4.191406 L 16.082031 -4.191406 L 16.804688 0 L 26.75 0 L 19.472656 -27.4375 L 7.277344 -27.4375 Z M 11.394531 -10.671875 L 13.335938 -19.472656 L 13.414062 -19.472656 L 15.128906 -10.671875 Z M 11.394531 -10.671875 "/></g></g></g><g fill="#ffffff" fill-opacity="1"><g transform="translate(152.262896, 50.349241)"><g><path d="M 7.203125 0 L 20.160156 0 L 27.363281 -27.4375 L 17.109375 -27.4375 L 13.71875 -9.183594 L 13.644531 -9.183594 L 10.25 -27.4375 L 0 -27.4375 Z M 7.203125 0 "/></g></g></g><g fill="#ffffff" fill-opacity="1"><g transform="translate(183.2391, 50.349241)"><g><path d="M 1.144531 0 L 18.292969 0 L 18.292969 -7.621094 L 10.671875 -7.621094 L 10.671875 -10.671875 L 16.386719 -10.671875 L 16.386719 -17.148438 L 10.671875 -17.148438 L 10.671875 -19.816406 L 17.910156 -19.816406 L 17.910156 -27.4375 L 1.144531 -27.4375 Z M 1.144531 0 "/></g></g></g><g fill="#ffffff" fill-opacity="1"><g transform="translate(205.719013, 50.349241)"><g><path d="M 1.144531 0 L 9.90625 0 L 9.90625 -16.195312 L 9.984375 -16.195312 L 17.53125 0 L 28.960938 0 L 28.960938 -27.4375 L 20.195312 -27.4375 L 20.195312 -11.164062 L 20.121094 -11.164062 L 12.574219 -27.4375 L 1.144531 -27.4375 Z M 1.144531 0 "/></g></g></g><g fill="#ffffff" fill-opacity="1"><g transform="translate(239.438419, 50.349241)"><g><path d="M 13.148438 0.761719 C 20.84375 0.761719 25.152344 -2.859375 25.152344 -9.335938 L 25.152344 -27.4375 L 15.242188 -27.4375 L 15.242188 -10.480469 C 15.242188 -8.652344 14.480469 -7.621094 13.148438 -7.621094 C 11.8125 -7.621094 11.050781 -8.652344 11.050781 -10.480469 L 11.050781 -27.4375 L 1.144531 -27.4375 L 1.144531 -9.335938 C 1.144531 -2.859375 5.449219 0.761719 13.148438 0.761719 Z M 13.148438 0.761719 "/></g></g></g><g fill="#ffffff" fill-opacity="1"><g transform="translate(269.347842, 50.349241)"><g><path d="M 1.144531 0 L 18.292969 0 L 18.292969 -7.621094 L 10.671875 -7.621094 L 10.671875 -10.671875 L 16.386719 -10.671875 L 16.386719 -17.148438 L 10.671875 -17.148438 L 10.671875 -19.816406 L 17.910156 -19.816406 L 17.910156 -27.4375 L 1.144531 -27.4375 Z M 1.144531 0 "/></g></g></g><g fill="#bb1d1d" fill-opacity="1"><g transform="translate(28.509391, 50.633637)"><g><path d="M -0.0390625 0 L 9.566406 0 L 10.441406 -4.191406 L 16.082031 -4.191406 L 16.804688 0 L 26.753906 0 L 19.472656 -27.4375 L 7.277344 -27.4375 Z M 11.394531 -10.671875 L 13.339844 -19.472656 L 13.414062 -19.472656 L 15.128906 -10.671875 Z M 11.394531 -10.671875 "/></g></g></g><g fill="#bb1d1d" fill-opacity="1"><g transform="translate(58.8829, 50.633637)"><g><path d="M 19.703125 0.570312 C 21.835938 0.570312 24.464844 -0.265625 26.066406 -1.449219 L 24.925781 -5.792969 C 24.503906 -5.5625 24.085938 -5.449219 23.667969 -5.449219 C 23.246094 -5.449219 22.828125 -5.753906 22.75 -6.515625 L 22.5625 -8.042969 C 22.371094 -9.566406 21.875 -10.746094 20.273438 -11.242188 L 20.273438 -11.28125 C 22.902344 -12.234375 24.390625 -14.710938 24.390625 -18.179688 C 24.390625 -24.125 20.160156 -27.4375 12.539062 -27.4375 L 1.144531 -27.4375 L 1.144531 0 L 11.050781 0 L 11.050781 -9.144531 L 11.738281 -9.144531 C 12.386719 -9.144531 12.957031 -8.652344 13.035156 -8.042969 L 13.527344 -4.765625 C 13.984375 -1.640625 16.273438 0.570312 19.703125 0.570312 Z M 11.050781 -15.242188 L 11.050781 -20.578125 L 12.15625 -20.578125 C 13.644531 -20.578125 14.480469 -19.625 14.480469 -17.910156 C 14.480469 -16.195312 13.644531 -15.242188 12.15625 -15.242188 Z M 11.050781 -15.242188 "/></g></g></g><g fill="#bb1d1d" fill-opacity="1"><g transform="translate(88.570429, 50.633637)"><g><path d="M 6.480469 0 L 16.386719 0 L 16.386719 -19.054688 L 22.105469 -19.054688 L 22.105469 -27.4375 L 0.761719 -27.4375 L 0.761719 -19.054688 L 6.480469 -19.054688 Z M 6.480469 0 "/></g></g></g><g fill="#bb1d1d" fill-opacity="1"><g transform="translate(115.056744, 50.633637)"><g/></g></g><g fill="#bb1d1d" fill-opacity="1"><g transform="translate(123.631456, 50.633637)"><g><path d="M -0.0390625 0 L 9.566406 0 L 10.441406 -4.191406 L 16.082031 -4.191406 L 16.804688 0 L 26.753906 0 L 19.472656 -27.4375 L 7.277344 -27.4375 Z M 11.394531 -10.671875 L 13.339844 -19.472656 L 13.414062 -19.472656 L 15.128906 -10.671875 Z M 11.394531 -10.671875 "/></g></g></g><g fill="#bb1d1d" fill-opacity="1"><g transform="translate(154.004967, 50.633637)"><g><path d="M 7.203125 0 L 20.160156 0 L 27.363281 -27.4375 L 17.109375 -27.4375 L 13.71875 -9.183594 L 13.644531 -9.183594 L 10.25 -27.4375 L 0 -27.4375 Z M 7.203125 0 "/></g></g></g><g fill="#bb1d1d" fill-opacity="1"><g transform="translate(184.988236, 50.633637)"><g><path d="M 1.144531 0 L 18.292969 0 L 18.292969 -7.621094 L 10.671875 -7.621094 L 10.671875 -10.671875 L 16.386719 -10.671875 L 16.386719 -17.148438 L 10.671875 -17.148438 L 10.671875 -19.816406 L 17.910156 -19.816406 L 17.910156 -27.4375 L 1.144531 -27.4375 Z M 1.144531 0 "/></g></g></g><g fill="#bb1d1d" fill-opacity="1"><g transform="translate(207.473028, 50.633637)"><g><path d="M 1.144531 0 L 9.910156 0 L 9.910156 -16.195312 L 9.984375 -16.195312 L 17.53125 0 L 28.964844 0 L 28.964844 -27.4375 L 20.199219 -27.4375 L 20.199219 -11.167969 L 20.121094 -11.167969 L 12.578125 -27.4375 L 1.144531 -27.4375 Z M 1.144531 0 "/></g></g></g><g fill="#bb1d1d" fill-opacity="1"><g transform="translate(241.20021, 50.633637)"><g><path d="M 13.148438 0.761719 C 20.847656 0.761719 25.152344 -2.859375 25.152344 -9.335938 L 25.152344 -27.4375 L 15.242188 -27.4375 L 15.242188 -10.480469 C 15.242188 -8.652344 14.480469 -7.621094 13.148438 -7.621094 C 11.8125 -7.621094 11.050781 -8.652344 11.050781 -10.480469 L 11.050781 -27.4375 L 1.144531 -27.4375 L 1.144531 -9.335938 C 1.144531 -2.859375 5.449219 0.761719 13.148438 0.761719 Z M 13.148438 0.761719 "/></g></g></g><g fill="#bb1d1d" fill-opacity="1"><g transform="translate(271.116408, 50.633637)"><g><path d="M 1.144531 0 L 18.292969 0 L 18.292969 -7.621094 L 10.671875 -7.621094 L 10.671875 -10.671875 L 16.386719 -10.671875 L 16.386719 -17.148438 L 10.671875 -17.148438 L 10.671875 -19.816406 L 17.910156 -19.816406 L 17.910156 -27.4375 L 1.144531 -27.4375 Z M 1.144531 0 "/></g></g></g><path stroke-linecap="butt" transform="matrix(0.952746, -0.000000000000000002, 0.000000000000000002, 0.952746, 15.129992, 14.245057)" fill="none" stroke-linejoin="miter" d="M 12.163536 37.999813 L 22.241316 37.999813 L 23.159715 33.596421 L 29.088303 33.596421 L 29.838601 37.999813 L 40.28128 37.999813 L 32.642996 9.20147 L 19.838721 9.20147 Z M 24.164213 26.798635 L 26.206008 17.561353 L 26.283908 17.561353 L 28.083805 26.798635 Z M 64.766432 38.594312 C 67.005027 38.594312 69.768422 37.716913 71.445318 36.474616 L 70.244021 31.915425 C 69.805322 32.161424 69.366622 32.276224 68.927923 32.276224 C 68.489224 32.276224 68.038225 31.964625 67.960325 31.165126 L 67.763526 29.56203 C 67.558526 27.958933 67.041927 26.720735 65.36093 26.204136 L 65.36093 26.163136 C 68.124325 25.158638 69.678222 22.559243 69.678222 18.918451 C 69.678222 12.678263 65.246131 9.20147 57.247047 9.20147 L 45.28327 9.20147 L 45.28327 37.999813 L 55.68495 37.999813 L 55.68495 28.401732 L 56.406548 28.401732 C 57.083047 28.401732 57.685746 28.918331 57.763646 29.56203 L 58.284344 33.001923 C 58.759944 36.281916 61.162539 38.594312 64.766432 38.594312 Z M 55.68495 22.005745 L 55.68495 16.396956 L 56.845247 16.396956 C 58.399144 16.396956 59.276543 17.405554 59.276543 19.20135 C 59.276543 20.997147 58.399144 22.005745 56.845247 22.005745 Z M 82.039697 37.999813 L 92.441376 37.999813 L 92.441376 18.000053 L 98.447864 18.000053 L 98.447864 9.20147 L 76.045509 9.20147 L 76.045509 18.000053 L 82.039697 18.000053 Z M 112.002437 37.999813 L 122.080217 37.999813 L 122.998615 33.596421 L 128.927204 33.596421 L 129.681602 37.999813 L 140.120181 37.999813 L 132.481897 9.20147 L 119.681722 9.20147 Z M 124.007213 26.798635 L 126.044909 17.561353 L 126.126909 17.561353 L 127.922706 26.798635 Z M 151.481259 37.999813 L 165.085032 37.999813 L 172.645416 9.20147 L 161.882938 9.20147 L 158.328245 28.360732 L 158.238045 28.360732 L 154.683352 9.20147 L 143.924974 9.20147 Z M 177.643306 37.999813 L 195.642271 37.999813 L 195.642271 30.000729 L 187.643187 30.000729 L 187.643187 26.798635 L 193.641475 26.798635 L 193.641475 20.000849 L 187.643187 20.000849 L 187.643187 17.200554 L 195.240471 17.200554 L 195.240471 9.20147 L 177.643306 9.20147 Z M 201.242859 37.999813 L 210.443241 37.999813 L 210.443241 20.997147 L 210.521141 20.997147 L 218.442325 37.999813 L 230.443001 37.999813 L 230.443001 9.20147 L 221.24262 9.20147 L 221.24262 26.282036 L 221.16472 26.282036 L 213.247635 9.20147 L 201.242859 9.20147 Z M 249.241464 38.799311 C 257.326648 38.799311 261.840739 35.002719 261.840739 28.196732 L 261.840739 9.20147 L 251.439059 9.20147 L 251.439059 27.003635 C 251.439059 28.918331 250.639561 30.000729 249.241464 30.000729 C 247.843367 30.000729 247.043868 28.918331 247.043868 27.003635 L 247.043868 9.20147 L 236.642189 9.20147 L 236.642189 28.196732 C 236.642189 35.002719 241.16448 38.799311 249.241464 38.799311 Z M 268.044026 37.999813 L 286.04299 37.999813 L 286.04299 30.000729 L 278.043906 30.000729 L 278.043906 26.798635 L 284.042194 26.798635 L 284.042194 20.000849 L 278.043906 20.000849 L 278.043906 17.200554 L 285.641191 17.200554 L 285.641191 9.20147 L 268.044026 9.20147 Z M 268.044026 37.999813 " stroke="#490505" stroke-width="1.5" stroke-opacity="1" stroke-miterlimit="4"/><g clip-path="url(#4f4ee18e9c)"><g clip-path="url(#b81b494ff1)"><g clip-path="url(#69e1e7f2b2)"><path fill="#490505" d="M 16.597656 32.722656 L 23.417969 35.453125 L 20.6875 42.277344 L 13.867188 39.546875 Z M 16.597656 32.722656 " fill-opacity="1" fill-rule="nonzero"/></g></g></g><path stroke-linecap="butt" transform="matrix(0.284561, -0.710698, 0.696262, 0.278781, 16.928576, 40.7712)" fill="none" stroke-linejoin="miter" d="M 0.000836534 0.500573 L 9.796278 0.502953 " stroke="#ffffff" stroke-width="1" stroke-opacity="1" stroke-miterlimit="4"/><g clip-path="url(#3ce6c85689)"><g clip-path="url(#f541c11f97)"><path fill="#490505" d="M 294.453125 33.949219 L 301.679688 33.949219 L 301.679688 41.179688 L 294.453125 41.179688 Z M 294.453125 33.949219 " fill-opacity="1" fill-rule="nonzero"/></g></g><path stroke-linecap="butt" transform="matrix(0.763543, -0.055401, 0.0542756, 0.748033, 294.374689, 37.263731)" fill="none" stroke-linejoin="miter" d="M 0.000770166 0.498681 L 9.797841 0.498412 " stroke="#ffffff" stroke-width="1" stroke-opacity="1" stroke-miterlimit="4"/></svg>