<svg xmlns="http://www.w3.org/2000/svg" xmlns:xlink="http://www.w3.org/1999/xlink" width="371" zoomAndPan="magnify" viewBox="0 0 278.25 44.999999" height="60" preserveAspectRatio="xMidYMid meet" version="1.0"><defs><g/><clipPath id="22b54002a4"><path d="M 0 0.0585938 L 277.503906 0.0585938 L 277.503906 44.9375 L 0 44.9375 Z M 0 0.0585938 " clip-rule="nonzero"/></clipPath></defs><g fill="#191516" fill-opacity="0.349"><g transform="translate(1.5189, 38.16143)"><g><path d="M -0.0390625 0 L 9.828125 0 L 10.726562 -4.304688 L 16.519531 -4.304688 L 17.265625 0 L 27.480469 0 L 20.003906 -28.1875 L 7.476562 -28.1875 Z M 11.707031 -10.960938 L 13.703125 -20.003906 L 13.78125 -20.003906 L 15.542969 -10.960938 Z M 11.707031 -10.960938 "/></g></g></g><g fill="#191516" fill-opacity="0.349"><g transform="translate(32.714812, 38.16143)"><g><path d="M 20.238281 0.585938 C 22.433594 0.585938 25.132812 -0.273438 26.777344 -1.488281 L 25.601562 -5.949219 C 25.171875 -5.714844 24.742188 -5.597656 24.3125 -5.597656 C 23.878906 -5.597656 23.449219 -5.910156 23.371094 -6.695312 L 23.175781 -8.261719 C 22.980469 -9.828125 22.472656 -11.039062 20.828125 -11.546875 L 20.828125 -11.589844 C 23.527344 -12.566406 25.054688 -15.109375 25.054688 -18.671875 C 25.054688 -24.78125 20.710938 -28.1875 12.878906 -28.1875 L 1.175781 -28.1875 L 1.175781 0 L 11.351562 0 L 11.351562 -9.394531 L 12.058594 -9.394531 C 12.722656 -9.394531 13.308594 -8.886719 13.390625 -8.261719 L 13.898438 -4.894531 C 14.367188 -1.683594 16.714844 0.585938 20.238281 0.585938 Z M 11.351562 -15.660156 L 11.351562 -21.140625 L 12.488281 -21.140625 C 14.015625 -21.140625 14.875 -20.160156 14.875 -18.398438 C 14.875 -16.636719 14.015625 -15.660156 12.488281 -15.660156 Z M 11.351562 -15.660156 "/></g></g></g><g fill="#191516" fill-opacity="0.349"><g transform="translate(63.206203, 38.16143)"><g><path d="M 6.65625 0 L 16.832031 0 L 16.832031 -19.574219 L 22.707031 -19.574219 L 22.707031 -28.1875 L 0.78125 -28.1875 L 0.78125 -19.574219 L 6.65625 -19.574219 Z M 6.65625 0 "/></g></g></g><g fill="#191516" fill-opacity="0.349"><g transform="translate(90.4098, 38.16143)"><g/></g></g><g fill="#191516" fill-opacity="0.349"><g transform="translate(99.21737, 38.16143)"><g><path d="M -0.0390625 0 L 9.828125 0 L 10.726562 -4.304688 L 16.519531 -4.304688 L 17.265625 0 L 27.480469 0 L 20.003906 -28.1875 L 7.476562 -28.1875 Z M 11.707031 -10.960938 L 13.703125 -20.003906 L 13.78125 -20.003906 L 15.542969 -10.960938 Z M 11.707031 -10.960938 "/></g></g></g><g fill="#191516" fill-opacity="0.349"><g transform="translate(130.41328, 38.16143)"><g><path d="M 7.398438 0 L 20.710938 0 L 28.109375 -28.1875 L 17.578125 -28.1875 L 14.09375 -9.433594 L 14.015625 -9.433594 L 10.53125 -28.1875 L 0 -28.1875 Z M 7.398438 0 "/></g></g></g><g fill="#191516" fill-opacity="0.349"><g transform="translate(162.235438, 38.16143)"><g><path d="M 1.175781 0 L 18.792969 0 L 18.792969 -7.828125 L 10.960938 -7.828125 L 10.960938 -10.960938 L 16.832031 -10.960938 L 16.832031 -17.617188 L 10.960938 -17.617188 L 10.960938 -20.355469 L 18.398438 -20.355469 L 18.398438 -28.1875 L 1.175781 -28.1875 Z M 1.175781 0 "/></g></g></g><g fill="#191516" fill-opacity="0.349"><g transform="translate(185.329272, 38.16143)"><g><path d="M 1.175781 0 L 10.179688 0 L 10.179688 -16.636719 L 10.257812 -16.636719 L 18.007812 0 L 29.753906 0 L 29.753906 -28.1875 L 20.75 -28.1875 L 20.75 -11.46875 L 20.671875 -11.46875 L 12.917969 -28.1875 L 1.175781 -28.1875 Z M 1.175781 0 "/></g></g></g><g fill="#191516" fill-opacity="0.349"><g transform="translate(219.969549, 38.16143)"><g><path d="M 13.507812 0.78125 C 21.414062 0.78125 25.839844 -2.9375 25.839844 -9.589844 L 25.839844 -28.1875 L 15.660156 -28.1875 L 15.660156 -10.765625 C 15.660156 -8.886719 14.875 -7.828125 13.507812 -7.828125 C 12.136719 -7.828125 11.351562 -8.886719 11.351562 -10.765625 L 11.351562 -28.1875 L 1.175781 -28.1875 L 1.175781 -9.589844 C 1.175781 -2.9375 5.597656 0.78125 13.507812 0.78125 Z M 13.507812 0.78125 "/></g></g></g><g fill="#191516" fill-opacity="0.349"><g transform="translate(250.695792, 38.16143)"><g><path d="M 1.175781 0 L 18.792969 0 L 18.792969 -7.828125 L 10.960938 -7.828125 L 10.960938 -10.960938 L 16.832031 -10.960938 L 16.832031 -17.617188 L 10.960938 -17.617188 L 10.960938 -20.355469 L 18.398438 -20.355469 L 18.398438 -28.1875 L 1.175781 -28.1875 Z M 1.175781 0 "/></g></g></g><g fill="#ffffff" fill-opacity="1"><g transform="translate(4.476497, 35.098749)"><g><path d="M -0.0390625 0 L 9.828125 0 L 10.726562 -4.304688 L 16.519531 -4.304688 L 17.265625 0 L 27.480469 0 L 20.003906 -28.1875 L 7.476562 -28.1875 Z M 11.707031 -10.960938 L 13.703125 -20.003906 L 13.78125 -20.003906 L 15.542969 -10.960938 Z M 11.707031 -10.960938 "/></g></g></g><g fill="#ffffff" fill-opacity="1"><g transform="translate(35.672409, 35.098749)"><g><path d="M 20.238281 0.585938 C 22.433594 0.585938 25.132812 -0.273438 26.777344 -1.488281 L 25.601562 -5.949219 C 25.171875 -5.714844 24.742188 -5.597656 24.3125 -5.597656 C 23.878906 -5.597656 23.449219 -5.910156 23.371094 -6.695312 L 23.175781 -8.261719 C 22.980469 -9.828125 22.472656 -11.039062 20.828125 -11.546875 L 20.828125 -11.589844 C 23.527344 -12.566406 25.054688 -15.109375 25.054688 -18.671875 C 25.054688 -24.78125 20.710938 -28.1875 12.878906 -28.1875 L 1.175781 -28.1875 L 1.175781 0 L 11.351562 0 L 11.351562 -9.394531 L 12.058594 -9.394531 C 12.722656 -9.394531 13.308594 -8.886719 13.390625 -8.261719 L 13.898438 -4.894531 C 14.367188 -1.683594 16.714844 0.585938 20.238281 0.585938 Z M 11.351562 -15.660156 L 11.351562 -21.140625 L 12.488281 -21.140625 C 14.015625 -21.140625 14.875 -20.160156 14.875 -18.398438 C 14.875 -16.636719 14.015625 -15.660156 12.488281 -15.660156 Z M 11.351562 -15.660156 "/></g></g></g><g fill="#ffffff" fill-opacity="1"><g transform="translate(66.1638, 35.098749)"><g><path d="M 6.65625 0 L 16.832031 0 L 16.832031 -19.574219 L 22.707031 -19.574219 L 22.707031 -28.1875 L 0.78125 -28.1875 L 0.78125 -19.574219 L 6.65625 -19.574219 Z M 6.65625 0 "/></g></g></g><g fill="#ffffff" fill-opacity="1"><g transform="translate(93.367397, 35.098749)"><g/></g></g><g fill="#ffffff" fill-opacity="1"><g transform="translate(102.174967, 35.098749)"><g><path d="M -0.0390625 0 L 9.828125 0 L 10.726562 -4.304688 L 16.519531 -4.304688 L 17.265625 0 L 27.480469 0 L 20.003906 -28.1875 L 7.476562 -28.1875 Z M 11.707031 -10.960938 L 13.703125 -20.003906 L 13.78125 -20.003906 L 15.542969 -10.960938 Z M 11.707031 -10.960938 "/></g></g></g><g fill="#ffffff" fill-opacity="1"><g transform="translate(133.370877, 35.098749)"><g><path d="M 7.398438 0 L 20.710938 0 L 28.109375 -28.1875 L 17.578125 -28.1875 L 14.09375 -9.433594 L 14.015625 -9.433594 L 10.53125 -28.1875 L 0 -28.1875 Z M 7.398438 0 "/></g></g></g><g fill="#ffffff" fill-opacity="1"><g transform="translate(165.193035, 35.098749)"><g><path d="M 1.175781 0 L 18.792969 0 L 18.792969 -7.828125 L 10.960938 -7.828125 L 10.960938 -10.960938 L 16.832031 -10.960938 L 16.832031 -17.617188 L 10.960938 -17.617188 L 10.960938 -20.355469 L 18.398438 -20.355469 L 18.398438 -28.1875 L 1.175781 -28.1875 Z M 1.175781 0 "/></g></g></g><g fill="#ffffff" fill-opacity="1"><g transform="translate(188.286869, 35.098749)"><g><path d="M 1.175781 0 L 10.179688 0 L 10.179688 -16.636719 L 10.257812 -16.636719 L 18.007812 0 L 29.753906 0 L 29.753906 -28.1875 L 20.75 -28.1875 L 20.75 -11.46875 L 20.671875 -11.46875 L 12.917969 -28.1875 L 1.175781 -28.1875 Z M 1.175781 0 "/></g></g></g><g fill="#ffffff" fill-opacity="1"><g transform="translate(222.927146, 35.098749)"><g><path d="M 13.507812 0.78125 C 21.414062 0.78125 25.839844 -2.9375 25.839844 -9.589844 L 25.839844 -28.1875 L 15.660156 -28.1875 L 15.660156 -10.765625 C 15.660156 -8.886719 14.875 -7.828125 13.507812 -7.828125 C 12.136719 -7.828125 11.351562 -8.886719 11.351562 -10.765625 L 11.351562 -28.1875 L 1.175781 -28.1875 L 1.175781 -9.589844 C 1.175781 -2.9375 5.597656 0.78125 13.507812 0.78125 Z M 13.507812 0.78125 "/></g></g></g><g fill="#ffffff" fill-opacity="1"><g transform="translate(253.653389, 35.098749)"><g><path d="M 1.175781 0 L 18.792969 0 L 18.792969 -7.828125 L 10.960938 -7.828125 L 10.960938 -10.960938 L 16.832031 -10.960938 L 16.832031 -17.617188 L 10.960938 -17.617188 L 10.960938 -20.355469 L 18.398438 -20.355469 L 18.398438 -28.1875 L 1.175781 -28.1875 Z M 1.175781 0 "/></g></g></g><g fill="#cb1e1e" fill-opacity="1"><g transform="translate(6.23769, 35.622123)"><g><path d="M -0.0390625 0 L 9.828125 0 L 10.726562 -4.304688 L 16.523438 -4.304688 L 17.265625 0 L 27.484375 0 L 20.007812 -28.1875 L 7.476562 -28.1875 Z M 11.707031 -10.960938 L 13.703125 -20.007812 L 13.78125 -20.007812 L 15.542969 -10.960938 Z M 11.707031 -10.960938 "/></g></g></g><g fill="#cb1e1e" fill-opacity="1"><g transform="translate(37.440693, 35.622123)"><g><path d="M 20.242188 0.585938 C 22.433594 0.585938 25.132812 -0.273438 26.777344 -1.488281 L 25.605469 -5.949219 C 25.175781 -5.714844 24.742188 -5.597656 24.3125 -5.597656 C 23.882812 -5.597656 23.453125 -5.910156 23.371094 -6.695312 L 23.175781 -8.261719 C 22.980469 -9.828125 22.472656 -11.039062 20.828125 -11.550781 L 20.828125 -11.589844 C 23.53125 -12.566406 25.054688 -15.113281 25.054688 -18.675781 C 25.054688 -24.78125 20.710938 -28.1875 12.878906 -28.1875 L 1.175781 -28.1875 L 1.175781 0 L 11.355469 0 L 11.355469 -9.394531 L 12.058594 -9.394531 C 12.722656 -9.394531 13.3125 -8.886719 13.390625 -8.261719 L 13.898438 -4.894531 C 14.367188 -1.683594 16.71875 0.585938 20.242188 0.585938 Z M 11.355469 -15.660156 L 11.355469 -21.140625 L 12.488281 -21.140625 C 14.015625 -21.140625 14.878906 -20.164062 14.878906 -18.402344 C 14.878906 -16.640625 14.015625 -15.660156 12.488281 -15.660156 Z M 11.355469 -15.660156 "/></g></g></g><g fill="#cb1e1e" fill-opacity="1"><g transform="translate(67.938983, 35.622123)"><g><path d="M 6.65625 0 L 16.835938 0 L 16.835938 -19.574219 L 22.707031 -19.574219 L 22.707031 -28.1875 L 0.78125 -28.1875 L 0.78125 -19.574219 L 6.65625 -19.574219 Z M 6.65625 0 "/></g></g></g><g fill="#cb1e1e" fill-opacity="1"><g transform="translate(95.148633, 35.622123)"><g/></g></g><g fill="#cb1e1e" fill-opacity="1"><g transform="translate(103.957519, 35.622123)"><g><path d="M -0.0390625 0 L 9.828125 0 L 10.726562 -4.304688 L 16.523438 -4.304688 L 17.265625 0 L 27.484375 0 L 20.007812 -28.1875 L 7.476562 -28.1875 Z M 11.707031 -10.960938 L 13.703125 -20.007812 L 13.78125 -20.007812 L 15.542969 -10.960938 Z M 11.707031 -10.960938 "/></g></g></g><g fill="#cb1e1e" fill-opacity="1"><g transform="translate(135.160525, 35.622123)"><g><path d="M 7.398438 0 L 20.710938 0 L 28.109375 -28.1875 L 17.578125 -28.1875 L 14.09375 -9.433594 L 14.015625 -9.433594 L 10.53125 -28.1875 L 0 -28.1875 Z M 7.398438 0 "/></g></g></g><g fill="#cb1e1e" fill-opacity="1"><g transform="translate(166.989941, 35.622123)"><g><path d="M 1.175781 0 L 18.792969 0 L 18.792969 -7.832031 L 10.960938 -7.832031 L 10.960938 -10.960938 L 16.835938 -10.960938 L 16.835938 -17.617188 L 10.960938 -17.617188 L 10.960938 -20.359375 L 18.402344 -20.359375 L 18.402344 -28.1875 L 1.175781 -28.1875 Z M 1.175781 0 "/></g></g></g><g fill="#cb1e1e" fill-opacity="1"><g transform="translate(190.088788, 35.622123)"><g><path d="M 1.175781 0 L 10.179688 0 L 10.179688 -16.640625 L 10.257812 -16.640625 L 18.007812 0 L 29.753906 0 L 29.753906 -28.1875 L 20.75 -28.1875 L 20.75 -11.472656 L 20.671875 -11.472656 L 12.917969 -28.1875 L 1.175781 -28.1875 Z M 1.175781 0 "/></g></g></g><g fill="#cb1e1e" fill-opacity="1"><g transform="translate(224.737052, 35.622123)"><g><path d="M 13.507812 0.78125 C 21.414062 0.78125 25.839844 -2.9375 25.839844 -9.59375 L 25.839844 -28.1875 L 15.660156 -28.1875 L 15.660156 -10.765625 C 15.660156 -8.886719 14.878906 -7.832031 13.507812 -7.832031 C 12.136719 -7.832031 11.355469 -8.886719 11.355469 -10.765625 L 11.355469 -28.1875 L 1.175781 -28.1875 L 1.175781 -9.59375 C 1.175781 -2.9375 5.597656 0.78125 13.507812 0.78125 Z M 13.507812 0.78125 "/></g></g></g><g fill="#cb1e1e" fill-opacity="1"><g transform="translate(255.470256, 35.622123)"><g><path d="M 1.175781 0 L 18.792969 0 L 18.792969 -7.832031 L 10.960938 -7.832031 L 10.960938 -10.960938 L 16.835938 -10.960938 L 16.835938 -17.617188 L 10.960938 -17.617188 L 10.960938 -20.359375 L 18.402344 -20.359375 L 18.402344 -28.1875 L 1.175781 -28.1875 Z M 1.175781 0 "/></g></g></g><g clip-path="url(#22b54002a4)"><path stroke-linecap="butt" transform="matrix(0.978765, -0.000000000000000002, 0.000000000000000002, 0.978765, -7.507099, -1.760222)" fill="none" stroke-linejoin="miter" d="M 12.163834 38.000758 L 22.241105 38.000758 L 23.159035 33.594696 L 29.089659 33.594696 L 29.839967 38.000758 L 40.280418 38.000758 L 32.641647 9.201713 L 19.838524 9.201713 Z M 24.164767 26.798026 L 26.208158 17.558864 L 26.283987 17.558864 L 28.083927 26.798026 Z M 64.765194 38.595417 C 67.004144 38.595417 69.765915 37.717397 71.446125 36.476197 L 70.244835 31.914486 C 69.805825 32.161928 69.366815 32.277667 68.927805 32.277667 C 68.488796 32.277667 68.037813 31.966369 67.961984 31.164178 L 67.766425 29.563788 C 67.558893 27.959406 67.044054 26.722197 65.363844 26.203367 L 65.363844 26.163457 C 68.125615 25.157725 69.678113 22.559585 69.678113 18.919795 C 69.678113 12.677873 65.244114 9.201713 57.246153 9.201713 L 45.285131 9.201713 L 45.285131 38.000758 L 55.685673 38.000758 L 55.685673 28.398416 L 56.408043 28.398416 C 57.082522 28.398416 57.685163 28.917246 57.764983 29.563788 L 58.283813 33.000037 C 58.762732 36.280638 61.161322 38.595417 64.765194 38.595417 Z M 55.685673 22.004837 L 55.685673 16.397484 L 56.847053 16.397484 C 58.399551 16.397484 59.277571 17.403215 59.277571 19.203156 C 59.277571 20.999105 58.399551 22.004837 56.847053 22.004837 Z M 82.038235 38.000758 L 92.438777 38.000758 L 92.438777 18.001865 L 98.44523 18.001865 L 98.44523 9.201713 L 76.043756 9.201713 L 76.043756 18.001865 L 82.038235 18.001865 Z M 112.002652 38.000758 L 122.083914 38.000758 L 123.001844 33.594696 L 128.928476 33.594696 L 129.678784 38.000758 L 140.119236 38.000758 L 132.484456 9.201713 L 119.681333 9.201713 Z M 124.007575 26.798026 L 126.046975 17.558864 L 126.126795 17.558864 L 127.922745 26.798026 Z M 151.481609 38.000758 L 165.086922 38.000758 L 172.641882 9.201713 L 161.882151 9.201713 L 158.326171 28.362497 L 158.238369 28.362497 L 154.68638 9.201713 L 143.922657 9.201713 Z M 177.642603 38.000758 L 195.642007 38.000758 L 195.642007 30.002797 L 187.644046 30.002797 L 187.644046 26.798026 L 193.638525 26.798026 L 193.638525 20.001355 L 187.644046 20.001355 L 187.644046 17.199674 L 195.242907 17.199674 L 195.242907 9.201713 L 177.642603 9.201713 Z M 201.245368 38.000758 L 210.44462 38.000758 L 210.44462 20.999105 L 210.520449 20.999105 L 218.442581 38.000758 L 230.443513 38.000758 L 230.443513 9.201713 L 221.244262 9.201713 L 221.244262 26.283187 L 221.164442 26.283187 L 213.246301 9.201713 L 201.245368 9.201713 Z M 249.241116 38.798958 C 257.326879 38.798958 261.840698 35.003519 261.840698 28.194875 L 261.840698 9.201713 L 251.440156 9.201713 L 251.440156 27.005558 C 251.440156 28.917246 250.637965 30.002797 249.241116 30.002797 C 247.844266 30.002797 247.046067 28.917246 247.046067 27.005558 L 247.046067 9.201713 L 236.645525 9.201713 L 236.645525 28.194875 C 236.645525 35.003519 241.167326 38.798958 249.241116 38.798958 Z M 268.04271 38.000758 L 286.042113 38.000758 L 286.042113 30.002797 L 278.044152 30.002797 L 278.044152 26.798026 L 284.038631 26.798026 L 284.038631 20.001355 L 278.044152 20.001355 L 278.044152 17.199674 L 285.643013 17.199674 L 285.643013 9.201713 L 268.04271 9.201713 Z M 268.04271 38.000758 " stroke="#191516" stroke-width="1.5" stroke-opacity="1" stroke-miterlimit="4"/></g></svg>