<svg xmlns="http://www.w3.org/2000/svg" xmlns:xlink="http://www.w3.org/1999/xlink" width="371" zoomAndPan="magnify" viewBox="0 0 278.25 44.999999" height="60" preserveAspectRatio="xMidYMid meet" version="1.0"><defs><g/><clipPath id="a63494c665"><path d="M 259 6 L 277.503906 6 L 277.503906 36 L 259 36 Z M 259 6 " clip-rule="nonzero"/></clipPath><clipPath id="cc79035771"><path d="M 0 0.0585938 L 277.503906 0.0585938 L 277.503906 44.9375 L 0 44.9375 Z M 0 0.0585938 " clip-rule="nonzero"/></clipPath></defs><g fill="#191516" fill-opacity="0.349"><g transform="translate(0.77698, 39.037077)"><g><path d="M -0.0390625 0 L 9.960938 0 L 10.875 -4.367188 L 16.75 -4.367188 L 17.503906 0 L 27.859375 0 L 20.28125 -28.574219 L 7.582031 -28.574219 Z M 11.867188 -11.113281 L 13.890625 -20.28125 L 13.96875 -20.28125 L 15.757812 -11.113281 Z M 11.867188 -11.113281 "/></g></g></g><g fill="#191516" fill-opacity="0.349"><g transform="translate(32.402988, 39.037077)"><g><path d="M 20.519531 0.59375 C 22.742188 0.59375 25.480469 -0.277344 27.148438 -1.507812 L 25.957031 -6.03125 C 25.519531 -5.792969 25.082031 -5.675781 24.644531 -5.675781 C 24.210938 -5.675781 23.773438 -5.992188 23.695312 -6.785156 L 23.496094 -8.375 C 23.296875 -9.960938 22.78125 -11.191406 21.113281 -11.707031 L 21.113281 -11.746094 C 23.851562 -12.738281 25.402344 -15.320312 25.402344 -18.929688 C 25.402344 -25.121094 20.996094 -28.574219 13.058594 -28.574219 L 1.191406 -28.574219 L 1.191406 0 L 11.507812 0 L 11.507812 -9.523438 L 12.222656 -9.523438 C 12.898438 -9.523438 13.492188 -9.007812 13.574219 -8.375 L 14.089844 -4.960938 C 14.566406 -1.707031 16.945312 0.59375 20.519531 0.59375 Z M 11.507812 -15.875 L 11.507812 -21.429688 L 12.660156 -21.429688 C 14.207031 -21.429688 15.082031 -20.4375 15.082031 -18.652344 C 15.082031 -16.867188 14.207031 -15.875 12.660156 -15.875 Z M 11.507812 -15.875 "/></g></g></g><g fill="#191516" fill-opacity="0.349"><g transform="translate(63.314761, 39.037077)"><g><path d="M 6.746094 0 L 17.066406 0 L 17.066406 -19.84375 L 23.019531 -19.84375 L 23.019531 -28.574219 L 0.792969 -28.574219 L 0.792969 -19.84375 L 6.746094 -19.84375 Z M 6.746094 0 "/></g></g></g><g fill="#191516" fill-opacity="0.349"><g transform="translate(90.893413, 39.037077)"><g/></g></g><g fill="#191516" fill-opacity="0.349"><g transform="translate(99.822412, 39.037077)"><g><path d="M -0.0390625 0 L 9.960938 0 L 10.875 -4.367188 L 16.75 -4.367188 L 17.503906 0 L 27.859375 0 L 20.28125 -28.574219 L 7.582031 -28.574219 Z M 11.867188 -11.113281 L 13.890625 -20.28125 L 13.96875 -20.28125 L 15.757812 -11.113281 Z M 11.867188 -11.113281 "/></g></g></g><g fill="#191516" fill-opacity="0.349"><g transform="translate(131.448419, 39.037077)"><g><path d="M 7.5 0 L 20.996094 0 L 28.496094 -28.574219 L 17.820312 -28.574219 L 14.289062 -9.566406 L 14.207031 -9.566406 L 10.675781 -28.574219 L 0 -28.574219 Z M 7.5 0 "/></g></g></g><g fill="#191516" fill-opacity="0.349"><g transform="translate(163.709306, 39.037077)"><g><path d="M 1.191406 0 L 19.050781 0 L 19.050781 -7.9375 L 11.113281 -7.9375 L 11.113281 -11.113281 L 17.066406 -11.113281 L 17.066406 -17.859375 L 11.113281 -17.859375 L 11.113281 -20.636719 L 18.652344 -20.636719 L 18.652344 -28.574219 L 1.191406 -28.574219 Z M 1.191406 0 "/></g></g></g><g fill="#191516" fill-opacity="0.349"><g transform="translate(187.121534, 39.037077)"><g><path d="M 1.191406 0 L 10.320312 0 L 10.320312 -16.867188 L 10.398438 -16.867188 L 18.257812 0 L 30.164062 0 L 30.164062 -28.574219 L 21.035156 -28.574219 L 21.035156 -11.628906 L 20.957031 -11.628906 L 13.097656 -28.574219 L 1.191406 -28.574219 Z M 1.191406 0 "/></g></g></g><g fill="#191516" fill-opacity="0.349"><g transform="translate(222.239394, 39.037077)"><g><path d="M 13.691406 0.792969 C 21.710938 0.792969 26.195312 -2.976562 26.195312 -9.722656 L 26.195312 -28.574219 L 15.875 -28.574219 L 15.875 -10.914062 C 15.875 -9.007812 15.082031 -7.9375 13.691406 -7.9375 C 12.304688 -7.9375 11.507812 -9.007812 11.507812 -10.914062 L 11.507812 -28.574219 L 1.191406 -28.574219 L 1.191406 -9.722656 C 1.191406 -2.976562 5.675781 0.792969 13.691406 0.792969 Z M 13.691406 0.792969 "/></g></g></g><g fill="#191516" fill-opacity="0.349"><g transform="translate(253.389258, 39.037077)"><g><path d="M 1.191406 0 L 19.050781 0 L 19.050781 -7.9375 L 11.113281 -7.9375 L 11.113281 -11.113281 L 17.066406 -11.113281 L 17.066406 -17.859375 L 11.113281 -17.859375 L 11.113281 -20.636719 L 18.652344 -20.636719 L 18.652344 -28.574219 L 1.191406 -28.574219 Z M 1.191406 0 "/></g></g></g><g fill="#ffffff" fill-opacity="1"><g transform="translate(3.775353, 35.93217)"><g><path d="M -0.0390625 0 L 9.960938 0 L 10.875 -4.367188 L 16.75 -4.367188 L 17.503906 0 L 27.859375 0 L 20.28125 -28.574219 L 7.582031 -28.574219 Z M 11.867188 -11.113281 L 13.890625 -20.28125 L 13.96875 -20.28125 L 15.757812 -11.113281 Z M 11.867188 -11.113281 "/></g></g></g><g fill="#ffffff" fill-opacity="1"><g transform="translate(35.401361, 35.93217)"><g><path d="M 20.519531 0.59375 C 22.742188 0.59375 25.480469 -0.277344 27.148438 -1.507812 L 25.957031 -6.03125 C 25.519531 -5.792969 25.082031 -5.675781 24.644531 -5.675781 C 24.210938 -5.675781 23.773438 -5.992188 23.695312 -6.785156 L 23.496094 -8.375 C 23.296875 -9.960938 22.78125 -11.191406 21.113281 -11.707031 L 21.113281 -11.746094 C 23.851562 -12.738281 25.402344 -15.320312 25.402344 -18.929688 C 25.402344 -25.121094 20.996094 -28.574219 13.058594 -28.574219 L 1.191406 -28.574219 L 1.191406 0 L 11.507812 0 L 11.507812 -9.523438 L 12.222656 -9.523438 C 12.898438 -9.523438 13.492188 -9.007812 13.574219 -8.375 L 14.089844 -4.960938 C 14.566406 -1.707031 16.945312 0.59375 20.519531 0.59375 Z M 11.507812 -15.875 L 11.507812 -21.429688 L 12.660156 -21.429688 C 14.207031 -21.429688 15.082031 -20.4375 15.082031 -18.652344 C 15.082031 -16.867188 14.207031 -15.875 12.660156 -15.875 Z M 11.507812 -15.875 "/></g></g></g><g fill="#ffffff" fill-opacity="1"><g transform="translate(66.313135, 35.93217)"><g><path d="M 6.746094 0 L 17.066406 0 L 17.066406 -19.84375 L 23.019531 -19.84375 L 23.019531 -28.574219 L 0.792969 -28.574219 L 0.792969 -19.84375 L 6.746094 -19.84375 Z M 6.746094 0 "/></g></g></g><g fill="#ffffff" fill-opacity="1"><g transform="translate(93.891786, 35.93217)"><g/></g></g><g fill="#ffffff" fill-opacity="1"><g transform="translate(102.820786, 35.93217)"><g><path d="M -0.0390625 0 L 9.960938 0 L 10.875 -4.367188 L 16.75 -4.367188 L 17.503906 0 L 27.859375 0 L 20.28125 -28.574219 L 7.582031 -28.574219 Z M 11.867188 -11.113281 L 13.890625 -20.28125 L 13.96875 -20.28125 L 15.757812 -11.113281 Z M 11.867188 -11.113281 "/></g></g></g><g fill="#ffffff" fill-opacity="1"><g transform="translate(134.446792, 35.93217)"><g><path d="M 7.5 0 L 20.996094 0 L 28.496094 -28.574219 L 17.820312 -28.574219 L 14.289062 -9.566406 L 14.207031 -9.566406 L 10.675781 -28.574219 L 0 -28.574219 Z M 7.5 0 "/></g></g></g><g fill="#ffffff" fill-opacity="1"><g transform="translate(166.70768, 35.93217)"><g><path d="M 1.191406 0 L 19.050781 0 L 19.050781 -7.9375 L 11.113281 -7.9375 L 11.113281 -11.113281 L 17.066406 -11.113281 L 17.066406 -17.859375 L 11.113281 -17.859375 L 11.113281 -20.636719 L 18.652344 -20.636719 L 18.652344 -28.574219 L 1.191406 -28.574219 Z M 1.191406 0 "/></g></g></g><g fill="#ffffff" fill-opacity="1"><g transform="translate(190.119908, 35.93217)"><g><path d="M 1.191406 0 L 10.320312 0 L 10.320312 -16.867188 L 10.398438 -16.867188 L 18.257812 0 L 30.164062 0 L 30.164062 -28.574219 L 21.035156 -28.574219 L 21.035156 -11.628906 L 20.957031 -11.628906 L 13.097656 -28.574219 L 1.191406 -28.574219 Z M 1.191406 0 "/></g></g></g><g fill="#ffffff" fill-opacity="1"><g transform="translate(225.237768, 35.93217)"><g><path d="M 13.691406 0.792969 C 21.710938 0.792969 26.195312 -2.976562 26.195312 -9.722656 L 26.195312 -28.574219 L 15.875 -28.574219 L 15.875 -10.914062 C 15.875 -9.007812 15.082031 -7.9375 13.691406 -7.9375 C 12.304688 -7.9375 11.507812 -9.007812 11.507812 -10.914062 L 11.507812 -28.574219 L 1.191406 -28.574219 L 1.191406 -9.722656 C 1.191406 -2.976562 5.675781 0.792969 13.691406 0.792969 Z M 13.691406 0.792969 "/></g></g></g><g fill="#ffffff" fill-opacity="1"><g transform="translate(256.387632, 35.93217)"><g><path d="M 1.191406 0 L 19.050781 0 L 19.050781 -7.9375 L 11.113281 -7.9375 L 11.113281 -11.113281 L 17.066406 -11.113281 L 17.066406 -17.859375 L 11.113281 -17.859375 L 11.113281 -20.636719 L 18.652344 -20.636719 L 18.652344 -28.574219 L 1.191406 -28.574219 Z M 1.191406 0 "/></g></g></g><g fill="#bb1d1d" fill-opacity="1"><g transform="translate(5.606899, 35.173717)"><g><path d="M -0.0390625 0 L 9.960938 0 L 10.875 -4.367188 L 16.75 -4.367188 L 17.503906 0 L 27.859375 0 L 20.28125 -28.574219 L 7.582031 -28.574219 Z M 11.867188 -11.113281 L 13.890625 -20.28125 L 13.96875 -20.28125 L 15.757812 -11.113281 Z M 11.867188 -11.113281 "/></g></g></g><g fill="#bb1d1d" fill-opacity="1"><g transform="translate(37.231614, 35.173717)"><g><path d="M 20.519531 0.59375 C 22.742188 0.59375 25.480469 -0.277344 27.148438 -1.507812 L 25.957031 -6.03125 C 25.519531 -5.792969 25.082031 -5.675781 24.644531 -5.675781 C 24.210938 -5.675781 23.773438 -5.992188 23.695312 -6.785156 L 23.496094 -8.375 C 23.296875 -9.960938 22.78125 -11.191406 21.113281 -11.707031 L 21.113281 -11.746094 C 23.851562 -12.738281 25.398438 -15.320312 25.398438 -18.929688 C 25.398438 -25.121094 20.996094 -28.574219 13.058594 -28.574219 L 1.191406 -28.574219 L 1.191406 0 L 11.507812 0 L 11.507812 -9.523438 L 12.222656 -9.523438 C 12.898438 -9.523438 13.492188 -9.007812 13.574219 -8.375 L 14.089844 -4.960938 C 14.566406 -1.707031 16.945312 0.59375 20.519531 0.59375 Z M 11.507812 -15.875 L 11.507812 -21.429688 L 12.660156 -21.429688 C 14.207031 -21.429688 15.082031 -20.4375 15.082031 -18.652344 C 15.082031 -16.867188 14.207031 -15.875 12.660156 -15.875 Z M 11.507812 -15.875 "/></g></g></g><g fill="#bb1d1d" fill-opacity="1"><g transform="translate(68.142118, 35.173717)"><g><path d="M 6.746094 0 L 17.066406 0 L 17.066406 -19.84375 L 23.019531 -19.84375 L 23.019531 -28.574219 L 0.792969 -28.574219 L 0.792969 -19.84375 L 6.746094 -19.84375 Z M 6.746094 0 "/></g></g></g><g fill="#bb1d1d" fill-opacity="1"><g transform="translate(95.719657, 35.173717)"><g/></g></g><g fill="#bb1d1d" fill-opacity="1"><g transform="translate(104.648412, 35.173717)"><g><path d="M -0.0390625 0 L 9.960938 0 L 10.875 -4.367188 L 16.75 -4.367188 L 17.503906 0 L 27.859375 0 L 20.28125 -28.574219 L 7.582031 -28.574219 Z M 11.867188 -11.113281 L 13.890625 -20.28125 L 13.96875 -20.28125 L 15.757812 -11.113281 Z M 11.867188 -11.113281 "/></g></g></g><g fill="#bb1d1d" fill-opacity="1"><g transform="translate(136.273133, 35.173717)"><g><path d="M 7.5 0 L 20.996094 0 L 28.496094 -28.574219 L 17.820312 -28.574219 L 14.289062 -9.566406 L 14.207031 -9.566406 L 10.675781 -28.574219 L 0 -28.574219 Z M 7.5 0 "/></g></g></g><g fill="#bb1d1d" fill-opacity="1"><g transform="translate(168.532699, 35.173717)"><g><path d="M 1.191406 0 L 19.050781 0 L 19.050781 -7.9375 L 11.113281 -7.9375 L 11.113281 -11.113281 L 17.066406 -11.113281 L 17.066406 -17.859375 L 11.113281 -17.859375 L 11.113281 -20.636719 L 18.652344 -20.636719 L 18.652344 -28.574219 L 1.191406 -28.574219 Z M 1.191406 0 "/></g></g></g><g fill="#bb1d1d" fill-opacity="1"><g transform="translate(191.944024, 35.173717)"><g><path d="M 1.191406 0 L 10.320312 0 L 10.320312 -16.867188 L 10.398438 -16.867188 L 18.257812 0 L 30.164062 0 L 30.164062 -28.574219 L 21.035156 -28.574219 L 21.035156 -11.628906 L 20.957031 -11.628906 L 13.097656 -28.574219 L 1.191406 -28.574219 Z M 1.191406 0 "/></g></g></g><g fill="#bb1d1d" fill-opacity="1"><g transform="translate(227.060425, 35.173717)"><g><path d="M 13.691406 0.792969 C 21.710938 0.792969 26.195312 -2.976562 26.195312 -9.722656 L 26.195312 -28.574219 L 15.875 -28.574219 L 15.875 -10.914062 C 15.875 -9.007812 15.082031 -7.9375 13.691406 -7.9375 C 12.304688 -7.9375 11.507812 -9.007812 11.507812 -10.914062 L 11.507812 -28.574219 L 1.191406 -28.574219 L 1.191406 -9.722656 C 1.191406 -2.976562 5.675781 0.792969 13.691406 0.792969 Z M 13.691406 0.792969 "/></g></g></g><g clip-path="url(#a63494c665)"><g fill="#bb1d1d" fill-opacity="1"><g transform="translate(258.208994, 35.173717)"><g><path d="M 1.191406 0 L 19.050781 0 L 19.050781 -7.9375 L 11.113281 -7.9375 L 11.113281 -11.113281 L 17.066406 -11.113281 L 17.066406 -17.859375 L 11.113281 -17.859375 L 11.113281 -20.636719 L 18.652344 -20.636719 L 18.652344 -28.574219 L 1.191406 -28.574219 Z M 1.191406 0 "/></g></g></g></g><g clip-path="url(#cc79035771)"><path stroke-linecap="butt" transform="matrix(0.747984, -0.000000000000000001, 0.000000000000000001, 0.747984, -8.373461, -1.669372)" fill="none" stroke-linejoin="miter" d="M 16.197741 48.998171 L 29.567014 48.998171 L 30.783826 43.159559 L 38.648719 43.159559 L 39.646192 48.998171 L 53.4907 48.998171 L 43.364521 10.796519 L 26.381366 10.796519 Z M 32.120754 34.140522 L 34.825942 21.888837 L 34.93039 21.888837 L 37.311791 34.140522 Z M 85.968633 49.791972 C 88.934941 49.791972 92.601046 48.622161 94.825776 46.977113 L 93.232953 40.929606 C 92.65327 41.253393 92.068364 41.410065 91.483458 41.410065 C 90.903775 41.410065 90.308424 40.992275 90.203977 39.932133 L 89.942858 37.806628 C 89.671295 35.681122 88.987164 34.036075 86.757211 33.351944 L 86.757211 33.299721 C 90.423317 31.962793 92.480931 28.52125 92.480931 23.685333 C 92.480931 15.407873 86.60054 10.796519 75.993902 10.796519 L 60.123113 10.796519 L 60.123113 48.998171 L 73.92062 48.998171 L 73.92062 36.266028 L 74.876315 36.266028 C 75.76934 36.266028 76.573586 36.950159 76.678033 37.806628 L 77.367386 42.365759 C 77.999293 46.721217 81.18494 49.791972 85.968633 49.791972 Z M 73.92062 27.779673 L 73.92062 20.343015 L 75.46122 20.343015 C 77.518835 20.343015 78.688646 21.679942 78.688646 24.061344 C 78.688646 26.447968 77.518835 27.779673 75.46122 27.779673 Z M 108.868735 48.998171 L 122.666242 48.998171 L 122.666242 22.468521 L 130.635582 22.468521 L 130.635582 10.796519 L 100.915062 10.796519 L 100.915062 22.468521 L 108.868735 22.468521 Z M 148.610987 48.998171 L 161.98026 48.998171 L 163.197073 43.159559 L 171.056743 43.159559 L 172.054216 48.998171 L 185.903947 48.998171 L 175.772545 10.796519 L 158.789391 10.796519 Z M 164.528778 34.140522 L 167.239189 21.888837 L 167.343636 21.888837 L 169.725038 34.140522 Z M 200.965269 48.998171 L 219.013787 48.998171 L 229.040741 10.796519 L 214.762776 10.796519 L 210.046974 36.213804 L 209.932082 36.213804 L 205.21628 10.796519 L 190.943536 10.796519 Z M 235.662709 48.998171 L 259.539395 48.998171 L 259.539395 38.391533 L 248.927535 38.391533 L 248.927535 34.140522 L 256.881208 34.140522 L 256.881208 25.126708 L 248.927535 25.126708 L 248.927535 21.408379 L 259.006713 21.408379 L 259.006713 10.796519 L 235.662709 10.796519 Z M 266.960386 48.998171 L 279.16507 48.998171 L 279.16507 26.447968 L 279.269517 26.447968 L 289.77693 48.998171 L 305.69472 48.998171 L 305.69472 10.796519 L 293.490037 10.796519 L 293.490037 33.456392 L 293.390812 33.456392 L 282.883399 10.796519 L 266.960386 10.796519 Z M 330.621103 50.063535 C 341.347855 50.063535 347.332694 45.023946 347.332694 35.994465 L 347.332694 10.796519 L 333.535187 10.796519 L 333.535187 34.412086 C 333.535187 36.950159 332.475045 38.391533 330.621103 38.391533 C 328.767161 38.391533 327.707019 36.950159 327.707019 34.412086 L 327.707019 10.796519 L 313.909512 10.796519 L 313.909512 35.994465 C 313.909512 45.023946 319.910018 50.063535 330.621103 50.063535 Z M 355.552708 48.998171 L 379.429393 48.998171 L 379.429393 38.391533 L 368.817533 38.391533 L 368.817533 34.140522 L 376.771206 34.140522 L 376.771206 25.126708 L 368.817533 25.126708 L 368.817533 21.408379 L 378.896711 21.408379 L 378.896711 10.796519 L 355.552708 10.796519 Z M 355.552708 48.998171 " stroke="#490505" stroke-width="1.989866" stroke-opacity="1" stroke-miterlimit="4"/></g></svg>